<svg xmlns="http://www.w3.org/2000/svg" viewBox="0 0 374.77 101.8"><path d="M5.63 57.64c.33.77.67.82 1 .29-.33 0-.63-.93-1-.29zm.91-2.04c.34-.21.67.95 1 .28-.32-.28-.66-1.3-1-.28zm2.68 3.98c.36.52.37-.18.9-.36-.18-.55-.37-.44-.56-.67-.21.33-.1.69-.34 1.03zm10.13 18.83c.15.29.3.58.44.87.23-.75.45-.21.69-.79-.37-.82-.74-.85-1.13-.08zM8.45 55.94c-.17.61.58 1.34.79.69 0-.8-.27-.27-.56-1.1-.03.32-.07.63-.23.41zM20.92 79c.43 0 .44.74.66 1.31a3.28 3.28 0 0 0-.2-2.12zm-5.76-17.12c-.14.75.66 1.09.9.06-.29-.94-.61.73-.9-.06zm10 19.12c.17.09.48-.23.33.23.22.51.46-.61.68-.79a2.48 2.48 0 0 0 1 1.55c0-1.7.78-1.5 1.38-2-.34-.08-.68.18-1-.7 0 1.16-.2.67-.69 1.21a2.11 2.11 0 0 0-.22-.86c-.3.48-.6.46-.89-.07a2.88 2.88 0 0 0-.59 1.43zm-8.55-18.39l.45.88c0-.32.14-.9.34-.61.18-.59-.58-1.15-.79-.27zm1.39-5.8c.33.27.68.07 1-.56-.3-.18-.95-.5-1 .56zm16.5 29.52c.32.67.89.52.9-.35-.3.02-.59-.14-.9.35zM21.41 57.49c.37.13.73 1.23 1.13.08-.38-.3-.75-.57-1.13-.08zM33 72.09c.49.41.44-.55 1-1a.79.79 0 0 1-.44-.46c-.13 1.37-.68.24-.56 1.46zm-7.72-17.25c.15-.68-.66-.75-.88-1.76-.35.92.6 1.34.88 1.76zm3.93 1.77c.38 0 .74.35 1.13-.33-.45-.36-.9-.37-1.34-1-.39.44.6.94.21 1.33zm12.44 24.58c-.16 1.3.66.28.89.5.16-1.05-.66-.32-.89-.5zm.86-4.35c-.25-.83-.53.42-.77-.7a2.42 2.42 0 0 0 0 1.68c.26-1.02.77.07.77-.98zm6.3 12.76c.41.53.81 1 1.24.3-.41-.17-.82-.58-1.24-.3zM26.55 44.39c.22.79.45.28.67.9.41-.54.14-1.12-.2-1.71zm2.98 5.5c.29.92.59.7.89.91.15-.63-.64-1.87-.89-.91zm-.61-4.68c.07.22.15.12.23 0 .89 1.14 1.81.16 2.7 1.05.51-.66.2-1.39.48-2.07-.5-.66-.41.69-.8.57-.42-.58-.12-1.05-.55-1.09 0 1.15-.68.79-1 1.39-.25-.81-.52-.59-.78-1.11-.55.39.23.87-.28 1.26zM47.88 79c-.23-.28.44-.73.58-.59.25-1.08-.44.14-.55-.67-.47.45-.19 1-.37 1.44a3.74 3.74 0 0 0 .89.92.75.75 0 0 0-.55-1.1zM21.24 25.65c.37.49.74 1.5 1.13.5-.37-.25-.74-.98-1.13-.5zm-.09-1.49c-.18.73.58.81.79.27-.25-1.17-.53.07-.79-.27zM22.72 26c.3-.47.18-1 .36-1.45-.19-.22-.38 0-.57-.26a2.78 2.78 0 0 0 .21 1.71zm26.52 52.66c-.06 1.3.89.47 1.22 1.15.32-1.37-.83-1.25-1.22-1.15zM18.68 12c.34.27.86-.29 1.5-1.36-.5.36-.99.21-1.5 1.36zm34.81 68.28c0-.69-.54-1.63-.89-.92-.01.64.54 1.87.89.92zM29.56 32.6c.36.85 1.65.26 1-1-.32 1.14-.66.56-1 1zm7.71 14.09c.07 1.14 1.11 1.22 1.58.13a.75.75 0 0 1 0-.85c-.49-1.04-1.06 1.4-1.58.72zM24.74 19.17c.44 1 .9 1 1.36.52-.46.2-.89-1.27-1.36-.52zm30.87 61.92c.17.07.34.15.22.44.73-.9 1.41.48 2.15-.46-1.06.05-1.53-2.44-2.37.02zM34.53 33.83c.25.94.54-.29.81-.57a.82.82 0 0 1-.45-.46 2.1 2.1 0 0 1-.36 1.03zM58.2 81.09c-.28.74.34.27.43.88-.19-1.31.4-.06.81-1-.24-1.13-.54.85-.78-.28-.16.31-.32.62-.46.4zm1.34.53c.72.4.85 2.06 1.44 1.18-.68-.76.22-1.39-.41-2.15-.04 1.48-.66.23-1.03.97zM35 24.8c.53.28 1.28-.32.82-1.41-.42.61-.59.43-.82 1.41zm28.36 57.14c.43 1 .9.22 1.34.53.22.51-.06 1-.37 1.45.78.63.77-1.48 1.83-1.12-.21-.92-.24-.51-.65-1.31-.51.75.17.26.31 1.07-.82.02-1.62-1.38-2.46-.62zM52.45 51.93c.48.65 1.06-.23 1.26-1-.49-.11-1.05-.14-1.26 1zm-7.07-15.56c.41.11.13.3.44.88a4.8 4.8 0 0 0 .18-1.46c-.23-.24-.43.32-.62.58zm10.35 3.39c.49.22 1 .38 1.49-.52-.48.35-1.35-.56-1.49.52zm-6.66-25.23c.25.58.52.37.78.7.4-.39-.6-.9-.2-1.28-.19-.24-.38.32-.58.58zm-5.7-11.85c.45.56.91.11 1.38-.74-.44.18-1.28-.16-1.38.74zM67.36 47c.14.3.29.59.43.88 0-.31.08-.62.23-.39.22-.59-.48-1.19-.66-.49zM51.88 10.12c.48.73 1 0 1.46 1.18.21-.48-.06-1-.09-1.49.32-.37.8.44.81-.56-.26-.34-.54.61-.79-.28-.27 1.47-.85.22-1.39 1.15zM69.6 42.38c.19 0 .37.49.56.27.38-.56 0-1.5-.3-1.51-.52.38.26.86-.26 1.24zM58.48 9.82c0 1.06 1.51 1.47 1.59.13-.53.12-1.07.68-1.59-.13zm-.87-7.45c.36.67.75.51 1.14-.33-.38.15-.75-.25-1.14.33zm6.48 11.28c.37.2.74.8 1.13.1-.37-.31-.74-.62-1.13-.1zm4.04 2.03c.26.39.54-.12.79.28.13-.34-.17-.72-.32-1.09zm1.71-.49c.29.79.61.05.9.5.15-.45-.64-1.5-.9-.5zm15.87 30.48c.12-.13.07-.28 0-.42.16-.2.29.23.44.46.28-.23.17-1.48.59-1 .4-.73-.61-.3-.21-.86-.34.08-1.41.79-.82 1.82zM87 44.3c.14.45.29.26.45 0 .16.3.32.59.2.86.19.24.39-.32.58-.58l-.54-1.1c-.25.79-.46.25-.69.82zm2.49 4.23c.3.29.6 0 .91-.35-.28-.78-.59-.27-.91.35zM76 18.47c.49.29.47-1.21.27-1.67-.57-.05-.16 1.06-.27 1.67zm-.84-2.61c.59.4 1.42 1.08 1.71-.49-.57.39-1.11-.98-1.71.49zm1.65 2.46c.38-.15.75.25 1.14-.32-.37-.26-.75-.06-1.12-.52-.1.27.17.57-.02.84zm1.84 3.75c1-.33 1.23.39.61-1.85a4.09 4.09 0 0 0-.61 1.85zM92.89 48.4c.36.65.73.68 1.12.1-.37-.2-.73-.8-1.12-.1zm5.48 2.38c1.09-1.11 2-.06 2.64-1.67a4 4 0 0 0-2.5.62c-.11-.29.12-.55.24-.82-.75-.81-.81.88-.38 1.87zM85.49 20.55c.58.62.24-1.62.59-1 .06-1.38-.77.5-.59 1zm.58-.55c.33.3.67.28 1-.54-.3-.32-.65-.12-1 .54zm17.53 29.56l.43.88c.23-.34.12-.69.37-1-.27.12-.52-.44-.8.12zM93.53 25.88c.18-.48-.1-1 .37-1.45-.53-.28-1.2 1.25-.37 1.45zM109.59 8.3c.52 1.31 1-.13 1-1-.3.02-.65.57-1 1zM121 10c.47.83.45-1 1-.12.21.82-.45.51-.59 1 .44.53.84-.06 1-1-.29-.1-.41-.33-.43-.88.52-1 1 .63 1.49-.5-.27 0-.54.17-.78-.71-.66 1-1.25.51-1.58-.14.03.77.53 1.59-.11 2.35zm4.3-.09l.43.88c.46-.72.46-.32.72-1.2-.4-.76-1.07 1-.67-.48-.29-.52-.43.61-.48.8zm1.7 1.21a3.79 3.79 0 0 1 .72-1.63l-.32-.66c-.12.27-.23.31-.34.18 0 .8.1.56-.37 1 .18.4.05.74.31 1.11zm1.76 1c.4-.77.76-.07 1.15-.74-.47-.53-1 .42-1.45-.76-.23.91.16.56.3 1.5zm1.86-1.94a1.22 1.22 0 0 0-.15 1.47.69.69 0 0 0 .46-.39 2.28 2.28 0 0 0-.31-1.08zm.32.67c.21.36.09.71.32 1.08.22-.3.12-.9.35-.6.13-.34-.17-.72-.31-1.09zm.73-1.63c-.08.43.77 1.82 1.1.95-.36-.43-.72-1.17-1.1-.95zm6.5 2.7c.28-.77.54-.5.82-1-.25-.83-.54.13-.78-.7a1.51 1.51 0 0 0-.04 1.7zm3.52-.31c.29.53.59.56.9.08l-.43-.88zm2.14.39a8.41 8.41 0 0 0 1.34.55c.38-.46-.67-1.05-.3-1.51-.27-.24-.23.34-.35.6s-.44-.51-.69.36zm1.53-2.17c.25.4.54-.54.8-.14a1.06 1.06 0 0 0-.77-1.13c-.21.44.28.87-.03 1.27zm2.51 3.39c.72-1.15 1.36.09 2 .19.47-1.27-.8-1.53-1.06-2.63-.13 1.19 0 1.3-.73 1.62-.46-1-.38-1.6-1-1.57a2.89 2.89 0 0 0 .79 2.39zm.19-2.72c.48.33 1-.16 1.46.34-.02-.59-1.01-1.54-1.46-.34zm2.4-.84c.18.42.37.22.55.68.33-.6-.25-1.28.16-1.88-.22-.17-.45 0-.69.36.46.71.52.18-.02.84zm3.29.09c.17.54.36.45.54.68-.07-.5.22-1-.07-1.49-.06.77-.16.24-.47.81zm38.96 7.82c.54.72 1.12.24 1.71-.47-.48-.38-.95-1-1.44-1.19a13.35 13.35 0 0 0-.27 1.66zm11.06-2.97c.24.88.54-.06.79.28.19-.59-.56-1.17-.79-.28zm11.5 1.92c0 .83.95.92 1.35.12-.44-.35-.9-.08-1.35-.12zm5.52.73c.55-.55 1.54-.5 1.74-1.32a1.49 1.49 0 0 0-1.74 1.32zm11.13-1.06c.4.52.82.07 1.23.33.05-.66-.86-1.25-1.23-.33zm11.66 3.64c0-.49.33-.95.38-1.44-.22-.17-.45 0-.69.35.21.38.08.71.31 1.09zm37.6 72.85c.89.63 1.85-1.22 2.73-.59-.4-1.62-1.91-.03-2.73.59zm2.87-1.21c.35.68.73.52 1.13-.31a.9.9 0 0 0-1.13.31zM264.83 17a1.39 1.39 0 0 0-.08-1.07 2.46 2.46 0 0 0 1.82-.24 1.84 1.84 0 0 0-2.26-.22c.41.53.27 1.01.52 1.53zm3.52 3.29c0-.63.54-1.21.17-1.88-.46-.02-.52 1.19-.17 1.88zm-.89-4.1c-.13.34.16.73.3 1.09a2.33 2.33 0 0 0 .49-1.22c-.25-.4-.55.83-.79.13zm27.02-2.88c.42.41.62-.53.83-1-.22-.17-.46 0-.69.35.1.24-.07.44-.14.65zm1.78-2.58c.29.41.72-.89.72-1.2-.49-.07-.71.47-.72 1.2zm1.99 1.46c1 .6 2 0 2.95-.14-.19-1 .42-.77.84-1.4-1.37-.01-2.29 1.19-3.79 1.54zm3.42-.52c.39.6.83-.29 1.26-.51-.41-.45-.82-.43-1.26.51zm1.71-.47c.45.05.89.55 1.35.13-.06-.72-.88-1.16-1.35-.13zm1.19 1.6c.56.1.78.55 1.1.95.34-.87.57-.9.3-2.09-.13 1.42-.97.42-1.4 1.14zm1.05-11.72c-.17.94.65.52.9.09-.17-.55-.36-.46-.55-.69-.22.29-.12.89-.35.6zm5.06 8.3c-.12.13-.07.27 0 .42l.21.44c.33-1 1.48 0 2.19-1.26a.74.74 0 0 1-.09-.65c-.55.52-1.07.39-1.62 1.11-.54-1.08.28-.73.27-1.66-.24-.7-.56 1.26-.8.56-.2.23.45 1.54-.16 1.04zM307.66.85a2.08 2.08 0 0 0 2.18-.85 3.41 3.41 0 0 0-2.18.85zm5.98 7.97c.37-.05.33 1.39.86 1.36-.17-.86-.06-1.35.51-1.65-.44-.53-.91-.04-1.37.29zm.84-1.39c.51.52 1.06-.21 1.6-.69-.76-.4-.92.26-1.6.69zm5.08.28c.15-.34-.27-.73-.08-1.07-.75-.12-1.57 1.92-2.28.63-.05 2.32 1.65-.39 2.36.44zM317 6.4c.77.7 1.6-.59 2.42-1.24-.77-.79-1.61.7-2.42 1.24zm1.91-3.19c-.1 1.12.82 0 1.14-.31-.36-.62-.77.75-1.14.31zm.41 1.31c.63.33 1.25 1.05 1.94-.45-.67.93-1.26-.53-1.94.45zm3.23 1.79c-.64-1 .18-1.91.61-1.42.28.85-.3 1.07-.61 1.42.27 1 .61-.4.89.51A10 10 0 0 1 326 2.2c0-1.49-1.56 1.06-1.65 2 0-1.24-.84-.31-.51-1.52-.89 1.25-1.64 2.81-2.87 4.79.47.63 1.03-.15 1.58-1.16zm3.12-2.02c-.13.34.17.72.3 1.08.31-.14.64-.92.93-.75.06-.35-.12-.72.15-1.05-.22-.22-.44-.25-.66-.48-.33.54-.12 1.91-.72 1.2zM327 6.11a.91.91 0 0 0 .61-1.42c-.47.45-.36.95-.61 1.42zm.73-2.47c-.24 1 .5.13.65.91.12-.79 0-.84.49-1.22-.36-.68-.77.4-1.14.31zM.68 54.36c-.17-.51.35-1-.11-1.49-.19.39-.38.16-.57.6.92.18-.38 3.74.56 1.09 1 .24 2-.08 2.93 1 .44-.89.59-.55.79.26.1-.26-.14-.56 0-.84.42-.4.13.82.55 1.09.1-1 .34-.86.92-2.46-.41-.4-.83.53-1.25 1-.33-1.21-.67-.44-1-.28-.74-2-1.86-1-2.25-1.84-.51.87.57 1.61.78 1.53-.45.98-.9-.7-1.35.34zm9.75 8.46a1.44 1.44 0 0 0 1.8.12c-.41-.44-.13-.85-.44-1.29-.21 1.77-.79.52-1.36 1.17z" fill-rule="evenodd"/><path d="M373.83 13.65c-.95-1-2.49-.76-2.72-3.43-.47 1.15-1.3.64-1.42 2 .14.23.3-.18.46-.38.21.82-.06.55-.37 1-.28-.83-.57-1.05-.88-.93a1.22 1.22 0 0 1 .16-1.46c-.28-.16-.56 0-.58.57-.68-1.54-2.3-.25-3.42.51-1.22-2-2.58.7-3.92 2.15l-.21-.44c.57-2.24 1.83-2.29 2.5-3.77-.21-.62-.45-.12-.65-.91-2 2.27-3.16 1.4-5.07 2.88-.07-.22 0-.42-.1-.64a4.24 4.24 0 0 0 2.12-2.33c-.28-.65-.61.09-.89-.5.12.89-.19 1.09-.59.57a4.57 4.57 0 0 1-.05 1.69c-.65-.52-2.14.2-1.88 1.92-.28.66-.09-1.32-.54-.68-.06-.44.46-.42.27-1.25-.46-.16-.89 1.45-.75 2-.31.29-.23-1.12-.52-1.53-.61.58-.24 1.25-.62 1.84s-.37-.68-.2-.86c-.46-.43-.38.92-.49 1.22a2.12 2.12 0 0 1-.64-1.33c.29-.77.55-.5.83-1-.66-.78-1 .73-1 1.6-.8.17-1.53.22-2.1 1.9-.57-.61.09-1.11-.17-1.7a15.05 15.05 0 0 1 1.38-.71 2.59 2.59 0 0 1 .08-2.53c-.28-.45-.56 0-.58.58 0-1-.54-.1-.64-1.33-.65 1.11-1.22 1-2.07 1.06-.15-.62.62-1.05.8-.13.12-.13.07-.27 0-.42l.24-.4c-.43-.79-.91 0-1.37.29-.2-.87.06-1.69-.14-2.55-.26.88-.27.47-.72 1.2-.41-.54-.27-1-.52-1.53-.29.32-.24.68-.37 1-.31-.45 0-.85-.41-1.31a2.9 2.9 0 0 1-2.05.22c-.27-1 .28-.51.61-1.41-.32-.59-.7.67-1-.31 0 .34-.26.67-.14 1-1.63-.89-3.36 1-5 .35-.13.27.09.58.19.87-.28.52-.56 1-.82 1-.37-3.37-2.23.77-3.17.11.35-3 1.55-2.1 2.48-3.35-.47-.7-1.08.77-1.22-.75l-.72 1.19c-.27-.37-.2-.72-.3-1.08.3.05.63-.88.91-.33-.14-1 .3-.52.39-1.45-.47-1.68-1.12 2.06-1.59.27-.54 1.15-1.1 2.29-1.59 3.44a1.54 1.54 0 0 1 .06-1.69c-.35-1.09-.74-.33-1.12-.53a2 2 0 0 1-.5 1.64c.22.26.46-.44.66.49-.39.48-.77.44-1.13-.11L330 7c-.16-1.26.23-1-.53-1.12-.53-.61.28-1.09-.18-1.7-.2 2-.81 1.37-1.56 3a8.62 8.62 0 0 1-2-1c-.56 2-1.23 2.32-2 3.4-.5-.61.41-1.09.28-1.66-1 .12-2.13 2.92-2.63 4.39 1.05.55 1.43-2.24 2.12-2.75a1.32 1.32 0 0 1 .08 1.06c.29.41.76-.88.5-1.22.91 1.71 2.85-3.24 4.1-.87-.84 2.43-2.57 2.48-3.69 2.18-.77 2.88-2.37 2.58-3.83 2.79a13.18 13.18 0 0 0 .8-3.72c-.33.87-.62.44-.94 1.17-1-2.33-1.42 1.17-2.35-.86a6.88 6.88 0 0 1-1.74 1.31c.3.39-.08.7.08 1.06-.31.29-.61 0-.93.76-.5-.82.14-1.28.49-1.22-.09-1-1.41.18-1.39 1.13-.45-.11-.93.71-1.35-.55-.63-.15-1.34 2-2 1.29-.39-1.24.31-2.37.68-3.53-.82.11-1.21 1.84-2.31 1.47-.39-.84-.17-1-.65-.91-.39.76.69.33.3 1.09.34.09.67.25 1-.12.15 1.1.05 1 .66.91.1.29-.13.55-.26.82-.31.36-.56-1.17-.87-.93 0 .36-.27.68-.15 1-.39.32-.75-.14-1.13-.11-.15-.57 0-.78.25-.81.23-.21.09.35.32.66a3.37 3.37 0 0 0-.05-1.91c-1.61 3.26-3.12 3.09-4.67 4.62-.16-.3-.32-.6-.2-.87a3.36 3.36 0 0 1-2.1 1.91c-.08-1.09 1.16-1.58 1.09-2.22.3.95.59.46.12-.19a5.61 5.61 0 0 1-3.44 1.35c-.34-1.44 1.21-.88 1.21-2.42-.44 0-.58-.42-.81.56-1.47-1.18-4.19 2-5.73 2.4-.33-.59.9-1 .27-1.66a2.18 2.18 0 0 1-1.3 1.78c.33.23.66.6 1 .31.07.21 0 .41.09.64-.7.72-1.33-.85-2.05.64-.21-.37-.08-.71-.31-1.08-.56.95-1.06.24-1.6.69a1.34 1.34 0 0 1-.08-1.07c-.26-.34-.55.6-.79-.28-.24.26-.14.55 0 .84a13.83 13.83 0 0 0-5.56.52 1.25 1.25 0 0 1 .26-1.24c-.34-.13-.69.35-1 .11-.56.51.21 1.15-.28 1.66-.5-.89-1-.56-1.59.27-.31-.45 0-.84-.42-1.31-.21.48.06 1-.15 1.47-.61-1.24-.52.08-1.37.29-.31-.45 0-.85-.41-1.31a1.39 1.39 0 0 0 .08 1.07c-.73.58-2.24-.9-2.2-2.33-1.07.74.84 1.3.15 2.55-.38 0-.26-.61-.75-1.13-.55.79-1.16 0-1.41 1.56-.49 0-1.06.11-1.21-1.18l-.6 1c.4 1.15.17-.88.56.27-.33 1.55-2 .36-3 1.4.17-.84.09-1.55.62-1.84-.76-1.21-.95 1.57-1.75 1.73-.49-1.37-1.05-.21-1.59.28-.61-1.22-1.27-.7-1.92-.4-.14-.92.6-.29.82-1-.21-.65.34-1.23.18-1.88-.65 1.23-1.54 1.39-2.12 2.75-.18-.41-.46-.06-.89-.51-.23-1.24 1.35-.16.5-1.64.36-.82.67.3 1-.53-.31-1-1.29.66-1.22-.75-.38.73-.78.39-1.39 1.13.06-1.72-.65-.06-1.21-1.17-.72 1.21-1.38.8-2.08 1.49 0 .86.53 1.52.87.93-.08 1.46-1.06.56-1.48.49a1.88 1.88 0 0 1 .38-1.44c-.07-.69-.39-.73-.4-1.73-.07 1.89-.67.48-1.3 1.78.23 1.12.53-.13.77.71-.38.07-.78.82-1.13-.11-.1-.42.2-.17.36-.6-.16-.42-.48-.24-.32-.67-.41-.66-.18 1.37-.57.16a3.14 3.14 0 0 1-.06 2.1c-.55 0 0-.71-.42-1.3a2.05 2.05 0 0 0-.15 1.46c-.19.06-.37-.3-.57.16-.58-1 .38-1.8 0-2.75a4.53 4.53 0 0 0-.28 1.66c-.4.92-.72-1-1.14.32-.41-.54-.27-1-.52-1.53-.52.83-1 .25-1.48.07-.3 1.44-1.13 1-1.72.89-.3-.45.6-.79 0-1.27-.53 1.28-1.08.59-1.83.68-.48.44.19 1-.16 1.46-.66.19-.1-1.26-.63-1.75-.3 0-.42.25-.47.8-1.06-2.41-2.3 1.1-3.39-.32-.41 1.39-.66 1.15-1.41 2-.21 0-.33-.85-.78-.71-.1-1.07.69-.52.94-1.18-.68-.7-1.22.14-1.72.89-.56-.4-.29-.88-.63-1.75-.45.28-.7-.35-.93.76l-.42-.88c.17 1.15-1 1.54-1.48.07-.38 1.52-.69.85-1.26.51-.47.73 0 .26.21.87-.28.53-.53 0-.8.13-.42-1-.12-1 .05-1.68-.49 0-1-.32-1.43-1.62.12-.26.24-.3.35-.17-.06-.8-1.11-.46-1.57-.57 1.18.68.94 2.05 2.08 2.52-1.09 1.73-1.19-1.34-2-1 0 .92.84 1.91.71 2.81-.29-.82-1.06-.72-1.3-1.81-.33.88-.36 1.79-.65 2.69.16-1.5-.41-1.45-.84-2.2-.21-.58.5-1.07.05-1.68a3.12 3.12 0 0 0-.28 1.66c-.3 0-.7-.79-.46.38-.34 0-.66-.65-1-1.15 0-.65 1 0 .83-1.4-.62.71-3.37 2.38-2.83-.06-.34-.09-.7.89-1 .12-.52 2-1.69.33-2.56 2.29-.18-1.41-.89-.55-.63-1.75-.38-.35-.31 1.07-.83 1.4-.86-.17-1.71-.82-2.61.39-.08-1.19-.83-.89-.91-.09-.3-1.14-.66-.44-1-1.15.09.7.26.72.4 1.73-.44.1-.93-.77-1.09-1.37-.6-.24-.33 1.22-1.13-.1-.05.34.12.71-.14 1 .49-.25 1 .1 1.44.76a15.89 15.89 0 0 0-2.48-.23c-.06-.21 0-.42-.09-.64.39-.37 1.08.55 1.15-.74-.58-.69-1.13 1-1.91-.38-.16.3-.32.6-.47.37a1.35 1.35 0 0 0 .09 1.07c-.52.69-1-.12-1.49.49-.4-.46-.11-.85-.42-1.3-.44.5.23 1.07-.37 1-.41-.58.29-1-.3-1.08-.33.32 0 .71-.15 1-1.7-2.63-3.87-.24-5.27-1.55-.18-.43.34-.81.26-1.24-.63-.46-1.32 1.41-1.91-.39a1.39 1.39 0 0 0 .08 1.07c-.25.74-.46.2-.7.77-.28-.38 0-.71.14-1-.32-.58-.68 0-1-.3-.12.27.1.57.2.86-.24.71-.45 0-.69.35 0-.35.17-.68-.08-1.06l-.48.8c-.3-.45 0-.84-.41-1.3a8.42 8.42 0 0 1-3.29.32l.32.67c-.3-.06-.63.88-.92.33-.28-.38 0-.71.14-1-.65-.55-1.86.46-2.17.85-.16-.89-.43-1.11-.89-.5.56.86.05.84-.26 1.24 1-.35 1.46.9 2.59.45.12-.39-.11-.17-.21-.44.25-.92.43.56.69-.36a6.42 6.42 0 0 0 .85 1.77c-1.3-1-3.13.68-4-.8-.08.2 0 .42-.13.62-.45.4.11-.8-.31-1.08-.73 1.67-1.38.58-2.05.22-.21 1.15-.68 1-1.15.74a4.48 4.48 0 0 0 .3-2.5c.34-.24.9.13.93-.76-.44.11-.45-.08-.66-.9-.2.93-.5.7-.6 1.41-.39.3-.74-.53-1.15.32-.42-1.57-1.44-.8-2.25-.21 0-1.28-.41-1.2-1-.3a1.39 1.39 0 0 1 .15-1.05c-.74-.65-1.53.72-2.27.22-.21.4.27.87 0 1.26-.24.57-.42-1.12-.68-.06a1.39 1.39 0 0 1-.08-1.07c-.36-.21 0 1.17-.58.58a1.32 1.32 0 0 1-.19-1.28c-.58.58-1.59-.63-1.83.67-.31-.45 0-.84-.42-1.3 0 1.31-.59.16-.57.16-.8.12-1.09 1.78-1.94.45-.17 1.23-1.1.57-1.6.7 0-.36.16-.69-.09-1.07-.37 1.36-.9 0-1.51 1.34-.19.87.56 1.17.78.71.2.19-.54.93-.7.78-.23 1 .5.28.66.48.11.36-.2.69-.37 1-.18.1-.61-1.37-1.12-.1-.29-.52-.55-1-.3-1.51-.4-.78-.84.3-1.23-.74-.11.55 0 1.28-.48 1.22a6.08 6.08 0 0 1 2-3.4 10.34 10.34 0 0 1-1.1-.95c-.18.4-.24 1.26-.58.58-.12.34 0 .7-.14 1-.52.53-.28-.52-.77-1.12.06 1.77-1.94 1.86-2.15 0 0 1-.48 0-.82 1 .36.78.76-.26 1.12.53 0 .78-1 0-1.35-.13a2.36 2.36 0 0 1-.49 1.22c-.28.47-.25-.68 0-.84-.39-.36-.44 1.06-.15 1.46.27-.29.52.27.8-.56.1.43.1.86.2 1.29-.55.57-1-.77-1.58-.15-.11-.82.83-2.3.07-2.53.11 1.15-.17.57-.6 1 0-1.25.4-.52-.42-1.3-.06.81-.1 1.09-.6 1.42-.16-1.62-.86.49-1.33-1 1.37-.13 2.45-1.37 4-.27-.54-1.47 1.05-.57.85-2.24-.18-.43-.37-.23-.54-.69-.24 1.37-1.17.29-1.35-.55.3 1.24-.55 1.07-.17 2.31-.31-.09-.63.57-.91-.08s.91.14.14-1.05c.25-.92.44.57.69-.35-.21-.38-.08-.72-.31-1.09-.68 1.35-.85.25-1-.72 0 1.76-1.46.49-2.17.85-.26.78 0 .56.31 1.08-.78 1.37-2 0-2.41 1.26-.45-.53.08-1-.08-1.49.61 0 1.22-.24 1.81.17a2.37 2.37 0 0 0 0-1.68c-.16.42-.3.2-.45 0a1.75 1.75 0 0 0 0 .85c-.61-1.32-2.32-.17-2.74 1 .31-2.11-.81-1.09-1.07-2.63-.2.35-.38.36-.57.16-.23 1.12.51.25.66.9.18.9-.49 1.42-1.09 2.64-.5-1.2.5-1.16.51-2.06-.55-.85-.45.07-1 .54a4.64 4.64 0 0 1 .08 1.48c-.28.3-.51-.7-.8.14.47.89 1-.83 1.45.77.59-.83 1.17-1.53 1.74-1.32.19.53-.52.31-.69.36-.19.62.33.76.44.34-.1 3.62-3.28.16-5 1.35.16.3.32.59.2.86.25.64.55-.6.79.29.05.6-.86 1.3-1.14.31.21 1-.77 2.28-1.17 1.17-.13-.24.7-.86.92-.34-.13-1.26.26-1.21.4-2.29-.48-.52-.33-.82-.87-1.34.82-.41 1.27.48 2.29-1.06-.46-1 .06-1-.63-1.75 0 .71.42 1.45-.28 2.09-.76 0-1.5-.55-2.26-.2a1.32 1.32 0 0 1 .19 1.28 1.94 1.94 0 0 0 1 .3 2 2 0 0 1-.71 1.2.74.74 0 0 1 0-.84c-.64-.62-.19 1.19-.92.76 0-.64.25-1.24.16-1.89-.83 1.53-2.33-.16-3.21 1.4-.15-.5.15-1-.3-1.5-.42.45-.82-.15-1.27.94a2.59 2.59 0 0 1 .42 1.3c-.54.45-1.06 0-1.6.7-.25-.86.42-2.41.93-1.18-.24-.66.2-1.25-.06-1.91-.49 1.45-1 .82-2 1.72.24.89.54-.35.78.29 0 1-.66.11-1 1-.21-.37-.08-.71-.31-1.09-.3 2.27-1.32-.17-1.95.88-.29-1.59.89-1.05 1-2-.11-.21-.23.07-.34.18-.5-.47.29-.82-.2-1.29-.41.62-1-.13-.82 1-.4.89-.74-.49-1.13-.11-.08-.56.14-1.34.48-.8-.06-1.46-1.48 1.07-1.56-1l-.71 1.2c.27.37.2.72.31 1.08-.45.47-.45-.33-.66-.9-.73 1.62-1.37 0-2.58-.87-.69 1.13-2.13-.71-3.18.14 0 1 .48.27.78.7-.19 1.1-1.3.76-1.83.68-.17-1.07.71 0 .59-1a2.76 2.76 0 0 1-.65-1.32c-.27.41-.8 1.65-1.19 2.42-.52.27-.38-1.13-.75-1.54-.27-.17-1.15 1-1-.31-.9 1.08-1.76.69-2.62.4-.51-.68.44-1.23-.07-1.9-.66.57.17 1.28-.38 1.86s-.53-1.12-.87-1.77c-.31.41-.59-.23-.9-.08a2.19 2.19 0 0 0-.41-1.72c0 .31-.16.89-.35.6-.28.57.34.11.43.88-.32.73-.61 0-.91-.08-.25.54.41.8.55.68a9 9 0 0 1-.15 1.47c-.43 0-.43-.76-.69.36-.47-1 .14-.74.15-1.47-.45-.61-.43.46-.59 1-.54.3-1-.27-1.58-.14 0-.64.36-1.24.38-1.87-.49-.36-.93-2.06-1.55-1.4-.42-1.32-.51-2-1.53-2.25.29.45.68.52.65 1.33-.36.57-.69.24-1 .12-.24.4.14.85-.26 1.24.44-.06 1.25 1.16 1.36.12a2 2 0 0 1-.16 1.46c-.39.08-.24-1.2-.79.14-.5-.46.3-.81-.19-1.28.06 1.28-.56 1.19-1 .54-.3.78.13 1 .43.88-.2.39-.38.16-.58.59-.12-.51-.78-1.06-.53-1.53-.2-.13-1 1.09-.79-.28-.36-.42-.6 1.83-1.16 1.17-.11-.37.21-.69.37-1-.57-.18-1.58-1.43-1.81-.16-.17.16-1-.28-.43-.88-1 .09-2.32 1.32-2.7 3.77-.27.05-.53-.2-.8.14-.43-.74.43-1.37-.17-2.13.55-.78.54-.22.9.08a1.76 1.76 0 0 0 .28-2.08c-.12.2 0 .42.1.64-.35.37-.71.84-1 .12s.35 0 .48-.8c-.28-.9-.62.53-.9-.5-.24 2-1.46.49-2.25-.63-.38.73-.72 2.16.05 2.33-.16-1.1.3-.69.69-.36.11.38-.19.37-.34.18.17 1 1.35.37 1.91.8-1.85 1.32-4.61 0-6.82.67-.11-.3.12-.56.25-.83-.3-.33-.6-.52-.92.35-.15-1.37-.45-.23-.88-.93-.33-.52.76-.92.14-1.46-.43 1.35-.65.52-1.47.08-.36 1-.8 1.71-1.37.3-.4.94-.76.22-1.16 1.16-1.14-3-3.34-1-5.38-2.57 0 .93-.5 1.67-.7.36-.46.45-.35 1-.37 1.45-.15.07-.31.16-.45 0a3.34 3.34 0 0 1 .38-1.87c-.64-.88-.2 1.74-.91.34-.21 1.49-.4.94-1 1-.22-.51.07-1 .38-1.45-1.11 1.06-2.75-.06-3.58 2.44-.54.43-.53-.27-.89-.5-.3-.66.31-1.24-.08-1.9A2 2 0 0 0 83 9.36c-.55-.27-.42.42-.92.77-.32-1.15.43-2.52 1-2.45-.23-.34-.11-.64 0-.42C82.32 6 81.26 4.59 80 6.78c-.4-.59.55-1.07 0-1.68-.42 1.16-1.52-.28-2.27-.19-.22.33-.11.69-.36 1 0-.36.16-.69-.09-1.07-.41 0-.14.28-.47.81-.09-.29.16-.55 0-.84-.47-.92-1-.21-.93.76-.1-.29-.22-.35-.33-.24-.11-.29.12-.55.24-.82-1-.13-2.68-1.82-3.4-.29-1-1.24-.76.32-1.35-.54-.61 1.61-1 1.31-1.75 2.17.26.58.52.37.78.7-.35.71-.67-.43-1 .12-.11-.29.12-.55.24-.82-.66-.13-1.31-1.05-2.08-1.22-.11-.29.12-.55.25-.82-.34-.12-.68-.45-1 .12-.4 2.28-2.62-1.09-3.76.33a29 29 0 0 1 4 1.38c-.46.5-.91 0-1.36-.12-.19 1 .59.29.78.7l-.71 1.21c-.21-.37-.08-.71-.31-1.08-1 .47-1 2.43-2.08 1.52-.09-.75.76-.83 1.05-1.39 0-.5-.29-1-.08-1.49-.24.29-.85 2.84-1.75 1.76a1.27 1.27 0 0 1 .26-1.25c-.46-.78-.92 1.74-1.62 1.14-.46-.6.34-1.1-.19-1.71-.12.13-.07.28 0 .42 0 .58-.61.06-.48 1.23-.2-.2-1-.54-.81.57-.26-.2-.54.31-.79-.28 0-.77.79-1.48.62-2.27a6.38 6.38 0 0 0-1 1c-.31-.45 0-.85-.43-1.3-.68.24-1.36-.12-2-.17-.23-.52.44-.22.59-1-.87-.71-1.1 2.18-1.95.48-.23.17-.48 1.3-.7.79-.27.57.35.1.44.88l-.35.6c-.67-.86-1.36-.08-2-1 0-1.08.93-1.14 1.25-.11.32-.49.63-.83.93-.77-.58 0-1.44-1.63-2.03-.2-.45-.67.15-1.25-.3-1.92-.46 1.47-1.81 1.24-2.87 1.24-.25-.79.35-.22.47-.8-.49 0-.26-.73-.66-1.32-.62.58-1.21 0-1.83.69-.81-1.37-.81.22-2.08 1.52.5-.08 1-.55 1.48-.09.24-.26.14-.55 0-.84a.55.55 0 0 1 .9.07c.26.39-.36.54-.46.38.15.69 1.24 2.7 1.8 1.42a1.51 1.51 0 0 0 2.39.85c.26.63.12 1.13.57.25 1.14 1.48 2.31 1.89 3.5 1.34 0 1.46 1.23.42.87 1.76.19-.42.57-.33 1-.55-.18-.41-.38-.21-.56-.68.23-.18.46-.17.69-.36a1.31 1.31 0 0 1-.13 1c.29.7.6.23.89.92.22-.26.1-.55.24-.82.26.63.51 1.16.79.27.19.33.36.94.56.68.31.45-.6.79 0 1.26.47-1.6 2.42-.71 2.84.45.4.52.14-.64.47-.81.11-.12.22 0 .34-.18.42.52.12 1 .54 1.52.76-1.28 2.21 0 3.29.48.28-.77.53-.51.81-1-.55-1-.46.73-1 .12.28-.64.2-.46-.08-1.48.75-1.31 1.38-.52 1.57.56-.32.74-.58-1-.91-.08.51.06.73 1.3.31 1.92.71.06 1.42.72 2.13.82-.22 1.14-.12.68.43 1.3-.38.25-.76-.11-1.12-.94-.21.4.28.86 0 1.26.42-.27.82.4 1.24.32.29-.54-.13-1.13-.42-1.72.65-.24 1.28.46 1.94-.47.1-.55-.12-1.14 0-1.68.68-.26 0 1.1.53 1.52.11.41-.19.17-.35.6.63 1.5 2.15.69 2.9 2.36.93-1.28 1.82-.29 2.72-.19.29 1.11-.63.88-.72 2.05.67.9.88-1.34 1 .72a3.69 3.69 0 0 0 0-2.11 2.1 2.1 0 0 1 2.37.42c.27-1.61 1-.93 1.61-.71.1.29-.13.55-.25.82s-.37-.38-.55-.68a.66.66 0 0 0-.13.62l-.24.41c.41.56.85-.64 1.23.74-.27.54-.52 0-.79.14-.16 1.12.65.59.89.92-.78 1.71.87.39 1.44 1.18 0-.67.14-1.87.61-1.85-.33 1.05.27 1.1.29 2.34.12-.26.23-.3.34-.18-.19-1.18.57-1 .73-2 .31.18 1.24 1.47 1.92.37.4.6 0 1.13 0 1.69.63.59 1.22.71 1.56 1.4.15-.27.31-.54.47-.81l-.43-.88c-.45 1.16-.83-.26-1.25-.32.55-.86 1 .51 1.6-.28-.07 2.57 1.21 1.2 2.09 2.5-.33-.31-.68.27-1-.3 0 1.06.88.74 1.23.74a13.05 13.05 0 0 1 .28-1.69c.62-.27.28 1.12.53 1.52.16-.42.3-.21.45 0 0-1.32.58-1.27 1.13.09-.31-1.42.18-.45.72-1.62.62 1.22-.83 1 0 2.1.22-1.54.65-1.08 1-2 .53 1-.67.94-.5 1.64.55.06.67.06 1-1 .49.94-.39.46-.26 1.24 1 1.58 1.3-.16 2.28-.64.26.52.12 1 .53 1.52.51-.93 1 0 1.48-.49.14.57-.11 1.11 0 1.68-.16.39-.3.14-.46.38-.37-.46 0-.84 0-1.26-.68.15-.91.89-1.71.48.48.38 1 1.17 1.46.76.37.63-.62 0-.25.82-.52-.45-1-.29-1.57-.56-.11.27.13.57 0 .84-.44.41-.12-.81-.54-1.1-.2.35-.39.35-.57.16-.1 2.62-1.09-.69-1.72.9-.4-.59.12-1.27-.43-1.3-.34.82.08 1.69-.28 2.51.29.65.61-.09.89.5.12-.27-.09-.58-.2-.86.39-.71.75-.1 1.13.1 0 .77-.37.33-.48 1.22-.46.1-.9-.28-1.37.3-.4-.59.12-1.27-.42-1.3-.79 3-3.21.61-4.66.65-.07-.56.47-1.08.26-1.66 1.35.43 2.69 1.28 4 1.19.23-.74-.49-.8-.67-.06-.34-.75-.8-.59-.31-1.5a3.76 3.76 0 0 1-1.14.32c-.09-.57.34-1.09-.19-1.7-.38 1.18-.49.78-1 .54-.42-.53.11-1-.31-1.5-.78-.43-1.8.3-2.29 1.07 0-.35-.22-.72-.09-1.06.34-.56 0 1.07.46 0-.66-.88-1.36-.21-2-1l-.83 1.41a6 6 0 0 0-.64-1.75c-.49 1.39.27 1.41.41 2.15-.43.71-.8-1.52-1.24-.32-.52-.89.48-1.65-.17-2.55-.11.2 0 .43.1.64-.89.67-1.74-.07-2.6-.43-.48.87.24 1.86.64 1.74-.42.36-.88 2.34-1.28 1.37-.18-.81.48-.21.37-1s-.47.49-.67-.47c-.27.79 0 1.1-.6 1.42a1.08 1.08 0 0 1 0-1.26c-.61-.91-.59 1.64-1.15.74-.16-.64.64-1.21.15-1.88-.44.45-.32 1-.6 1.42-.15.09-.3.17-.45 0 0-.68.62-.64.49-1.64-.58 0-.43-.61-1-1.56-1-.86-2.18.13-3 .17.67-1.48-1.8-1-2.57-1.7.07-1.12 1 .25 1.5-.93-.91-1.11-1.75 1-2.38-.42-.12.28.1.58.21.87-.32 1-.6 0-.92.76-.81-2.14-2-.28-2.46-1.89-1 .88-1.65-.32-2.52 1 .42.1.13.3.44.88-1.28 1.27-1.59-1.13-1.64-2.87a21.18 21.18 0 0 0-.23 2.6c-.49-.29-1-.21-1.46-.76-.15-.53.49-.47.75-.89-.31.05-1.69-.95-2-.69-.27-.21-.24-1.35 0-.84 0-1-.46-.05-.69-.05-.12.27.1.57.21.86-.93 0-2.32-2.65-3.6-1.56l-.55-1.1c-.23.39-.45-.35-.69.36-.94-2.31-2-.16-2.91-2.35-1 1-2 .11-3-1.3.63-.62.67-1.08 1.16-1.59-1.13 0-2.3 1.35-2.84 0 0 1.79-.82 2.56-.54 4.59-.56-.28-1.12-.88-1.68-1.19 0 1.88 2.07.85 2 3.12-.24.47-.44-.69-.67-.9-.1 1.31-.92 0-1.38 1.15a2.66 2.66 0 0 0-.42-2.15c0 1-.33 1.22-.82 1.84-.35-.84-1-1.95-1-.72-.4-.59-.17-1.3-.65-1.32-.22-.81 0-.55.36-1-.49-.22-1-.47-1.48.09-.39-.74.43-1.37 0-2.11-.2.31-.39 2-.81 1-.08.49-.37 1 .09 1.49-.65.42-.55.24-.83 1.41-.24.7-.43-1.18-.67-.48-.54.77.27.86.43 1.3-.3.16-.6-.47-.91-.07-.22-.58.49-1.09 0-1.68-.15.9-.81.33-.57-.26-.7 1.6-1.86.73-2.84-.85 0 .49-.32 1-.36 1.45.48.47.26.48.66 1.32.3-.33.07-.7-.1-1.06 1-.25 1.89 1.08 2.83 1.69-.81.69-1.58-1.06-2.39-.4a4.33 4.33 0 0 1 1.23 1.15c-.46.46-.9-.68-1.38.74-.22-.58.21-1.1-.2-1.7-.19.39-.38.16-.58.59-.29-.37 0-.71.13-1.05-.22-.43-.46.28-.67-.47-.13 1.2-.86.41-.94 1.61-.61-.74 0-1.39-.42-2.13-.47.61-1.51-.25-1.59-1-.71.72-.69-.61-1.36-.1-.26-.79.35-.22.47-.81-.64-.95-1.3-.07-1.93-.78a4.46 4.46 0 0 0-.39 1.85c-.38-.24-1.11.1-1.16 1.18-.5-.46.29-.82-.21-1.28-.34-.29-.69.47-1-.29-.43.51-.15 1-.58 1-.36-.73.55-1.37.49-2.08.27-.6.51 1.42.79.27-.1-1-1-.92-1.48-.32-.41-.45-.12-.85-.44-1.29-.58.69-1.76 1.45-1.94.48-.2-.24-.22.34-.13.62-.42.12-.84.37-1.24-.73-.28.78-.54.22-.82 1 .51-.67 1 1.52 1.48.32.33 1.08-.15 1.46.66 2.16-.67 1.38-.85-.17-1-.29-.46 1 .44.79.43 1.72.24-.66.47-.64.68 0 .31-.77.58-.21.59-1-.37-.5-.69 0-.56-1.09.27-.36.52.92.8.27.19.83-.32 1.07.32 1.5-.22-1.46.51.07.91.07.06.2 0 1-.19 1.1.36.29.95 1.29 1.42.89.41 1.84 1.12.7 1.45 2.42.58-.33.52-1.24 1.15-1.17.12.36-.2.69-.35 1 .47 1.37 1 .6 1.46 1.16.18-.54.07-.77-.21-.86.32-1 .8.06.81-1 0 .19.13 1.35.44.88.22.81-.05.55-.36 1 .6.8 1.22-.17 1.8 1.41.24-2.21.83 1.08 1.38-.74-.13 1.31.48.56.55 1.52-.42.12-.84.36-1.24-.73-.4 1.73-1.45.23-2.16-.8a3 3 0 0 1-.59 1.86c1.12-1.94 3.22 3.22 4.33-.52.72.27 1.44 0 2.15.8.18-.54.08-.77-.21-.86.23-.41.47-.81.7-1.21.23-.13.45.09.68.47-.36.65-.69-.11-1 1 .33.59.67.55 1 1.14l.47-.81a.73.73 0 0 1 .56.25c.23.51 0 1-.36 1.45.84.44.48-2 1.38-1.16a1.37 1.37 0 0 0-.09-1.06c.23-.35.46-.53.69-.37-.48 1.81 1.28 2.45 1.87 3.31-.67.46-2.32-.93-2.28.67-.68 0-1.35-.81-2-.58-.09 1.19.82.42 1.12.93-.54.53-.54.06-.93 1.19-.25-1.85-.66-.26-.87-2.17a2.47 2.47 0 0 0-.15 2.3c-.44.35-.44-1-.66-1.31-.28.48-.54.22-.82 1-.41-.45-.12-.85-.43-1.3-.52 1-.29 0-.79-.27-.54.61-1.06 0-1.61.72-.45-.52.08-1-.09-1.48.56-.32 1.57.76 1.5-.94-.3-.16-.62.62-.93.78a2 2 0 0 0-.21-.87c-.51.89-.61 1-1 .13-.65.73.06 1.55-.6 2.28-.11.12-.23 0-.34.18-.41-.59 0-1.12 0-1.68-.29-1-.6-.13-.9-.91-.23.26-.13.55 0 .84-.69.46-1.34-1.57-2.05.26-1.23-.82-2.17 0-3.16-1.51-.4 1-.77.21-1.15.34-.14 1 0 1.24-.36 1.87a6.6 6.6 0 0 1 .88 1.76 5 5 0 0 1 .48-1.65c.5-.25 1 .53 1.49-.53.28.8-.51 1.51-.6 2.28.26.57 1.12-.11 1 1.13.76.38 1.54-1.08 2.27.59-.46.62-.91.2-1.38.74.3.21.61 0 .9.92.14-.88.24-.88.45 0 .9-1.44 1.73.9 2.61.41.45.46-.07.84-.24 1.25.28.78.6 0 .9.49a6.05 6.05 0 0 0-.76-2.38 3.44 3.44 0 0 1 .13-1.05c.26-.05.52.19.79.28.12.43-.27.82.21 1.27.29-.32.23-.68.35-1 .15-.16.3.3.46 0 .26.93-.25.48-.25 1.25-.35.53-.67-.79-1 .13 3.5 1.2 7 1.38 10.5 3.13.26-1.72 1.37-.72 1.57.56.25-.9-.09-1.84.17-2.73.65-.38.57 1.32 1.23.73.11.3-.12.56-.24.83.56.29 1.15-.65 1.7-.07-.71 2.23 1.33 1.37 2.21 3.13.46-.38 0-.85-.2-1.28.91.16.5.36 1.34.95.14-.33-.29-.72-.09-1.06.22-.12.45.1.67.48a2.35 2.35 0 0 1 .47-1.23c.51-.62.33 1.14.91.08a1.28 1.28 0 0 1-.34 1.35c1.34.74 1.12 1.35 2.81.86a1.34 1.34 0 0 1-.13 1c1.08-1.15 2.11.13 3.18-.58a1.5 1.5 0 0 1 0 .84c.42.08.85-.57 1.28-1.37a.87.87 0 0 1 0 1.26c1.37-.39 2.68 2.07 4.08-.09.42.53-.11 1 .31 1.51-.23.39-.45-.35-.69.36 1.07-.26 2.42-1.41 3.75-.32.18-.91-.88-.73-.19-1.71.57.93 1 1.69 1.55 1.4.36-1.31-.47-.14-.78-.7.44-.89.84-.32 1.26-.52a9.72 9.72 0 0 1-.27 2.08c1.14-.21 2-1.7 3.3-.77.09.29-.16.55 0 .85s.37.22.55.68c.43-.78.21-.83.71-1.21a2.49 2.49 0 0 0 .42 1.3c.58-.39 1.13-.09 1.7-.06.25.56-.37.71-.46.38.4 1.33 1.39-.11 1.73-1.33.57.61 0 1.13-.27 1.67.79.06 1.62-1.62 2.4-.85.22.3-.22 1-.4.63a1.23 1.23 0 0 0 1 1.11c-.18 0-.69.23-.25.82-.23.22-.44-.52-.68.37.35.81.75 0 1.11.52-.13-.58.2-1.62.59-1 .13-.39-.18-.2-.32-.66a2.78 2.78 0 0 0 1.39-1.57c.53.61-.27 1.1.19 1.71.34-.66.92-.62.94-1.61 1 .34 2 1 2.7.65 0-.49-.09-1 .37-1.44.34 1.24-.31 1.82.63 2.16-.32.83-.6.21-.91.35 0 1.09 1-.09 1.46.33 0-.35-.12-.71.14-1 .35.47.61.18.88 1.34.43-.46.15-1 .59-1.42.34-.11.62 1.91 1.24.31.31.45 0 .85.42 1.31-.27.54-.53.29-.79.14 1.64 2.24 4.36.43 6.42 1.18a3.39 3.39 0 0 1-.49 1.65c.4.3.83-.35 1.23.32a2 2 0 0 0 .15-1.46c1 .05 2.8 2.21 3.86-.51.31 1-.41.72-.37 1.45a3.82 3.82 0 0 1 1.46.34c.11-.34 0-.7.14-1 .74-.35 1.94 2.18 2.36.41.26.52.11 1 .53 1.53.34-.22.71-1.19 1-.12.57-2.16 1.93.67 2.85-.8-.1.41.4.88.19 1.28.58-.41 1.16-1.14 1.69.36.24-.53.47-.73.7-.78a2.11 2.11 0 0 0 .2.86c.12-.66.73-.61.45 0 .37-.57 1-.38 1.58.14-.12-.92.18-1 .59-1 .11.29-.12.55-.24.82.55.38 1.13 0 1.68.36-.46 1-.58-.25-.81 1 .33.24.66.6 1 .31.11.36-.21.68-.37 1-.41-.05-.79-1.46-1.23-.32.5-.23.25 1.45.76 1.12.12 1-.31 1-.71 1.21-.18-.52.1-1 .15-1.47-.42-.61-.6.44-.81 1-.38 0-.76.29-1.12-.52.83.28.65-1.29 1.27-.94.22-.75-.72-.43 0-1.26.45-.65-.13 1.3.32.66.61-.85.08-.49-.19-1.29.15-.07.3-.16.45 0-.47-.81-2 .29-2.82-.46.21 1.24-.43.21-.48 1.23a2 2 0 0 0 1.6-.7c.21 2.83-1.62 1.79-2.21 2.54-.81-1.12 0-2.11-.49-3.21-.07 1.39-.74-.44-1.15.75.36-.19 1.34.38 1 1.56-.6-1.44-.6.69-1.46-.34-.44-.68.15-1.26-.29-1.93l-.59 1c.16.29.32.59.2.86-1.07 1-2.12.46-3.19 1 .32 1 .68.3 1 .72-.65.66-1.8 1.13-2-.6.29.18.6 0 .92-.76.14-.78-.54-.3-.32-1.08-.71.15-1.35 1.79-1.8-.16-.29.83-.54.29-.8.14 0 .35-.26.68-.13 1-.82-.79-2.28.59-2.69-1.08a12.28 12.28 0 0 0-1.48.5 3.62 3.62 0 0 1 .13-1c-.41-.48-.31.77-.58 1a2.4 2.4 0 0 1 0-2.11c-.5-.41-1.15 0-1.32-1.38-.17.83.25 1.71-.28 2.51.69.69.3-1.82 1.14-.75.13.85 0 1.34-.49 1.65-.87.32-1.69-1.8-2.57-1.27-.3-1.2.39-.67.71-1.21-.36-.64-.76 0-1.14.32a1.94 1.94 0 0 0 .21.86c-.31.22-.41-.52-.47.38-.61-.91-1.31 1.25-1.9-.79-.09.95-1 1-1.13-.1-.41 1.79-1.47 1.61-2.17.87-.22.26-.1.56-.24.82-.57-.75-1.25-.17-1.21-1.58l-.82 1.41c-.76-.77.26-1.39-.18-2.13-.51.83-1 .61-1.47.08-.09.7-.57 1.36-.73 2-.29-.87.58-1.63.06-2.53 0 2.06-1.49 1.83-2.17.87-.59.36-.54 1.64-1.15 1.17 0-.74.48-1.58-.2-1.28a2.72 2.72 0 0 1 .6-1.85c-.07-.22-.15-.13-.22 0l-.22-.44c-.37.53-.12 1.11-.49 1.65-.59.57-.48-1.12-1.09-1.79-.43.8-.82-.43-1.25.11.43 1.23.89 1 1.35.54a3.31 3.31 0 0 0 .53 1.52c-.48-.25-.44.7-1-.3-.51.38.26.87-.25 1.24-.47-1.07-1.53-.9-2.35-1.25-.15.53.65.73.89.5.12 1.65-1 1.34-1.49.92-.31-1 .79 0 .47-.8-.55-1.13-.46.71-1 .12.7-2-1.73.15-2.45-1.89-.27.84-1.13 1.26-1.74 2.16.1-1.85-1.76-.36-2 .25-.16-.29-.33-.58-.21-.86-.19.64-.65-.14-1.14.75-.34-1.57-.79-.08-1.59.29-.16-.5.14-1-.31-1.5-1.43 1-2.16 0-3.63.54-.16-.56.14-1-.32-1.08-.05 1.7-.79.64-1.12-.51.22 1.3-.54 2.17-1.16 1.59-.18-1.06.71.06.58-1-.18-.41-.37-.21-.55-.67-.18.53.1 1-.36 1-.13-.36.31-.68.14-1-.71-.61-1 0-.92.77-.57.32 0-1.33-.55-1.1a1.47 1.47 0 0 1-.93 1.61c-.3-1.26-.43-.06-.85-1.06 0 .91-.59.78-.92.34 0-.5.24-.23.14-1-.2 1.31-1.94-.29-1.73 1.76-.41-.63-.86 1.22-1.26.53-.3-1 .39-.62.71-1.63-.41-.37-.83.05-1.24-.31-.22 2.64-1.74 1.26-2.18 1.71.05-.79.61-1.07.82-1.4a.72.72 0 0 1 0 .84c.48.52.36-.6.91-.77-.74-.33-.93-.06-1.55-1.81-.47.45 0 1-.14 1.46-.65-1.59-3.3-.17-4.28-.77-.15.12-.95.75-.59 1.42-.6.89-1.1-1-1.15.75-.32-.59.06-1.12 0-1.68.2-.21.37.38.56.68.37-.81-.25-1.36.48-1.65-.58-.07-.67.53-1.38 1.15a2.35 2.35 0 0 0-.21-.86c-.39.7.23.54.09 1.48-.35.37-.68-.42-1 .56a12.09 12.09 0 0 0 5.17 1.68c.5.46-.29.82.21 1.28.42 0 .3-.48.58-1 .44.88-.31 1.66-.72 2.47-1-.14-2-2.13-3.27-.9-.34 0-.66-.87-1-.72.3 1 .21.83-.46.39-.4.39 0 .84-.25 1.25-.82-1.68-1-.46-1.8-.56-.31-.45 0-.85-.43-1.3 0 .92-.33 1.51-.8 1-.31-.45.59-.8 0-1.26-.16.42-.31.2-.46 0a2.19 2.19 0 0 1-.3.87 5.33 5.33 0 0 1-2.23-1.86c-.22 1.78-.75-.49-1.25.54-.23-.82.43-.23.58-1-.42 0-.84.18-1.24-.31-.23.17-.48 1.3-.7.79.13 1.11 0 1-.59 1.85.87-.17 1.21 1.19 1.92.36.41 1-.29.73.09 1.48a2.13 2.13 0 0 0 .33-1.85c.27-.29.53 0 .8-.56 0 1.38.74.74 1.12.5.28.93-.49.76-.6 1.85.43.21.46-.16.7-.79.13.35.46 1.21 1.1 1.35a3.65 3.65 0 0 1 .71-1.63c.13.71-.05 1.4.42 2.14.31-.6.6.12.9.07-.13.49.14 1 .09 1.48a5.46 5.46 0 0 1 3.6.71c.7-1.29 1.34.63 2-.26 1.15 2.29 2.91-1.06 3.69 1.79.24-.76.46-.22.69-.79.29.83.59.88.88 1.33-.46.48-.83-.41-1 1 .21-1.12-.27-.56-.66-.9-.3.87.14.67.43.87-.54 1-1.06.35-1.58.3-.2-.44.52-.65.68-.37-.16-1.09-1.34-.09-1.88-.4.25.83.53-.12.78.7-1-.35-1.44.67-2.39.86-.33-.52.75-.92.14-1.47l-.47.81c-1-.94-2.15-.31-2.83.4.67-1.13-.41-.86-1-1.13-.08.54-.37 1 .09 1.06-.8 1.54-.89-.91-1.58.3a3.34 3.34 0 0 1-.08-1.9c-.31-.35-.82 1-.82 1.41-.47.48-1.33-1.48-1.46.1-.2 0-.95-.66-.78-1.12-.44 1-1.69 1.14-2.71.22.6-.43.53-.25 1-1.4-.37-.51-.74-.84-1.11-1.35-.33.23.33 1.52-.13 1-.22 1.08.51 0 .68.05.08 1.38-1.25 2.22-1.82.7-.75-.15-1.54 2.55-2.27 1.09l-.46.81c-.38-.45 0-.84 0-1.27-.44-.38-.91 1.25-1.35.32-.23-.81.43-.52.57-1-1.27.47-2.46 1.23-3.26-.46-.38 0-.75-.17-1.14.76a.87.87 0 0 1 .1 1.05c-.44-1.06-1.68.23-2.47-1 .27-.53.54-1 .8-.57-.22-.74-1.42-.85-2-1-.53 1 .39 0 .55 1.1-.39.67-.75 0-1.14.76a1.32 1.32 0 0 1-.12 1c.29.61.41.1.44.88a.63.63 0 0 0-.46.38c-.56-1.64-.72-1.22-1.44-2 .39-1 .74.66 1.13-.35-.25-.81-.52-.29-.77-1.1.22.86-.82 1.47-1.26 1.38-.11-.28.12-.55.23-.82-.29-1-.59-.12-.89-.9-.19.4.31.86.21 1.27-.79.7-1.57-.43-2.36 0 0 1.11.57-.13.89.49.07.21 0 .42.11.64-.57-.45-.73.35-1.36.75 0 1.19.58.85.79-.16.52.59-.5 1.25.22 1.28-.35.63-1.13.79-.58 1.85.32 0 .44-.47.12-1 .15-.2.3.23.45.45.42-.46.3-1 .57-1.44.67.08 1.35.5 2-.27.8 2.19 1.64.35 2.46 1-.06 1.68-1.26.52-1.37 2 1.25-.59 2 1 3.38-.59.33.95.55 1.75 1.12.51a2.16 2.16 0 0 1-.36 2.29c.18.6.38-.08.56.25-.22-.72.51-1.37 0-2.1.77 1.15 1.58-.36 2.36 0-1 .82-1.7 1.68-1.94 1.75.32 1.55 1.66-.52 2.38-.88 0 1.1.82.85 1.23.73.1-.27-.14-.57 0-.84s.23 0 .34-.19c0 .36-.15.69.1 1.06.94.1 1.89-.69 2.83-.82.06.21 0 .41.1.63-1 .37-1.34 1.08-2.27 1.51.77 1 1.57.23 2.35.82.27-.75-.34-.28-.44-.88.2-.52.38-.38.57-.59.51.66.13 1.7.65 1.74.22-.34.11-.7.36-1-.11-.21-.23.08-.34.19-.26-.51-.18-2.18-.44-.88-.65-1.2.14-1.64.58-1.43-.57.61.64.79.2 1.7.3.41.62-1.06.91-.77A1.1 1.1 0 0 1 31 67.5c-.29.54.26 1.14 0 1.68.41.57.83-.37 1.23.31 0 .93-.45.62-.7 1.63.4 1.24.84-.35 1.23.73.21-.75-.5-.4-.65-1.32.33.06.67-.08 1 .3-.49-.9-.21-1.37-.07-2.33.11-.12.22 0 .34-.18.49.46-.29.81.2 1.28.51-1.34 3.13-.13 2.91 1.49.3-.75.68-.32.69-1.22.58.68.18 1.28.53 1.94-.56-.25-1.13.56-1.69.08a1.78 1.78 0 0 0 2.35.82c.21.44-.18.83.2 1.28.49-.62 1-1.3 1.69-.08.08-1.08.55-.9.26-2.09.32.94.76-.4 1.34.53-.3-1.56.94-.56.93-1.61.81.7-.49 1.22.08 1.9.36-.83.69-.84 1-.54a9 9 0 0 1-.14 1.46c-1.17.46-2.28-.43-3.17.58.25.83.54-.42.78.7 1.51-2.29 2.9 1.57 4.4-.27 1.39 2.23 4 .19 4.68 2.5a8.38 8.38 0 0 1 1.35.53c.26-1.59 1-.37 1.59-.71 0 .35-.16.69.09 1.06.06-1.1.86-1.07.79-.14 1.26-1.18 2.46.77 3.72.09-.35-.62.28-1 .47-1.23.19.51-.48 1-.37 1.45 1 1.12 2.11-.15 3.16-.16-.06 1.59 1.21 1.77 1.45.75.21.79.44.29.66.9.6-2.27 2.85 1.19 4.18-.7 1 2.42 2.84-1.28 3.58 1.15-.33-.26-.68 0-1 .12.23 1.18 1.38-.37 2.25.2.35.23 1.61 1.62 1.68.35.23-.47.44.69.66.9.8-.76 1.57 0 2.38-.84.92.88 2.91.8 4.38 1 37.84 8 75.94 6.89 114.08 5.69.32.51 0 1-.16 1.46-2.81-1.55-5.75 1-8.57-.38-.23.86-.37.74-.82 1-.1-.42.2-.17.36-.61-.44-.53-.94 1-1.35-.12-.36.53 0 1.13-.28 1.67-1.18-2.1-3.11-1.51-4.72-.44-1.27-.38-2.54-1.07-3.85.06a.71.71 0 0 1-.09-.64c-2 1.16-4.8-.5-6.13 1.12-.3-.58 0-.78-.43-.88-.12.27.1.57.2.86-2.52-1.47-4.59 1.13-7.2-.67-.26 1.38-1.53 0-2.15 0-1 0-1.8 1.36-2.26.22a1.61 1.61 0 0 1-2.71-.25c-.51.38.26.87-.26 1.24-.11.49-.69-.71-.42-.88-.63 1.07-1.21.05-1.83.68a.72.72 0 0 1 0-.84c-.82 1.07-1.59.27-2.4.83-.05-1.59-.05-.17-.65-.9 0 .55-.3 1-.59 1a2.37 2.37 0 0 0-.31-1.08c-.56 1.56-1.63-.65-2.74 1a1.32 1.32 0 0 1-.08-1.06c-1.33.44-4.42-.15-4.76.84-.69.19-1.32-1.24-2 .23-.61-1-1.72-1.66-2-.61-4.22-1-8.12 0-12.5-.92-.22.26-.1.55-.25.82-.33-.63-.46-.41-1-1.14-2.37 1.23-5.61-1.4-8.36.52-.21-.37-.09-.71-.31-1.08-1.06.16-2.13.68-3.17.14 0 .6.26 2.44-.74 2.89-.29-.86 0-1.35-.64-1.75-.15-.66.63-1.46.81-.56.43-1-.73-1.52-.67-.48-1.39-1.69-2.87.53-4.26-1.23-.34 1.44-1.29.91-1.9-.38-.24.26-.14.55 0 .84-1.25-.79-2.54-.33-3.8-1.18-.12.34 0 .71-.14 1-1.82-.84-4.37.49-5.71-1.56-.12.2 0 .43.09.64-2-.52-4 .06-6-1.36-1.46.84-3.82-.21-5.63-.49-.44.45.08 1-.36 1.45-.16.08-.31.16-.46 0 .48-2.3-1.37-1.18-2-1.87-.23 1.13.5.26.65.91.19.91-.52.61-.69.78-.7-2.78-2.24-1.2-3.33-2.4-.44.46.07 1-.37 1.45-.15.16-.29-.3-.45 0-.11-.36.2-.69.36-1-.32-.59-.66-.59-1 .12 0 .42.37.88 0 1.26.21.44.45-.27.66.48-.39.83-.74-.37-1.14.75-.35-1.27-.74-.7-1.11-.94-.07-1 .74.28 1-.54-.7-1.47.32-.52.58-1-1.06-1.6-1 .14-2-1-.2.41.29.87.19 1.29-.11.18-.22-.12-.33-.24-.18.53-.08.77.21.86-.59 1.14-1.14.64-1.73 1.75-.34-.46-.53-.51-.42-1.3-.49 0-1 1.68-1.49.92-.25-.44.37-.81.48-1.22-.36-.61-.69.43-.58 1-.36.62-.66-.92-1-.3-.12-.43.27-.82-.2-1.28-.54 1.57-2.27 1.82-2.26.23-.49.09-1-.7-1.47.51-.58-1.74-1.52.18-1.77-1.41-.64 2.47-2.06-1.5-3 .38-.92-.64-1.87 0-2.79-.87-.31-.62.57 0 0-.84-1.54 1.86-3-1-4.5 0 .18.42.37.22.55.68.09.28-.16.55 0 .84-.67-.24-1.32-1.31-2-1.43-.12.52.18.43.33.66.19.78-.51-.21-.69.78 0-.56-.14-.78-.43-.88-.62 2.36-1.77-1-2.72.62a1.32 1.32 0 0 1 0-1.68c-.28-.79-.59 0-.89-.49-.12.33.18.71.32 1.08-.31.86-.61.6-.91.76a1.27 1.27 0 0 1 .24-1.24c-.79.74-1.57 0-2.36 0-.12-.43.27-.82-.2-1.28-.48 2.15-2.86.46-3.63 1.39-.23-1-1.13-.84-.41-1.72-.48-.26-.53.31-.58 1-.47.11-.56-2.06-1.22-1.14.22.74.45 0 .67.46a.69.69 0 0 0-.12.63c-1.12-.16-2.22-1.45-3.37.16a3.91 3.91 0 0 0-.58-2.18c-.35.61.1 1.27.31 1.92-.62 1.68-1.18-1.12-1.8.28-.68-.82.3-1.52-.08-2.32-.42.74-.2 1.53-.37 2.29-.44.73-.43-.85-.66-.48-.12-.36.19-.68.35-1-.39-.33-1 .24-.8 1-.77-1.48-.77-.19-1.32-1.79-.75.78-.81.45-1.57-.12-.11.55.29 1.15-.25 1.66l.55 1.1c.4.06.2-1.08.67.06.23-.27.13-.56 0-.85.69.12 2.86-.19 2.44 1.88.22.51.46-.62.68-.79a1.49 1.49 0 0 1-.36 1.87c.23.28 1.37.24.91-.77.49-.3 1 .67 1.46-.52.2.5-.47.94-.36 1.45.38.87 1.55-.68 1.22 1.14.28.52.41-.62.24-.82a1.24 1.24 0 0 1 1.22.73c.11-.35 0-.71.13-1s.52.2.78-.15a3.77 3.77 0 0 1-.12 1 2.54 2.54 0 0 1 2.91-.2c.25.62-.35.05-.46.81.33.62.68-.29 1 .71.74-1.12.71 1.88 1.45.75-.22-.22-.45-.25-.67-.47.32-1.09.59.31.91-.77.29.38 0 .71-.13 1 .19.1.38-.23.56.26.21-1.43 2.13-.43 3 0a.85.85 0 0 1 0 .3 7.1 7.1 0 0 1 3.9.66c.11.36-.21.68-.36 1 .46 1.1.84-.34.81-1 .67-.19 0 1.25.64 1.74.63-.43-.43-1-.09-1.48.94.14 1.9-1.07 2.8.45.37-1.46.77-.74 1.38-1.16.4.46.11.86.42 1.31.73-.85 1.44-.56 2.15-.46.15.81-.6.48-.8.56.45.9 1.31.37 1.92-.47.42.53-.11 1 .31 1.5-.33.68-.8.08-.81 1 1.41.19 2.36-.3 3.62-1.38.62.68-.42 1.23.08 1.9 1.2 0 2.4-.19 3.57 1.14.62-1.33 1-.15 1.35.12.23-.41-.15-.86.25-1.25.85 1.47 2.92-.65 3 1.31 1.4-.12 3.34 1.31 4.39.17.69 1.25 1.43 0 2.11 1.66.51-1.15 1 0 1.49-1.35.4.46.11.86.42 1.31 2.62.26 5.26-.05 7.85 1.52.06-.44.26-.82.09-1 2.1.89 4.2 1.6 6.33.9.53-.49 1 1.11 1.55 1 .1-.27-.14-.57 0-.84.66.49 1.51 1.08 2.47.22l.65 1.32c2.31-.94 4.58 0 6.86.82.07-.2 0-.42.12-.62 4 1.25 8 .62 11.92 1.48.63-1.27 3.34.14 5.06.25.94.06 1.68-.7 2.36.42l.47-.8c.43 1.58 1.47-.46 2.23 1 1.91-1.34 4.62.66 6.89-.42l.43.88c2.93-1.28 5.77.72 8.7-.68 1.24 1.4 2.58-.6 3.82.77.78-1.19 1.49.36 2.27-.64 2.08 1 4.2.65 6.31.15 4.65.7 9.35-.65 14 0l.47-.8c.21-.2.2.37.1.64 2.48-.59 4.28-.39 6.8-1.06l.43.89c.47-.11.2-1.54.92-.76.11.41-.19.17-.36.59.31.29.8.1.81-.55 18.33.5 36.15-3.27 54.44-4.38l.36-.6c2.46.67 5-1.4 7.46-.14.44-.25.84-1.65.91-.33a1.25 1.25 0 0 1 2-.23l.48-.8c.86.1 1.71.43 2.6-.39 4.15 1.1 8.41-1.62 12.53.57l.47-.8a1.24 1.24 0 0 0 2.27-.21c.21.38.08.71.31 1.09.32-1.57.69-.58 1-.12 1.1-1.29 2.41-.92 3.86-.89a1.32 1.32 0 0 1 .08 1.06c.35.22.42-1.48 1-.53.11-.2 0-.43-.1-.64.35-.37.67.43 1-.54a.74.74 0 0 1 0 .84 2.41 2.41 0 0 1 1.84-1.09c.3 1.09-.39.55-.71 1.2a35.34 35.34 0 0 1 4.13-2.14l.53 1.11c-.12 1 .33-.5-.2-.86.65-1 1.21-.77 2.08-1.49.14.91.95.58.41 1.31.38.34.4-1.23 1.13.1.54-.84-.27-.68-.42-.88.82-1.08 1.58 0 2.41-1.25.1.29-.13.55-.25.82.21.27.46-.44.66.49-.19-1.18.4-.45.83-1.4 1.93 1.66 4.2-2.69 5.89-.28.39-1.89 1.6-1.51 2.32-1.88-.05 1.34-1 .33-1.4 1.13.18.42.37.22.55.69-.66.54-1.34 1.75-2 2.12.1-2.19-1.69 0-2 .23 1.29 1.09 3.44.41 4.68-1.45.11.37-.21.68-.37 1 .7-.25 2.15-.22 2.21-2.11.44-.39.27.84.53 1.11 1.31-1.31 2.13-1.29 3.59-2.82 1.73.06 3.47.07 5.26-2 1 .33 2.66-.63 3.34-2 2.19.92 6-4.35 8.86-1.25-.67-2.69 1.71-1.46 1.59-3.86.59.22 1.27-2.24 1.83-.66 2.44-2.31 4.82-2.44 7.13-.36a3.4 3.4 0 0 0 .52-2.07c.38-.24.74.12 1.09 1 .38-1 .7-.5 1-.54.17-1.15.49-1 .74-2-.21-.57-.46.34-.67-.06 1.51-1.44 4-1.39 5.74.77.24-1.54.9-1.87 1.63-1.53a12.58 12.58 0 0 1 5.16-5.83l.63 1.33c-.16-1.37 1-1 1.53-1.75a1.5 1.5 0 0 1 0 .84c1.64-.56 3.17-.85 4.5-2.73 1.72-.41 4-1 5.43-3.47 1.15.24 3.33-2.22 4.28-3.17a21.9 21.9 0 0 0 4.24-5.08c-.43 0-.43-.75-.64-1.33.32-.64.61-.11.93-.75-.55-.43-.8.36-1.11-.53-.58 1.44-1.51-.64-1.73.89-.27.41-.5-.86-.75-1.13a6 6 0 0 1-2.17.41 18.55 18.55 0 0 0 1.9-2.77c-2.69.5-6.36.78-9.5 3.51-.31.24-.6-.06-.89-.51a3.85 3.85 0 0 0 .08 1.06c-.34 0-.69.31-1 .53-.46-1.94-1.82 1.14-2.46 2.5-.31-.73.19-1.38.52-2.05-.32.24-.79-.37-.75-1.13.57-.9.66-.09 1.06-1.38-.25-.65-.57 1.33-.8.14-.42.38-.16.83-.49 1.22-.15.08-.31.16-.45 0 0-.7.52-1.36.52-2.06.11-.12.22 0 .34-.17-.28 1.27.7.31 1.13.1.21.37.08.72.31 1.09 1-.62 1.22-2.78 2.13-3.17.08.78-.79 1.47-1.09 2.21a1.07 1.07 0 0 0 1.21-1.34c1.07.77 2.22-1 3.35-2-.66-.7-1.39.94-2.08 1.48.44-2 1.81-2.59 2.53-1.44.9-1.09 1.8-2 2.64-1.22 2.77-2.76 5.41-1.82 8.16-4.06-.57-1-1.19-.33-1.75-1.85-.65.39-1.29.3-1.89-.82-.23.26-.11.55-.26.82-.44-1.44-1-.13-1.44-.78a1.52 1.52 0 0 1 .38-1.44c-.57-.89-1.21.11-1.8-.18-.45-.53.25-1-.06-1.48-.87-.67-1.38.91-2.42 1.24-.27-1.18.92-2 1.33-2.61-.19 0-.37-.29-.55-.69-.11.2 0 .42.1.64-.47.51-.71-.4-.93.75-.21-.37-.08-.71-.31-1.08a2 2 0 0 1-2.27.2 1.81 1.81 0 0 0-.05 1.68c-.24.53-.48.73-.7.78a16.58 16.58 0 0 1-.37-2.57c.91-.22 2.3-1.81 2.6-3.55 1.41-.42 2.82-1 4.19-.22-.32-1.7.72-1.1 1.28-.93.14.9-.59-.08-.81.55.57 1 1.23-.84 1.84-1.08.42.59-.28 1 .31 1.08.16-1.43 1.72-1.41 2.52-1 .7-1.29 1.47-.66 2.42-1.24.11-1.43-.81-.34-1.12-.53.8-.81 2.74-2.34 4.11-.86 1-1.72 4.2.13 4.53-3.57.82.53 1.17-1.33 1.83-.66 0 .72-.45.47-.38 1.44a8.83 8.83 0 0 0 3.83-6.38c-.4-.68-1.15-1.37-.93-2.43zM48.36 3.51c-.5-.26-.4.33-1.13-.09.17-.66.38-1.17.7-1.21-.22.89.46.44.35-.18a2.06 2.06 0 0 1 .08 1.48zm6.47 1.16c.42.11 1.44-.29 1.46.75a1.41 1.41 0 0 1-1.46-.75zm3.15 2c-.23-.35-1-.51-.89-1.35.25-.38 1.04.56.91 1.3zm6.87 3.3c.43-.69.87-1.78 1.27-.95-.43.65-.86 1.23-1.27.9zM66.93 8c-.16-1.07-.44-.62-.88-1.34.79-.15 1.43-2.4 1.84-.68-.66.26-.63 1.15-.96 2.02zm1.19-2.43c.47.61.24 1.15.65 1.74-.32.49-.62.3-.92.35.23-.66-.03-1.43.27-2.11zm0 4.86c.18-.42.89-.39.71-1.21s-1 .21-.89-.92c.42 0 .84-.25 1.23.74a.9.9 0 0 0 .09 1.06c-.38.49-.76.59-1.13.31zm.74-2.89c.3-1.1 1.12.36 1 .71-.32.04-.66-.19-.99-.73zm5 3.17c-.47-.23-.48-1.48-1.12-.52-.07.72.66.58.31 1.5-.45 0-.71-.42-.88-1.34.63-1.14 1.84-1.57 2-.24-.17-.31-.03.28-.26.58zm3.44-4.16c-.58.33-1.14-.23-1.7-.36.57-.41 1.15-.59 1.7.36zm-1.59 4.72c-.22-.09-.44-.33-.66-.91.32-.48.62-.45.91.08a2 2 0 0 0-.25.83zm.88 1.34c.32-.69.6.3.9.5-.33 1.07-.61.07-.9-.5zM80 14.16c0-.25.31-1.46.59-1-.09.55-.15 1.62-.59 1zm-1.15-4.1c.16-.91.77-.46 1.06-1.81.61.54-.47.94-.15 1.46s.63-.82.91.08c-.67.93-1.27.45-1.86.27zm3.79 2.85c-.52-.8-.26-2.24.17-2.3a3.06 3.06 0 0 1-.21 2.3zm1.83 4.17c-.14-.27-.3 0-.44-.46l.59-1c.28.51-.01.98-.19 1.46zm-.22-4.87c-.16-1.34-.56-.3-1-1.14.51-.75 1 .31 1.49-.51.18.4.36.64.55.68-.6.46-.7-.41-1.08.97zm2.67 1.91c-.18-.23-.37-.13-.55-.68.51-.26.32-1 .81-.56-.27.4.1.85-.3 1.24zm.94-1.18c-.69-1.52-2 .31-2.36-1.26.63.15 2.5-1.01 2.32 1.26zm3.16.69c.14-.34 0-.7.14-1 .24.83.53-.13.78.7-.36.35-.67.6-.94.3zm5 1.69l.71-1.2c.31 1.24.68-.3 1 .72a1.67 1.67 0 0 1-1.8.48zm-70.2-1.56c.12-.34.07-.7.36-1 .18.46.37.26.56.68-.41.56-.74 1.1-1.01.32zm3 .64c-.17-1.47-.47.08-.91-.48-.19-1.38 1.54-.67.78.48zm2.93 2.34c-.36-.62.05-1.5-.55-1.52.81-1.45.9 1.15 1.57 1.38-.48.93-.77-1.02-1.15.14zm3.81 3.66c0-1.09-.45-.43-.69.37-.39-1.22.77-2.64 1.29-1.8-.16.8-.47 1.35-.73 1.43zm-5.65 4.84c.18 1.22.35.29.78.7-.19.33.25.72.1 1.06-.55-.16-.39-.93-.9-.07l-.34-.66c0-.34-.06-.7.23-1.03zm-1.47-.32c.3.23 1-.32.66.89-.28-.64-1.02.24-.79-.89zm.61 4.68c.75.2 1.52-.4 2.27.18a1.27 1.27 0 0 1-2.4-.18zm1.84-1.54c.4-1 .77-.7 1.14.09-.51.08-.9.85-1.27-.09zm4.2.53l-.33-.66c.28-.83.53-.29.8-.15-.29.27-.45.54-.56.81zm16.35-13.23c.23 0 .67.95.31 1.5-.29-.51-.55-1.03-.31-1.5zM48 11.07c-.21.4.28.87 0 1.26-.57.22-.54-1.65 0-1.26zm-1.31 15.29c-.19 1.05-.4 1.62-1 1 .72.07.25-1.23 1-1zm-.84-9.56c.56 0 0 .89.54 1.52l-.59 1c-.12-.51-.8-.32-.55-1.09.27-.21.53.33.79.27.16-.5-.72-1.18-.19-1.7zm-7.47 4.67c-.12-.29-.34-.58-.22-.86.23.32.27-1 .68.05zm2.06-.69c-.45-.65-1.52.65-1.58-1l.22.44a5.23 5.23 0 0 0 .15-1.89c.22.43.46-.27.67.47-.9 1.47.81.83.54 1.98zM41 21c.12-.27 0-.56-.21-.86.57-.46 1.12.9 1.7.35-.49.91-.81.67-1.49.51zm1.41-2.41c.26.32.52.11.78.69-.33.77-1.14.25-.78-.65zm-4.29 11.09c.34-.05.71-1.37 1-.55-.31.62-.67 1.45-1 .55zm1.82.14q-.16-.34-.33-.66l.35-.61c.21-.4-.28-.87 0-1.26.21 1 .47-.49.68.47-.34.68-.25 1.39-.7 2.06zm2.65-2.11c-.34-.2-.67-.78-1-1.14.5-.09 1-.68 1.5-.93a.87.87 0 0 0 .09 1.06zm.66-5.64c-.33-.49-.68-.06-1-.71.28-.74 1.12-.22 1 .71zM43 17.2a1.37 1.37 0 0 1 .09 1.06c-.67-.05-.86-.43-.55-1.1-.54.21-2.15.84-2.54-1.26.55.62.42-.17.91.07a3.62 3.62 0 0 1 .37-1.45.84.84 0 0 1 .91.07 6.62 6.62 0 0 1-.19 1.89c.56-1.46 1.08-1 1.61-1.13.46 1.52.91 1.32 1.67 2-.37 1.1-1.58.16-2.28-.15zm2 2.69c-.27.6-.53.36-.78-.27l.46-.81c.23.37.1.71.32 1.08zm.07 8.86c-.16-1.53-.75-.12-1.23-.73.31-1.88 1.57-.86 1.22.73zm-.44-7c0-.56.4-1.25.7-1.21.5.47-.29.82.21 1.28-.32.5-.63.47-.92-.06zm2.22 8.83c-.27.53-.54 1-.8.56a.74.74 0 0 0 0-.84c-.43.39-.15.83-.48 1.23-.51-.81.26-1.53.38-2.29.41.23.11 1.35.44.88s-.07-1 .14-1.47c.14.3.29.59.44.89-.17.35-.41.67-.13 1.05zm-.29-8.88c.16-.27-.08-.57 0-.85.59.86 1.21-.24 1.8.58-.59-.23-1.22 1.27-1.81.28zm1 12.94c.5-.59 1-.3 1.47.34-.51.84-1.03.76-1.47-.33zM50 26.42c-.25-.83-.53.13-.78-.7l.47-.8a3.88 3.88 0 0 1 .31 1.5zm.42-10.09c-.48 1.23-.9-.28-1.37.31-.32-1.05-.55-1.32-1.11-1.36-.19.34.24.72.09 1.06-1-1.23-.4-2.07.07-3.79.25.38.06.71.1 1.07.19-.33.37.49.56.25a2.35 2.35 0 0 1-.32-1.08c.42-.64.72.12.59-1 .26 0 .53-.18.78.69-.16.44-.46.19-.35.6a2.08 2.08 0 0 1 1.12.52c-.47.73 0 .25.22.86-.29.84-.53-.45-.8.15.35 1.19.74.75 1.11 1.35.09.39.49 1.84-.14 1.47.23-.78-.45-.3-.57-1.1zM51 26.71c.43-1 .84-.34 1.25-.11-.42.1-.84.46-1.25.11zm2.31 9.47c.4-.94.75.26 1.15-.75a2.42 2.42 0 0 1 .32 1.08c-.5.19-1 .7-1.47-.33zm1-5.82c.36-.78 1.28 0 1.23.73-.39-.31-.81.07-1.21-.73zm.66-4.8c-.15-.27-.3 0-.44-.46-.1-.94.86-1.77 1.38-1.15zm.07-3.37c-.91 1.16-.7 3.61-1.65 2.82.67-.7 1.49-3.17.42-4 0-.77.39-.49.7-.79.17 1.27.83.44 1.34 1-.54 1.21.49 0 .66 1.31-.51.47-.96-.53-1.45-.34zm6.83 15.54c.28-.78.53-.21.81-1 .62 1.05-.45 1.6-.79 1zM64 19.13c.55 1.1 1.15-.43 1.69.77-.08.94-2.09.55-1.69-.77zm3.1 2.37c-.21-.62-.45-.11-.66-.9a3.83 3.83 0 0 0 .82-1.41c.36 1.09.75.65 1.11 1.36-.43.74-.82-.5-1.27.95zm1.82 16c.27-.6.53-.36.78.27-.27.58-.53.34-.78-.29zM71 21c.43-.59.83-.22 1.25-.11-.46.61-.88.96-1.25.11zm.84 18.84c.2-.57-.31-.1-.21-.86.51-.84 1.59-.44 1.68.78-.49-1.24-1.01.09-1.5.07zm4.66-17.75c-.29-.46-.61.29-.9-.5.25-.66 1.05-.11.9.5zm-1.21-1.58c.49.42.28 1.82-.15 1.47.34-.47-.33-.98.15-1.47zm-.64 8.39c.28-.6.54-.36.79.28-.28.59-.54.35-.79-.28zm.29-2.9c-.12.3-.07.75-.34.18a2.23 2.23 0 0 1 .48-1.22c.58.89 1.21-.23 1.81.15-.41 1.47-1.1.79-1.95.89zm3.82 1.59c-.19-.83-.33-1.17-.79-.28a2.28 2.28 0 0 1-.31-1.08c.31-.74.61-.47.92-.76.28.92.59.7.88.92-.46.35-.27.4-.7 1.17zM81 23.74c.22.09.44.33.66.9-.33.96-1.01-.28-.66-.9zm8.25.92c-.58.93-.4-.23-.89-.92.36-.94.9.26.89.92zm-3.49-.93c-.15-.23-.46-.14-.33-.66.7-.42 1 .42 1.45 1.18-.13.34-.07.7-.36 1-.45-.53-.15-1-.31-1.5-.61.85-.86.88-.95 2-.41 0-.27-.73-.43-1.31.32-.68.62-.44.93-.71zm-1 1.61c-.32.83-.61.2-.91.34.07-.97.65-1.12.96-.34zm-2.59-.44c.35-.62.7-.82 1-.54-.26.04-.63 1.36-.95.54zm.53 16.51c.59-.91 1.15-.67 1.71-.49a1.23 1.23 0 0 1-1.66.49zm2.88-12.2a2.43 2.43 0 0 1-.32-1.09c-.4 1.19-1.36.53-1.34-.53.43.92.92-.76 1.34.53.4-.76.78-.73 1.14.1-.4.99-.54-.22-.77.99zm0-2.75c.14-2 1.51-1 2.27-.23a1.75 1.75 0 0 1-2.27.23zm2.71.65c-.11-.29-.33-.58-.21-.86.25.65.56-1.33.8-.14zm.41 1.73c.76-1.25 1.52.76 1.2 2-.33-.84-.25-1.28-1.2-2zm1 15.69a1.32 1.32 0 0 1-.19-1.28c.48.34 1-.85 1.46.34-.44.8-.85.41-1.28.94zM112 50.3c.51.61-.15 1.86-.48 1.22.27-.39.01-.84.48-1.22zm-67.6-3.25c-.2-.57.53-1.31.69-.79 0 .31-.41 1.74-.69.79zM16.75 60.72c-.33-1.36-.68.68-1-.7.39-1.11 1.35-.64 1.35.1-.24-.29-.1.31-.35.6zM32 66.52c.5-1.06.84 0 .9.08-.31.04-.62.71-.9-.08zm13.4-6.11c.32-.58 1.21-1 1.13.1-.38-.08-.77.6-1.13-.1zm1.78 14.07c.39-.82.75-.29 1.12.09-.05.82-.76.77-1.12-.09zm9.06-25.82c-.34-.16-1.27.07-1.23-.74.35 0 1.28-.32 1.23.74zM46.09 47l.44.88c-.24.52-.47.7-.69.36.52-.4-.26-.88.25-1.24zm-.32 5c-.17-1 .65-.95.26-1.66.23-.35.46-.53.69-.37-.52.66-.21 2.7-.95 2.03zm4 1.18c-.41-1.75-.41.16-.65-1.32-.57.27-1.75 1.11-1.92.05.1.15.71 0 .46-.38-.39.22-.76.06-1.13-.52.32-.73.61-.17.9.5.36-.6 1-.24 1-1.39.72 1 1.63-1 2 1 .08-1.26.86-1.17 1.25-.53-.98.22-.81 1.72-1.86 2.6zm.4 20.91c.44.6.91-.22 1.34 1-.34.46-1.3.03-1.29-.99zm4.55-19.66c-.3-.09-.41-.32-.43-.88-.81 1-1.57-.6-2.38.44-.36-.54.06-1.86-.56-.68-.38-.65-.37-2.35.26-1.67a.74.74 0 0 0 0 .84c.13-2.38 1.43-1.54 2.19-2.13l.55 1.1c.45-.07.92-1.27 1.36-.31-.23 1.31-1.27 1.47-1.83 1.11.11.31-.06.36-.23.4.37.1.73 1 1.11.94.59-1.16 1.17-2 1.71-.91-.91-.1-.69.86-1 1.38-.01-1.06-.47-.42-.7.38zm1.15 22.45c.43-.84.82.09 1.23.32-.38.65-.78.23-1.18-.31zm1.98-24.08c-.28-.92-.58-.94-.9-.08-.11-.22-.22-.44-.32-.66.58-.7 1.13-.21 1.69-.07zm2.37.4c-.39.62-.76.39-1.12-.51.39-.47.75.31 1.12.51zM59.41 77c0-.86.68-1 1-.55-.01 1.03-.65.7-1 .55zm3.18-23.36c-.44-.85-.9-.43-1.36-.11a2.41 2.41 0 0 1-.23 2.05c-.33-.33-.67-.43-1-1.13.35-.68.68-.09 1-1-.17-.87-1-.48-1.1-1.36.19.2.38.19.57-.16l.53 1.12c.78-.94 1 0 1.83-.69-.23.41.17.86-.24 1.25zm1.47-.09c-.48-.52-.45.84-1 .13.27-.88 1.12-1.32 1-.16zM66.37 78c.33.23.69-.55 1 .3-.28 1.38-1.46-.59-1-.3zm.17-24.25c.53-.11 1 .31 1.57.56-.49.83-1.84.98-1.57-.59zm1.68.78a2 2 0 0 1 1-.54c-.17.81-.55 1.01-1 .51zm1.24-5.38c.33-.69 1.22-1 1.13.1-.36-.79-.77.67-1.13-.13zm1 6.42c-.21-.44-.45.27-.66-.48l.35-.61c.27.52.55.28.3 1.06zm-.18-1.71c.19-.26.39-.82.57-.58-.06.14-.12.27 0 .42.2-.36.39-.34.57-.16-.42.61-.79.77-1.15.29zm.91 26c.23-1.37 1.25-.37 1.8.15-.62.54-1.2-.47-1.81-.15zm4.49-30c.8-.65 1.59-.38 2.36.41a5.64 5.64 0 0 1-2.37-.4zm3.21 7.87c.33-.53.06-.77.47-.8.5.7-.15 1.82-.48.81zm4.2-6c-.34-.2-.43-1.31-1-1.15.33-1 .61 0 .92-.76a1.49 1.49 0 0 1 .07 1.96zm8.26-.73c.47-.48.92-.44 1.36.11-.46.5-.91.46-1.36-.11zm2.85 8.9l-.2-.44c-.07.11-.15.21-.22 0 .21-1 .78-1.55 1.26-.94-.35.88-.83.48-.84 1.38zm27.44-30.48c-.33.21-1.15.55-.78-.7.14 1.01.98-.49.78.7zm-.06-15.62a2.33 2.33 0 0 1-.49 1.22c-.27-1-.6-.13-.88-.92l.24-.4c.32.85.55-.15 1.13.1zm-2.64-3.19c.59.31 1.22-.58 1.8.58-.6.16-.44 1.55-.95 1.61-.6-.5.06-1.94-.41-1.73-.18.48.09 1-.38 1.45a3.37 3.37 0 0 1-.06-1.91zm1.06 3.05c-.4.81-.78.69-1.15.32.39-.19.78-.85 1.15-.32zm-.34 13.47c-.35.42-.7.62-1 .55.22-.31-.91-.23-.42-1.31a7 7 0 0 0 1.42.76zm-1-6.41c-.47.27-.91.1-1.37.3.08-.58 1.39-1.35 1.4-.3zm-.83-7.88c-.19.33.24.72.09 1.06-.29-.46-.61.29-.89-.5.3-.53.58-1.01.83-.56zm-2.59-.44c.55.61 1.13.17 1.68.78-.69.44-1.36-.16-2-.18zm-.57.16a1.91 1.91 0 0 0-.25.82c-.26-.44-1.12-.28-1-1.14.44.64.88-.63 1.28.32zm-.49 2.44c0 .56-.52 1.59-.82 1 .27-.2.57-1.42.82-1zm-4-3.72c.58.92 1-1.07 1.39-1.15.46 1.12-.24.92-.5 2.07-.21-.87-.46 0-.69.36a1.33 1.33 0 0 1-.19-1.24zm-2.35 12.87c.33.26.69-.34 1 .3-.26.19-1.12.89-.99-.26zm-1-6.42c-.28.59-.55.79-.8.14.31-.55.58-.74.83-.1zm-2.07 5.94c.33.37.68-.08 1 .3-.24.6-1.1.84-.97-.26zm-1.12-.53c-.22-.25-.46.45-.67-.48.23-1.04.92-.01.7.52zm-5.6-7.45c.39-.31.79-1.45 1.15-.75-.36.7-.76 1.55-1.12.79zm1.14-.32a1.71 1.71 0 0 1 1.7.36c-.52.41-1.52.88-1.67-.32zm1.87 7.34l-.48.8-.32-.67c.31-.79.57-.24.83-.09zm-.61 1.84a7.62 7.62 0 0 0 .18 1.7c-.28.6-.53.06-.78-.28.34-.31.33-1.73.63-1.38zm-.73 2.05c.32.93 1.28-.16 1.23.74-.37.11-1.55.97-1.2-.7zm.92-.77c0-.49-.09-1 .38-1.44.59.68.05 2.14-.35 1.48zM101 16c.32-.74.62-.55.92-.34-.01.61-.59 1.04-.92.34zm1.8 9.86c-.39-.6-.09-1.13.27-1.66.5 1.21 1 .27 1.56 1-.31.83.07 1.57-.61 1.85-.52-.61-.1-1.14-.18-1.71-.34.2-.67-.11-1.03.51zm.2 1.29c.61-1 .49.74 1.11.94-.38.31-1.11-.09-1.11-.95zm1 2c.29.52.43-.61.47-.8l.43.88c-.27.71-1.08.92-.9-.11zm2.84 4.47l-.33-.66c.28-.58.55-.78.8-.14zm4-5.55c.2-.16.38-.13.56.26-.84 1-1.21-1.66-1.65-2.05l-.59 1a1.83 1.83 0 0 0-2.58-.86 3.82 3.82 0 0 1-.73 2c0-1.64-.44.53-.89-.5a10.22 10.22 0 0 0 1.77-3c.69 1.93 2 0 3-.16-.12.41-.74.78-.49 1.22.43-.57.84-.29 1.27-.94-.14-.23-.45-.14-.32-.66.4.75 1.44-.55 1.45.76-.54-.62-1.42.92-1 2 .09-1.53 1.55-.55 1.58.13-.46-.04-1.67-.76-1.42.73zm.5-2.07c0-.47.51-1 .82-1-.22.65.51.22.66.9-.55.7-1.03.27-1.52.1zm1.8-13.13c-.34-.3-1.27.05-1.22-1.17.5-.57 1-1.66 1.73-.9-.29.78-.54.21-.82 1 .24.48.52.26.27 1.04zm.29 15.64c.22-.4-.27-.87 0-1.26.3.11.6 0 .9.08-.39.67-.41 1.47-.94 1.15zm-.16-2.55c.6-.61.9.35 1.26-.52.14.36.44.74.31 1.08-.55-.46-1.11.72-1.61-.59zm2.52 3.39c.18.4.36.64.55.68l-.24.41c.06.14.11.29 0 .41-.6-1-.17.9-.48 1.23-.26-.34-.53.17-.78-.7a10.67 10.67 0 0 0 .91-2.06zm2.41 21.32c.28.53.56.3.31 1.08-.5 0-.27-.92-.75-1.54-.52 1-1-.64-1.48.5.29.21.6 0 .88.92-.24.57-.45 0-.7.78-.4-.34.13-1.63-.42-1.3-.34.46.33 1-.15 1.46-.23.13-.45-.1-.67-.48 0-.63.52-1.22.39-1.86-.27.11-.52-.43-.77-.7a6.56 6.56 0 0 1 4.73.84c-.57 1.48-.93-.85-1.41.27zm1.31-20.78c-.78-.3-.81-.92-1.14.32-.43 0-.51-.75-.42-1.3-.81.93-2.19.37-2.57-1.28a1.72 1.72 0 0 0 2.72-.19 2.77 2.77 0 0 0 .19 1.71c.06-.9.1-1 .59-1 .25.37 0 .71.08 1.06.26-1.12.26-.34.69-.36-.3-.9.4-1 .69-.36-.05.7-.53.45-.87 1.37zm.68 22.64c-.55-.64.27-2.08.6-1.42-.15.89-.72.07-.64 1.39zm.9.08l-.32-.66c.43-.65.87-1.62 1.27-.94-.04.9-.63.57-.99 1.57zm1.91-21.8c-.1-1.8-.47-.48-1.1-1.37.44-.79.77-.77.63-2.27.69 2.39 2.06.57 3.13 1.55-.72.57-1.84.47-2.74.6.08.51.38 1.02.08 1.49zm4.78-.84a2 2 0 0 0-.37 1l-.22-.44a1.35 1.35 0 0 0-.63-1.75c.63-.89.73.16 1.18 1.22zm-1.4 1.56c.58 1 1.2.22 1.78 1-.66.91-1.89.27-2.14-.41.16.3.29-.27.32-.59zm-.54 3.33c.44.56 1.52-.5 1.56 1-.5-.13-1.55.14-1.6-1zm1.35 17.85c.36-.83.61-1.51-.06-1.91.39-.41.76-.18 1.12.53-.41.73-.47 2.33-1.1 1.38zm1.39-23.3c.58.95 1.23-.89 1.81.16-.57-.08-2.09 1.8-1.85-.16zm4.21-14c.29.55.62-.62.89.5-.29.66-1.09.39-.93-.47zm0 18.15c0-.63.6-1.06.91-.34-.36.42-.7.66-.96.37zm-1.26-3.91c.69 1.14 2 0 2.34 1.26-.73-.49-2.49.96-2.39-1.23zm1.23-12.55c.38-.2.77-.86 1.14-.33-.46 1.13-.82.44-1.19.36zm4.47 15.38c.63 1.2.76-1.52 1.48-.5-.63.67-.33.5-.6 1.43-.39.06-1.3.25-.93-.9zM134 17.45c.88-.95.29-4.55 1.33-3.47a4.15 4.15 0 0 0-.39 1.87c.28-.41.53.12.78.7-.63.52-1.23 1.74-1.72.9zm1.52 2.25c-.28.58-.55.78-.79.13.37-.33 0-1.79.6-1.42-.25.41.24.87.14 1.29zm-1.1 33.66c.69-.83.65-.89.73-2 .21.69.44.72.68.06.36 1.28-.83 2.71-1.46 1.94zm1.73-35.93c.28-.58.55-.78.8-.14-.33.59-.6.78-.85.14zm.62 19.47c0-.67.6-.81.92-.34-.37.74-.69.55-.97.34zm-.28-2.34c.33-.4.07-.84.49-1.22.59 1.84 1.27.42 1.89 1.22-.45 1.27-1.69.09-2.43 0zm3.53-.74c0-.77.71-1.64 1-.54-.38.83-.72.85-1.02.54zM144.3 37c.26.34.55-.6.79.28-.23.87-.98.47-.79-.28zm1.19-2c-.48-.47-.08-.85-.19-1.29l-.6 1c-.53-1.27.05-1.85-.85-2.19.54-.15 1.54-.38 1.68.79.43-.67 1.18.55 1.27-1l.43.89c-.31.77-.57.2-.59 1-.64-.57-.97-.61-1.15.8zm1.23.32c.15-.34 0-.7.14-1 .74-.08.49 1.56 1-.12.62 1.23-.78 2.01-1.14 1.08zm2.05-.24c-.18-.33-.39.34-.56-.26.44-1.37.65-.5 1-2 .49.76-.09 1.48-.44 2.18zm2.07 2.92c.36-.7.69-.7 1-.11-.33.33-.68.81-1 .11zM161 14.84a1.54 1.54 0 0 1-1.71.48c.55-.57 1.13-1.23 1.71-.48zM158.17 18c-.39.48-.77.45-1.13-.1.4-.97.76-.44 1.13.1zM157 36c.48.59.45-.86 1.05-1 .62 1.35-1.15 2.77-1.05 1zm5.48-18.49c-.63-.77-3.1 2.92-2.48-.23-.46-.05-1.53.81-1.57-.56a.93.93 0 0 1 1.8.16c.34-1.61.55 0 .91.09a3.78 3.78 0 0 1 .52-2.49c.53 1-.72 1.77-.19 2.73.13-.34.07-.7.37-1 .16-.02.86.79.64 1.3zm.86-2.24c-.55-.7-.79-.51-1 .54-.32-1.23.31-1.27.73-1.62.1.36.39.74.27 1.08zm1-3.28a1.29 1.29 0 0 1 .19 1.28c-.14-.23-.28-.67-.44-.46s-.23.39-.34.17zm.78 4.71c.24.83.54-.42.77.71-.34.43-1.14.12-.78-.71zm5 1.52c-.6-.24-1.21 0-1.79-.58.45-.43.61-1 .82-1-.09.41.48.51.54.68.15-.34 0-.7.14-1 .64-.15.81 1.02.33 1.9zm1.93 0a.38.38 0 0 0 0-.42c.35-.32.69-.45 1 .3-.3.66-.63.47-.96.09zm4.11-1.31c.17.46.37.27.55.69-.33.35-.82.58-.83 1.4a16.32 16.32 0 0 1-.38-3c.49.46 1.59-.26 1.68.79-.29-.36-.64.12-.98.09zm2.62-.81a.75.75 0 0 0 .1.64c.16-.22.31-.41.45.05-.61.17-1.22.46-1.81-.18.69-.2.83-.61 1.3-.54zm-.63 3.9a.76.76 0 0 0-.44-.46c.27-.76-.41-1.59.18-2.31a3.76 3.76 0 0 1 .26 2.77zm.26-1.25c.38-.52.12-1.11.5-1.64.44.4.9.08 1.34.55-.14.34.1.71.09 1.06-.67.86-1.34.63-1.93.05zm3-1.41c-.14-.23-.28-.66-.44-.46.11.29-.07.55-.24.82l-.33-.66a2.47 2.47 0 0 0 .73-1.62c.23.37.1.71.31 1.08.12-.2.05-.42.13-.62.43.56.16 1.02-.18 1.48zm1.22 1.17c.39-.49.75.11 1.13.1-.43 1.04-1.16 1.17-1.15-.08zm2.64-1.23c.05.21.2.44.09.64a2.15 2.15 0 0 1-.2-.86c.34-.14.7-.61 1-.12-.33 1-.61.2-.91.36zm1.33 1c.32-.53 1.21-.49 1.11.53-.38-.5-.78.26-1.13-.55zm1.41 2c-.18-.27-.37-.05-.56-.27.16-.27-.08-.57 0-.84.11.13.22.09.34-.18a1.31 1.31 0 0 1 .21 1.31zm.24-.41c.63-.88 1.2.11 1.82-.25-.65 1-1.25.83-1.84.27zm.72-1.62c.52-.89 1-1.52 1.5-.91-.28 1.47-.98 1.21-1.47.93zm3.03 3.27a1.33 1.33 0 0 0 1.17-1.16c.1.36 0 .71.31 1.08-.48.74-.99 1.11-1.48.08zM59.93 90.3c.43-1.08.84-.72 1.24-.11-.08.94-.85.86-1.24.11zm11.75 2.89c.27-.28.56-1.51.8-.56.16.66-.62 1.46-.8.56zm5.11-6.73c.31-.74.61-.55.9-.34-.31.48-.62.99-.9.34zm4.93 1.27c0-.81.5-1.09.79-.14-.27.29-.51.78-.79.14zm4.45 2.49A4.19 4.19 0 0 0 84.41 88c.5-.71 1.17-1.56 2-1.3.09.49-.6.93-.15 1.46.63-.58.34-1.24.61-1.85.18.46.37.26.55.68-.42 1.53-.88 1.85-1.25 3.23zm3.41-1.39c-.65.53-1.28.17-1.91-.37.33-.85.39-.28.72-1.63.18.29.35.89.54.68s-.08-.57 0-.84c.41.41.84-.67 1.23.73-.35.93-1.11.07-.58 1.43zm3.5-.32c.32-.74.62-.71.9.07-.32.73-.6.01-.9-.07zm5.15 1.29c.48-.5 1.38-.82 1.46.34-.49.23-.99.49-1.46-.34zm10.77-.1c.29.34.57-.17.55.68-.37.85-.92-.06-.55-.68zm37.37 3.37a.79.79 0 0 0-.44-.46c0-.56.41-1.25.71-1.2.36.59.04 1.13-.32 1.66zm6.47-1.31c.32-.31 1.22-.89 1.13.1-.42-.36-.83.88-1.18-.1zm31.29-.7c-.28-.54-.69.23-.7.78a2.38 2.38 0 0 1-.3-1.08c.23-.41 1.09-.76.95.3zm2.1 1.67a5.42 5.42 0 0 1-.27-2.34c-.38 1-1 1.31-1 .12.62-.36 1.83-1 2 .6-.85-.7-.43 1.04-.78 1.62zm2.21-2.11c-.3-.21-.61.37-.9-.09-.09-1.32 1.29-.91.85.09zm7.48-2.62c.47.58 1.61-1.21 1.68.37-.52-.22-1.6 1.2-1.68-.37zm3.68-70c.23.37.14-.45.35-.18-.28.57.34.11.42.89-.22.65-.96-.1-.77-.71zm1.59 71.08c-.23-.88-.51-.37-.77-.71.4-.59.79-1 1.14-.31-.12.34-.07.69-.37 1.02zm2.35.85c-.14-.29-.28-.59-.43-.88.38-.95.97.28.43.88zm5.46-1.17c.24-.54 0-1.07-.32-.67a2.86 2.86 0 0 1 0 1.27c-.21-.44-.46.26-.66-.49.58-.58 0-1.27.62-1.84.25.33.52.12.77.7-.22.27.03 1.5-.41 1.03zm1.47-.08c-.25-.61-.15-2.12.38-1.44-.18.48-.07.98-.38 1.44zm.57-.16c.28-.58.55-.78.79-.13-.28.61-.55.78-.83.13zm3 .5c-.32-.58-.68 0-1-.3.68-1.32-.3-.85.05-1.69.51.85 1.07-.26 1.58.15a2.4 2.4 0 0 0-.6 1.82zm.11-70.29c.3.22.62-.52.9.51-.23.63-1.05.35-.87-.51zm26.88 2.13c-.18-.75-.95-.61-.75-1.55.32.98 1.15.26.78 1.55zm5 .47l-.31-.66c.64-.42.54-.25.83-1.41.29.35.6.14.88.93a1.85 1.85 0 0 1-1.43 1.14zm4.21-.66c-.46-1.07-1.16.66-1-1.15.27.48 1.13.03.99 1.15zm11.31.24c-.37-.46 0-.84-.19-1.29.36-.57.69-.23 1-.11 0 .73-.48.49-.82 1.4zm2.16-.43c-.54-.45-.43 1-.91.33-.11-.48 1.09-1.72.9-.33zm11.7-1.2c.44-.78.85-.64 1.25-.1-.45.72-.84-.26-1.26.1zm16.33 68.5c-.14-.23-.28-.67-.44-.47-.17.43 0 2-.5 1.65-.08-.5.22-1-.07-1.49.61-.15.59-1.92 1.19-2a3 3 0 0 1-.19 2.31zm1.13.11c-.36-.94-.25-1-.76-1.13.11-.58.33-2.07.84-1.4-1.1 1.41 1.05.5-.09 2.53zm1.93-.45c-.29-.46-.63.82-.9-.08.34-1.06.41-.91.74-2a7 7 0 0 1 .15 2.08zm.37-1c.12-.27 0-.57-.2-.86.24-.47.47-.45.68.06-.15.49-.26.85-.49.78zm.56-69.2c.38-1.09 1.31-1.17 1.25-.09-.4-.72-.86.59-1.26.07zm1.38-.71c.59-.79 1.16-.79 1.69.37-.58-.14-1.16.33-1.7-.39zm2 .2l-.32-.66c.29-.84.54-.29.8-.14zm19.79-2.33c.48-1.08.93-.92 1.39-1.13-.11.82-.97 1.62-1.39 1.13zm9.2-4.59c.73.09 1-1.33.3-2.51.2-.36.4-.57.59-.58.55 1-.43 1.93.36 3-.42.14-.87 1.08-1.25.09zM334.84 54c-.54.51-1.34.39-2.19 1.26-.1-.29-.32-.59-.2-.86a9 9 0 0 1 2.69-2.48 2.23 2.23 0 0 1-.3 2.08zm3.53-.71c-.76.15-1.53.83-2.28.62.7-.78 1.39-1.13 2.1-1.91a2.18 2.18 0 0 1 .18 1.25zM350 51.43c.32.59-.07 1.11 0 1.68-.25-.34-.53.17-.77-.71.19-.47.45-.21.77-.97zm-10.69 1.91l-.42-.89c.69-.4 1.53-3.14 2.79-2.26-1.04 1.05-1.9 1.41-2.41 3.15zm2.64-39.86c-.25-.64-.55.59-.79-.29.19-.91.94-.51.75.29zm1.44.77c.57 0 1.17-1.23 1.71-.47-.62.62-1.21 1.22-1.75.47zm3.87-4.06c.27.71.39.72.45.05.49.73-.54 1.52-.7.78a2.2 2.2 0 0 0 .21-.83zm.09 4.24c-.32.38-.63.79-.91-.1.28-.48.56-.44.87.1zm-1 20.8c-.28 0-.45-.75-.41-1.3.31.28.56-1.2.73-1.62.47.46.07.85.18 1.28.12-.1.23 0 .34.25-.62.16-1.1-.05-.89 1.39zm1.47-.07c0 .63-.52 1.26-.81.56.36-.61.28-1.48.76-.56zm2.15-21.11c-.74-1.61-1.62 1.18-2.39.4-.38-.94.45-.46.27-1.24-.37.47-1 .51-1-.31.72-.46.8-.67 1.42-2 .24.95.52.45.8-.13a8.37 8.37 0 0 1 .61 2.17c.61-.78.22-1.67.08-2.52.86.58.73 2.58.16 3.63zm16.32 6.67c0-.57.63-1.82.94-1.17-.07.77-.66 1.23-.99 1.17z"/><path d="M101.5 9.91c-.15.39.29.22.1.64 1.29-1.92 2.5-.25 3.76-1.14a3.85 3.85 0 0 0-3.15-.7c-.12.27.09.57.2.86-.3.04-.61.55-.91.34zM24.05 80c.36.57.75-.38 1.13-.34-.38-.08-.75-.48-1.13.34zm20.27-3.43c-.29.32-.23.68-.35 1 .18.24.38-.32.57-.58a2 2 0 0 0 .21.86c.25-.77-.14-.85-.43-1.28zM27.8 44.27c-.46.23.71.2.66 1.32a4.51 4.51 0 0 0 .14-1.46c-.49-.68-.31.87-.8.14zm7.26 13.22a1.08 1.08 0 0 0 0 1.26c0-.55.28-.75.57-.59.23-.54-.44-.35-.57-.67zm-1.27-5.16c0-.35.15-.69-.1-1.06a2.41 2.41 0 0 0-.47 1.22c.22.39.46-.51.68 0 .1-.21-.05-.27-.11-.16zm15.81 31c.39 1 .29-.51.47-.81.33-.46 0 .66.43.89.62-1.19 1.22-.85 1.81-.28.11-.41.13-.83.25-1.24a1.63 1.63 0 0 1-2.37 0c-.26.95-.57.72-.59 1.44zM32.74 47.18c1.38-.2 2.29.2 3.63-1-.16-.42-.48-.22-.32-.66-.5-.42-.3.31-.81.57.11-1.06-1.7-.33-1.22-1.15-.28-.79-1.02 1.22-1.28 2.24zm22.68 43.59c.33.85 1.64.84 2.36.41-.78-.08-1.57-.33-2.36-.41zM17.89 10.84c0 .77-.39.34-.7 1.22.73.47.71-.27 1-.56.16-.39-.19-.2-.3-.66zm17.79 36.57c.41-.2.82.37 1.25-.53-.4-1.01-.84.36-1.25.53zm18.5 32.08c-.32.32 0 .71-.13 1 .25.4.52-.09.79-.14.21-.58-.52.3-.66-.86zM29.47 22.9c.11-.2 0-.42-.1-.64.24-.58.45 0 .69-.79-.45-.34-.9-.78-1.37.32.44.5.6-.05.78 1.11zM42 36.1c.6-.54.5.49 1.13.51a15 15 0 0 1 .46-1.61c-.51.49-1.45.32-1.59 1.1zm24.81 47.6c-.19-.79.6-.31.48-1.22-.25-.64-.54.6-.78-.28.09.88-.53 1.25-.06 2.53.31-.4.62-.64.91-.35.25-.54-.42-.38-.55-.68zm2.01 1.02c.51.73 1.07-.82 1.57.56.37-.77-.3-.58-.09-1.07-.5.2-.98.04-1.48.51zm2.39-.85c-.21-.37-.09-.71-.32-1.08-.65.5-1.28.26-1.91-.38.08 1.78 1.19.46 1.65 2 .4-1 .76-.33 1.12.52.67-.27.67-.77 1.27-1.37-.23-.22-.45-.25-.67-.47-.32.32 0 .7-.13 1-.12.12-.23 0-.35.18-.12-.43.28-.82-.2-1.28-.29.12-.42.33-.46.88zM41.13.81c-.11.27 0 .33.11.22.17.29.33.59.21.86.19.23.39-.32.58-.59-.3-.3-.6-.3-.9-.49zm10.92 6.58c-.2.53 1.45 1.74 2 .59-.16-.2-.89.51-.67-.47-.38-.51-.9 1.02-1.33-.12zM57.77 11c.47.42.66 2 1.35 1-.1-1.67-1.25-.36-1.09-2.2-.52.36.26.85-.26 1.2zm21.64 33.28c-.26.84.42.36.55.68.22-.29.12-.89.35-.6.12-.13.07-.28 0-.42l-.22-.44c.12.32-.58 1.51-.35.6-.2-.27-.1.55-.33.18zM70.55 14c0 .78 1 .64 1.34 1A3.65 3.65 0 0 0 73 17.57a25.68 25.68 0 0 0-.49-3.63c-.12 2.12-.71-.38-1.47-.33-.04.53-.2.72-.49.39zm3.65 4.31c.14.88 1.27.59 1.79 1 .36-.74-.78-.43-.42-1.3-.21.25-.87.99-1.37.3zm-1.06-3.47c-.46.5 0 .75.22.44a1.39 1.39 0 0 1 .09 1.07c.18.21.38 0 .56.26-.2-.38-.33-1.79.35-.61.13-.34-.17-.72-.31-1.08-.32.49-.62.46-.91-.08zm5.75 1.55c-.18-.21-.38 0-.56-.26-.44.46.07 1-.37 1.45.37-.05.38-.58.93-1.19zm5.19-8.84c0 .77-.16.24-.47.81.42.53-.27 1 .31 1.5l.35-.6c-.2-.57-.39-1.2.25-.83.27-.56-.35-.1-.44-.88zM92.12 23c-.29-.28-.07.55.11.22a2.07 2.07 0 0 1-.23 1.26c.37.28.88-1.17.49-1.65-.14.27-.26.31-.37.17zm12.48 27.27c.15.22.18-.07.12-.19.35-.67.65 1.14 1-.13-.35-1.09-.75-.32-1.12-.52-.08.28.16.57 0 .84zM96.24 7.12c-.44-.9-.89-.9-1.35-.54.5 1.23 1 .91 1.54 1.83.28-1.47 1-.59 1.62-1.13-.12.07-1.66-1.34-1.81-.16zm1.43 1.61c.6.21 1.23-.79 1.81.16.16-2.36 1.77.68 2.62-.4 0-.35-.23-.73-.09-1.07-.49.16-1 1.18-1.47-.33-.73.75-1.43.09-2.15 0-.13.34.17.72.32 1.09-.35.37-.71-.42-1.04.55zm-1.13-4.96a1.91 1.91 0 0 0 3.26 1.35c-1.05-.24-2.61.62-3.26-1.35zM105 6.84a3.65 3.65 0 0 0 1.35.54c-.02-.86-.99-.73-1.35-.54zm6.06 1.38c.7.91 2.39 1.1 3.49.95-.44-1.23-1 .08-1.1-1.37-.12 1.52-.91-.32-1.37.73-.42-.62.35-1.47-.31-1.51.23 1.13-.14 1.35-.71 1.2zm-.17-2.12c0 1.15 1 .27 1.35.54.25-.77-.43-.29-.54-1.1-.42.85-.31 1.09-.81.56zm3.89 3.09a2.79 2.79 0 0 0 2.36.84c-.31-2.63-1.61-1.21-2.36-.84zM127 12c.33.22.67 0 1.25-.1l-.32-.66c-.38.94-.66-.02-.93.76zm6.48-2.62l-.72 1.21c.58.37.62-1.33 1.26-.52.25-.53-.42-.36-.54-.69zm6.52 1.44c.15 2 .69-1 1.21 1.17a2 2 0 0 1 .25-.83c-.46-.99-.97-.16-1.46-.34zm10.76.34c-.28-.28-.07.55.11.22.19.52-.1 1-.15 1.47.37.12.78-.84 1.13.1.51-2 1.09-.66 1.72-.9s-.26-.86.26-1.24c-.65.52-1.27-.43-1.94.46-.21-.37-.08-.71-.31-1.09-.01.68-.51 1.04-.82.98zm18.4 2.33c.58 1 1.24-1.06 1.81.16.12-.34-.17-.71-.31-1.08-.53 1.25-.98-.33-1.5.92zm11.9-.38c0 .8 1.42 1 1.46.35-.52-.19-.99.25-1.46-.35zm11.18 5.26a15.93 15.93 0 0 0 .27-1.66c-.3-.31-.61-.06-.92.33.21.74.46 0 .68.07.2.44-.73.39-.03 1.26zm43.63-2.02c-.1 1.13.81.36 1.11.95.12-.13.07-.27 0-.42l-.21-.44c-.31.56-.6-.12-.9-.09zM274 93.88c.63.22 1.28-.06 1.91.4.29-1.23 1.12-.56 1.71-.47.07-.21 0-.42.13-.62a.38.38 0 0 1 0-.42c-1.23.78-2.45.23-3.75 1.11zM301.94 10c.61-.5-.1-1.13.51-1.64-.11-.14-.23 0-.33-.25l-.24.4c.58.57-.52.95.06 1.49zm5.06 1.56c.6 1.26 0-1.63.6-1 .22-.74-.49-.81-.68-.07a.89.89 0 0 1 .08 1.07z" fill-rule="evenodd"/></svg>