<svg id="Objects" xmlns="http://www.w3.org/2000/svg" viewBox="0 0 374.77 101.8"><title>stroke</title><path d="M5.63,57.64c.33.77.67.82,1,.29C6.3,57.93,6,57,5.63,57.64Z" style="fill-rule:evenodd"/><path d="M6.54,55.6c.34-.21.67.95,1,.28C7.22,55.6,6.88,54.58,6.54,55.6Z" style="fill-rule:evenodd"/><path d="M9.22,59.58c.36.52.37-.18.9-.36-.18-.55-.37-.44-.56-.67C9.35,58.88,9.46,59.24,9.22,59.58Z" style="fill-rule:evenodd"/><path d="M19.35,78.41c.15.29.3.58.44.87.23-.75.45-.21.69-.79C20.11,77.67,19.74,77.64,19.35,78.41Z" style="fill-rule:evenodd"/><path d="M8.45,55.94c-.17.61.58,1.34.79.69,0-.8-.27-.27-.56-1.1C8.65,55.85,8.61,56.16,8.45,55.94Z" style="fill-rule:evenodd"/><path d="M20.92,79c.43,0,.44.74.66,1.31a3.28,3.28,0,0,0-.2-2.12Z" style="fill-rule:evenodd"/><path d="M15.16,61.88c-.14.75.66,1.09.9.06C15.77,61,15.45,62.67,15.16,61.88Z" style="fill-rule:evenodd"/><path d="M25.16,81c.17.09.48-.23.33.23.22.51.46-.61.68-.79a2.48,2.48,0,0,0,1,1.55c0-1.7.78-1.5,1.38-2-.34-.08-.68.18-1-.7,0,1.16-.2.67-.69,1.21a2.11,2.11,0,0,0-.22-.86c-.3.48-.6.46-.89-.07A2.88,2.88,0,0,0,25.16,81Z" style="fill-rule:evenodd"/><path d="M16.61,62.61l.45.88c0-.32.14-.9.34-.61C17.58,62.29,16.82,61.73,16.61,62.61Z" style="fill-rule:evenodd"/><path d="M18,56.81c.33.27.68.07,1-.56C18.7,56.07,18.05,55.75,18,56.81Z" style="fill-rule:evenodd"/><path d="M34.5,86.33c.32.67.89.52.9-.35C35.1,86,34.81,85.84,34.5,86.33Z" style="fill-rule:evenodd"/><path d="M21.41,57.49c.37.13.73,1.23,1.13.08C22.16,57.27,21.79,57,21.41,57.49Z" style="fill-rule:evenodd"/><path d="M33,72.09c.49.41.44-.55,1-1a.79.79,0,0,1-.44-.46C33.43,72,32.88,70.87,33,72.09Z" style="fill-rule:evenodd"/><path d="M25.28,54.84c.15-.68-.66-.75-.88-1.76C24.05,54,25,54.42,25.28,54.84Z" style="fill-rule:evenodd"/><path d="M29.21,56.61c.38,0,.74.35,1.13-.33-.45-.36-.9-.37-1.34-1C28.61,55.72,29.6,56.22,29.21,56.61Z" style="fill-rule:evenodd"/><path d="M41.65,81.19c-.16,1.3.66.28.89.5C42.7,80.64,41.88,81.37,41.65,81.19Z" style="fill-rule:evenodd"/><path d="M42.51,76.84c-.25-.83-.53.42-.77-.7a2.42,2.42,0,0,0,0,1.68C42,76.8,42.51,77.89,42.51,76.84Z" style="fill-rule:evenodd"/><path d="M48.81,89.6c.41.53.81,1,1.24.3C49.64,89.73,49.23,89.32,48.81,89.6Z" style="fill-rule:evenodd"/><path d="M26.55,44.39c.22.79.45.28.67.9.41-.54.14-1.12-.2-1.71Z" style="fill-rule:evenodd"/><path d="M29.53,49.89c.29.92.59.7.89.91C30.57,50.17,29.78,48.93,29.53,49.89Z" style="fill-rule:evenodd"/><path d="M28.92,45.21c.07.22.15.12.23,0,.89,1.14,1.81.16,2.7,1.05.51-.66.2-1.39.48-2.07-.5-.66-.41.69-.8.57-.42-.58-.12-1.05-.55-1.09,0,1.15-.68.79-1,1.39-.25-.81-.52-.59-.78-1.11C28.65,44.34,29.43,44.82,28.92,45.21Z" style="fill-rule:evenodd"/><path d="M47.88,79c-.23-.28.44-.73.58-.59.25-1.08-.44.14-.55-.67-.47.45-.19,1-.37,1.44a3.74,3.74,0,0,0,.89.92A.75.75,0,0,0,47.88,79Z" style="fill-rule:evenodd"/><path d="M21.24,25.65c.37.49.74,1.5,1.13.5C22,25.9,21.63,25.17,21.24,25.65Z" style="fill-rule:evenodd"/><path d="M21.15,24.16c-.18.73.58.81.79.27C21.69,23.26,21.41,24.5,21.15,24.16Z" style="fill-rule:evenodd"/><path d="M22.72,26c.3-.47.18-1,.36-1.45-.19-.22-.38,0-.57-.26A2.78,2.78,0,0,0,22.72,26Z" style="fill-rule:evenodd"/><path d="M49.24,78.66c-.06,1.3.89.47,1.22,1.15C50.78,78.44,49.63,78.56,49.24,78.66Z" style="fill-rule:evenodd"/><path d="M18.68,12c.34.27.86-.29,1.5-1.36C19.68,11,19.19,10.85,18.68,12Z" style="fill-rule:evenodd"/><path d="M53.49,80.28c0-.69-.54-1.63-.89-.92C52.59,80,53.14,81.23,53.49,80.28Z" style="fill-rule:evenodd"/><path d="M29.56,32.6c.36.85,1.65.26,1-1C30.24,32.74,29.9,32.16,29.56,32.6Z" style="fill-rule:evenodd"/><path d="M37.27,46.69c.07,1.14,1.11,1.22,1.58.13a.75.75,0,0,1,0-.85C38.36,44.93,37.79,47.37,37.27,46.69Z" style="fill-rule:evenodd"/><path d="M24.74,19.17c.44,1,.9,1,1.36.52C25.64,19.89,25.21,18.42,24.74,19.17Z" style="fill-rule:evenodd"/><path d="M55.61,81.09c.17.07.34.15.22.44.73-.9,1.41.48,2.15-.46C56.92,81.12,56.45,78.63,55.61,81.09Z" style="fill-rule:evenodd"/><path d="M34.53,33.83c.25.94.54-.29.81-.57a.82.82,0,0,1-.45-.46A2.1,2.1,0,0,1,34.53,33.83Z" style="fill-rule:evenodd"/><path d="M58.2,81.09c-.28.74.34.27.43.88-.19-1.31.4-.06.81-1-.24-1.13-.54.85-.78-.28C58.5,81,58.34,81.31,58.2,81.09Z" style="fill-rule:evenodd"/><path d="M59.54,81.62c.72.4.85,2.06,1.44,1.18-.68-.76.22-1.39-.41-2.15C60.53,82.13,59.91,80.88,59.54,81.62Z" style="fill-rule:evenodd"/><path d="M35,24.8c.53.28,1.28-.32.82-1.41C35.4,24,35.23,23.82,35,24.8Z" style="fill-rule:evenodd"/><path d="M63.36,81.94c.43,1,.9.22,1.34.53.22.51-.06,1-.37,1.45.78.63.77-1.48,1.83-1.12-.21-.92-.24-.51-.65-1.31-.51.75.17.26.31,1.07C65,82.58,64.2,81.18,63.36,81.94Z" style="fill-rule:evenodd"/><path d="M52.45,51.93c.48.65,1.06-.23,1.26-1C53.22,50.82,52.66,50.79,52.45,51.93Z" style="fill-rule:evenodd"/><path d="M45.38,36.37c.41.11.13.3.44.88A4.8,4.8,0,0,0,46,35.79C45.77,35.55,45.57,36.11,45.38,36.37Z" style="fill-rule:evenodd"/><path d="M55.73,39.76c.49.22,1,.38,1.49-.52C56.74,39.59,55.87,38.68,55.73,39.76Z" style="fill-rule:evenodd"/><path d="M49.07,14.53c.25.58.52.37.78.7.4-.39-.6-.9-.2-1.28C49.46,13.71,49.27,14.27,49.07,14.53Z" style="fill-rule:evenodd"/><path d="M43.37,2.68c.45.56.91.11,1.38-.74C44.31,2.12,43.47,1.78,43.37,2.68Z" style="fill-rule:evenodd"/><path d="M67.36,47c.14.3.29.59.43.88,0-.31.08-.62.23-.39C68.24,46.9,67.54,46.3,67.36,47Z" style="fill-rule:evenodd"/><path d="M51.88,10.12c.48.73,1,0,1.46,1.18.21-.48-.06-1-.09-1.49.32-.37.8.44.81-.56-.26-.34-.54.61-.79-.28C53,10.44,52.42,9.19,51.88,10.12Z" style="fill-rule:evenodd"/><path d="M69.6,42.38c.19,0,.37.49.56.27.38-.56,0-1.5-.3-1.51C69.34,41.52,70.12,42,69.6,42.38Z" style="fill-rule:evenodd"/><path d="M58.48,9.82c0,1.06,1.51,1.47,1.59.13C59.54,10.07,59,10.63,58.48,9.82Z" style="fill-rule:evenodd"/><path d="M57.61,2.37c.36.67.75.51,1.14-.33C58.37,2.19,58,1.79,57.61,2.37Z" style="fill-rule:evenodd"/><path d="M64.09,13.65c.37.2.74.8,1.13.1C64.85,13.44,64.48,13.13,64.09,13.65Z" style="fill-rule:evenodd"/><path d="M68.13,15.68c.26.39.54-.12.79.28.13-.34-.17-.72-.32-1.09Z" style="fill-rule:evenodd"/><path d="M69.84,15.19c.29.79.61.05.9.5C70.89,15.24,70.1,14.19,69.84,15.19Z" style="fill-rule:evenodd"/><path d="M85.71,45.67c.12-.13.07-.28,0-.42.16-.2.29.23.44.46.28-.23.17-1.48.59-1,.4-.73-.61-.3-.21-.86C86.19,43.93,85.12,44.64,85.71,45.67Z" style="fill-rule:evenodd"/><path d="M87,44.3c.14.45.29.26.45,0,.16.3.32.59.2.86.19.24.39-.32.58-.58l-.54-1.1C87.44,44.27,87.23,43.73,87,44.3Z" style="fill-rule:evenodd"/><path d="M89.49,48.53c.3.29.6,0,.91-.35C90.12,47.4,89.81,47.91,89.49,48.53Z" style="fill-rule:evenodd"/><path d="M76,18.47c.49.29.47-1.21.27-1.67C75.7,16.75,76.11,17.86,76,18.47Z" style="fill-rule:evenodd"/><path d="M75.16,15.86c.59.4,1.42,1.08,1.71-.49C76.3,15.76,75.76,14.39,75.16,15.86Z" style="fill-rule:evenodd"/><path d="M76.81,18.32c.38-.15.75.25,1.14-.32-.37-.26-.75-.06-1.12-.52C76.73,17.75,77,18.05,76.81,18.32Z" style="fill-rule:evenodd"/><path d="M78.65,22.07c1-.33,1.23.39.61-1.85A4.09,4.09,0,0,0,78.65,22.07Z" style="fill-rule:evenodd"/><path d="M92.89,48.4c.36.65.73.68,1.12.1C93.64,48.3,93.28,47.7,92.89,48.4Z" style="fill-rule:evenodd"/><path d="M98.37,50.78c1.09-1.11,2-.06,2.64-1.67a4,4,0,0,0-2.5.62c-.11-.29.12-.55.24-.82C98,48.1,97.94,49.79,98.37,50.78Z" style="fill-rule:evenodd"/><path d="M85.49,20.55c.58.62.24-1.62.59-1C86.14,18.17,85.31,20.05,85.49,20.55Z" style="fill-rule:evenodd"/><path d="M86.07,20c.33.3.67.28,1-.54C86.77,19.14,86.42,19.34,86.07,20Z" style="fill-rule:evenodd"/><path d="M103.6,49.56l.43.88c.23-.34.12-.69.37-1C104.13,49.56,103.88,49,103.6,49.56Z" style="fill-rule:evenodd"/><path d="M93.53,25.88c.18-.48-.1-1,.37-1.45C93.37,24.15,92.7,25.68,93.53,25.88Z" style="fill-rule:evenodd"/><path d="M109.59,8.3c.52,1.31,1-.13,1-1C110.29,7.32,109.94,7.87,109.59,8.3Z" style="fill-rule:evenodd"/><path d="M121,10c.47.83.45-1,1-.12.21.82-.45.51-.59,1,.44.53.84-.06,1-1-.29-.1-.41-.33-.43-.88.52-1,1,.63,1.49-.5-.27,0-.54.17-.78-.71-.66,1-1.25.51-1.58-.14C121.14,8.42,121.64,9.24,121,10Z" style="fill-rule:evenodd"/><path d="M125.3,9.91l.43.88c.46-.72.46-.32.72-1.2-.4-.76-1.07,1-.67-.48C125.49,8.59,125.35,9.72,125.3,9.91Z" style="fill-rule:evenodd"/><path d="M127,11.12a3.79,3.79,0,0,1,.72-1.63l-.32-.66c-.12.27-.23.31-.34.18,0,.8.1.56-.37,1C126.87,10.41,126.74,10.75,127,11.12Z" style="fill-rule:evenodd"/><path d="M128.76,12.12c.4-.77.76-.07,1.15-.74-.47-.53-1,.42-1.45-.76C128.23,11.53,128.62,11.18,128.76,12.12Z" style="fill-rule:evenodd"/><path d="M130.62,10.18a1.22,1.22,0,0,0-.15,1.47.69.69,0,0,0,.46-.39A2.28,2.28,0,0,0,130.62,10.18Z" style="fill-rule:evenodd"/><path d="M130.94,10.85c.21.36.09.71.32,1.08.22-.3.12-.9.35-.6.13-.34-.17-.72-.31-1.09Z" style="fill-rule:evenodd"/><path d="M131.67,9.22c-.08.43.77,1.82,1.1.95C132.41,9.74,132.05,9,131.67,9.22Z" style="fill-rule:evenodd"/><path d="M138.17,11.92c.28-.77.54-.5.82-1-.25-.83-.54.13-.78-.7A1.51,1.51,0,0,0,138.17,11.92Z" style="fill-rule:evenodd"/><path d="M141.69,11.61c.29.53.59.56.9.08l-.43-.88Z" style="fill-rule:evenodd"/><path d="M143.83,12a8.41,8.41,0,0,0,1.34.55c.38-.46-.67-1.05-.3-1.51-.27-.24-.23.34-.35.6S144.08,11.13,143.83,12Z" style="fill-rule:evenodd"/><path d="M145.36,9.83c.25.4.54-.54.8-.14a1.06,1.06,0,0,0-.77-1.13C145.18,9,145.67,9.43,145.36,9.83Z" style="fill-rule:evenodd"/><path d="M147.87,13.22c.72-1.15,1.36.09,2,.19.47-1.27-.8-1.53-1.06-2.63-.13,1.19,0,1.3-.73,1.62-.46-1-.38-1.6-1-1.57A2.89,2.89,0,0,0,147.87,13.22Z" style="fill-rule:evenodd"/><path d="M148.06,10.5c.48.33,1-.16,1.46.34C149.5,10.25,148.51,9.3,148.06,10.5Z" style="fill-rule:evenodd"/><path d="M150.46,9.66c.18.42.37.22.55.68.33-.6-.25-1.28.16-1.88-.22-.17-.45,0-.69.36C150.94,9.53,151,9,150.46,9.66Z" style="fill-rule:evenodd"/><path d="M153.75,9.75c.17.54.36.45.54.68-.07-.5.22-1-.07-1.49C154.16,9.71,154.06,9.18,153.75,9.75Z" style="fill-rule:evenodd"/><path d="M192.71,17.57c.54.72,1.12.24,1.71-.47-.48-.38-.95-1-1.44-1.19A13.35,13.35,0,0,0,192.71,17.57Z" style="fill-rule:evenodd"/><path d="M203.77,14.6c.24.88.54-.06.79.28C204.75,14.29,204,13.71,203.77,14.6Z" style="fill-rule:evenodd"/><path d="M215.27,16.52c0,.83.95.92,1.35.12C216.18,16.29,215.72,16.56,215.27,16.52Z" style="fill-rule:evenodd"/><path d="M220.79,17.25c.55-.55,1.54-.5,1.74-1.32A1.49,1.49,0,0,0,220.79,17.25Z" style="fill-rule:evenodd"/><path d="M231.92,16.19c.4.52.82.07,1.23.33C233.2,15.86,232.29,15.27,231.92,16.19Z" style="fill-rule:evenodd"/><path d="M243.58,19.83c0-.49.33-.95.38-1.44-.22-.17-.45,0-.69.35C243.48,19.12,243.35,19.45,243.58,19.83Z" style="fill-rule:evenodd"/><path d="M281.18,92.68c.89.63,1.85-1.22,2.73-.59C283.51,90.47,282,92.06,281.18,92.68Z" style="fill-rule:evenodd"/><path d="M284.05,91.47c.35.68.73.52,1.13-.31A.9.9,0,0,0,284.05,91.47Z" style="fill-rule:evenodd"/><path d="M264.83,17a1.39,1.39,0,0,0-.08-1.07,2.46,2.46,0,0,0,1.82-.24,1.84,1.84,0,0,0-2.26-.22C264.72,16,264.58,16.48,264.83,17Z" style="fill-rule:evenodd"/><path d="M268.35,20.29c0-.63.54-1.21.17-1.88C268.06,18.39,268,19.6,268.35,20.29Z" style="fill-rule:evenodd"/><path d="M267.46,16.19c-.13.34.16.73.3,1.09a2.33,2.33,0,0,0,.49-1.22C268,15.66,267.7,16.89,267.46,16.19Z" style="fill-rule:evenodd"/><path d="M294.48,13.31c.42.41.62-.53.83-1-.22-.17-.46,0-.69.35C294.72,12.9,294.55,13.1,294.48,13.31Z" style="fill-rule:evenodd"/><path d="M296.26,10.73c.29.41.72-.89.72-1.2C296.49,9.46,296.27,10,296.26,10.73Z" style="fill-rule:evenodd"/><path d="M298.25,12.19c1,.6,2,0,2.95-.14-.19-1,.42-.77.84-1.4C300.67,10.64,299.75,11.84,298.25,12.19Z" style="fill-rule:evenodd"/><path d="M301.67,11.67c.39.6.83-.29,1.26-.51C302.52,10.71,302.11,10.73,301.67,11.67Z" style="fill-rule:evenodd"/><path d="M303.38,11.2c.45.05.89.55,1.35.13C304.67,10.61,303.85,10.17,303.38,11.2Z" style="fill-rule:evenodd"/><path d="M304.57,12.8c.56.1.78.55,1.1.95.34-.87.57-.9.3-2.09C305.84,13.08,305,12.08,304.57,12.8Z" style="fill-rule:evenodd"/><path d="M305.62,1.08c-.17.94.65.52.9.09-.17-.55-.36-.46-.55-.69C305.75.77,305.85,1.37,305.62,1.08Z" style="fill-rule:evenodd"/><path d="M310.68,9.38c-.12.13-.07.27,0,.42l.21.44c.33-1,1.48,0,2.19-1.26a.74.74,0,0,1-.09-.65c-.55.52-1.07.39-1.62,1.11-.54-1.08.28-.73.27-1.66-.24-.7-.56,1.26-.8.56C310.64,8.57,311.29,9.88,310.68,9.38Z" style="fill-rule:evenodd"/><path d="M307.66.85A2.08,2.08,0,0,0,309.84,0,3.41,3.41,0,0,0,307.66.85Z" style="fill-rule:evenodd"/><path d="M313.64,8.82c.37-.05.33,1.39.86,1.36-.17-.86-.06-1.35.51-1.65C314.57,8,314.1,8.49,313.64,8.82Z" style="fill-rule:evenodd"/><path d="M314.48,7.43c.51.52,1.06-.21,1.6-.69C315.32,6.34,315.16,7,314.48,7.43Z" style="fill-rule:evenodd"/><path d="M319.56,7.71c.15-.34-.27-.73-.08-1.07-.75-.12-1.57,1.92-2.28.63C317.15,9.59,318.85,6.88,319.56,7.71Z" style="fill-rule:evenodd"/><path d="M317,6.4c.77.7,1.6-.59,2.42-1.24C318.65,4.37,317.81,5.86,317,6.4Z" style="fill-rule:evenodd"/><path d="M318.91,3.21c-.1,1.12.82,0,1.14-.31C319.69,2.28,319.28,3.65,318.91,3.21Z" style="fill-rule:evenodd"/><path d="M319.32,4.52c.63.33,1.25,1.05,1.94-.45C320.59,5,320,3.54,319.32,4.52Z" style="fill-rule:evenodd"/><path d="M322.55,6.31c-.64-1,.18-1.91.61-1.42.28.85-.3,1.07-.61,1.42.27,1,.61-.4.89.51A10,10,0,0,1,326,2.2c0-1.49-1.56,1.06-1.65,2,0-1.24-.84-.31-.51-1.52-.89,1.25-1.64,2.81-2.87,4.79C321.44,8.1,322,7.32,322.55,6.31Z" style="fill-rule:evenodd"/><path d="M325.67,4.29c-.13.34.17.72.3,1.08.31-.14.64-.92.93-.75.06-.35-.12-.72.15-1.05-.22-.22-.44-.25-.66-.48C326.06,3.63,326.27,5,325.67,4.29Z" style="fill-rule:evenodd"/><path d="M327,6.11a.91.91,0,0,0,.61-1.42C327.14,5.14,327.25,5.64,327,6.11Z" style="fill-rule:evenodd"/><path d="M327.73,3.64c-.24,1,.5.13.65.91.12-.79,0-.84.49-1.22C328.51,2.65,328.1,3.73,327.73,3.64Z" style="fill-rule:evenodd"/><path d="M.68,54.36c-.17-.51.35-1-.11-1.49-.19.39-.38.16-.57.6.92.18-.38,3.74.56,1.09,1,.24,2-.08,2.93,1,.44-.89.59-.55.79.26.1-.26-.14-.56,0-.84.42-.4.13.82.55,1.09.1-1,.34-.86.92-2.46-.41-.4-.83.53-1.25,1-.33-1.21-.67-.44-1-.28-.74-2-1.86-1-2.25-1.84-.51.87.57,1.61.78,1.53C1.58,55,1.13,53.32.68,54.36Z" style="fill-rule:evenodd"/><path d="M10.43,62.82a1.44,1.44,0,0,0,1.8.12c-.41-.44-.13-.85-.44-1.29C11.58,63.42,11,62.17,10.43,62.82Z" style="fill-rule:evenodd"/><path d="M373.83,13.65c-.95-1-2.49-.76-2.72-3.43-.47,1.15-1.3.64-1.42,2,.14.23.3-.18.46-.38.21.82-.06.55-.37,1-.28-.83-.57-1.05-.88-.93a1.22,1.22,0,0,1,.16-1.46c-.28-.16-.56,0-.58.57-.68-1.54-2.3-.25-3.42.51-1.22-2-2.58.7-3.92,2.15l-.21-.44c.57-2.24,1.83-2.29,2.5-3.77-.21-.62-.45-.12-.65-.91-2,2.27-3.16,1.4-5.07,2.88-.07-.22,0-.42-.1-.64a4.24,4.24,0,0,0,2.12-2.33c-.28-.65-.61.09-.89-.5.12.89-.19,1.09-.59.57a4.57,4.57,0,0,1-.05,1.69c-.65-.52-2.14.2-1.88,1.92-.28.66-.09-1.32-.54-.68-.06-.44.46-.42.27-1.25-.46-.16-.89,1.45-.75,2-.31.29-.23-1.12-.52-1.53-.61.58-.24,1.25-.62,1.84s-.37-.68-.2-.86c-.46-.43-.38.92-.49,1.22a2.12,2.12,0,0,1-.64-1.33c.29-.77.55-.5.83-1-.66-.78-1,.73-1,1.6-.8.17-1.53.22-2.1,1.9-.57-.61.09-1.11-.17-1.7a15.05,15.05,0,0,1,1.38-.71,2.59,2.59,0,0,1,.08-2.53c-.28-.45-.56,0-.58.58,0-1-.54-.1-.64-1.33-.65,1.11-1.22,1-2.07,1.06-.15-.62.62-1.05.8-.13.12-.13.07-.27,0-.42l.24-.4c-.43-.79-.91,0-1.37.29-.2-.87.06-1.69-.14-2.55-.26.88-.27.47-.72,1.2-.41-.54-.27-1-.52-1.53-.29.32-.24.68-.37,1-.31-.45,0-.85-.41-1.31a2.9,2.9,0,0,1-2.05.22c-.27-1,.28-.51.61-1.41-.32-.59-.7.67-1-.31,0,.34-.26.67-.14,1-1.63-.89-3.36,1-5,.35-.13.27.09.58.19.87-.28.52-.56,1-.82,1-.37-3.37-2.23.77-3.17.11.35-3,1.55-2.1,2.48-3.35-.47-.7-1.08.77-1.22-.75l-.72,1.19c-.27-.37-.2-.72-.3-1.08.3.05.63-.88.91-.33-.14-1,.3-.52.39-1.45-.47-1.68-1.12,2.06-1.59.27-.54,1.15-1.1,2.29-1.59,3.44a1.54,1.54,0,0,1,.06-1.69c-.35-1.09-.74-.33-1.12-.53a2,2,0,0,1-.5,1.64c.22.26.46-.44.66.49-.39.48-.77.44-1.13-.11L330,7c-.16-1.26.23-1-.53-1.12-.53-.61.28-1.09-.18-1.7-.2,2-.81,1.37-1.56,3a8.62,8.62,0,0,1-2-1c-.56,2-1.23,2.32-2,3.4-.5-.61.41-1.09.28-1.66-1,.12-2.13,2.92-2.63,4.39,1.05.55,1.43-2.24,2.12-2.75a1.32,1.32,0,0,1,.08,1.06c.29.41.76-.88.5-1.22.91,1.71,2.85-3.24,4.1-.87-.84,2.43-2.57,2.48-3.69,2.18-.77,2.88-2.37,2.58-3.83,2.79a13.18,13.18,0,0,0,.8-3.72c-.33.87-.62.44-.94,1.17-1-2.33-1.42,1.17-2.35-.86a6.88,6.88,0,0,1-1.74,1.31c.3.39-.08.7.08,1.06-.31.29-.61,0-.93.76-.5-.82.14-1.28.49-1.22-.09-1-1.41.18-1.39,1.13-.45-.11-.93.71-1.35-.55-.63-.15-1.34,2-2,1.29-.39-1.24.31-2.37.68-3.53-.82.11-1.21,1.84-2.31,1.47-.39-.84-.17-1-.65-.91-.39.76.69.33.3,1.09.34.09.67.25,1-.12.15,1.1.05,1,.66.91.1.29-.13.55-.26.82-.31.36-.56-1.17-.87-.93,0,.36-.27.68-.15,1-.39.32-.75-.14-1.13-.11-.15-.57,0-.78.25-.81.23-.21.09.35.32.66a3.37,3.37,0,0,0-.05-1.91c-1.61,3.26-3.12,3.09-4.67,4.62-.16-.3-.32-.6-.2-.87a3.36,3.36,0,0,1-2.1,1.91c-.08-1.09,1.16-1.58,1.09-2.22.3.95.59.46.12-.19a5.61,5.61,0,0,1-3.44,1.35c-.34-1.44,1.21-.88,1.21-2.42-.44,0-.58-.42-.81.56-1.47-1.18-4.19,2-5.73,2.4-.33-.59.9-1,.27-1.66a2.18,2.18,0,0,1-1.3,1.78c.33.23.66.6,1,.31.07.21,0,.41.09.64-.7.72-1.33-.85-2.05.64-.21-.37-.08-.71-.31-1.08-.56.95-1.06.24-1.6.69a1.34,1.34,0,0,1-.08-1.07c-.26-.34-.55.6-.79-.28-.24.26-.14.55,0,.84a13.83,13.83,0,0,0-5.56.52,1.25,1.25,0,0,1,.26-1.24c-.34-.13-.69.35-1,.11-.56.51.21,1.15-.28,1.66-.5-.89-1-.56-1.59.27-.31-.45,0-.84-.42-1.31-.21.48.06,1-.15,1.47-.61-1.24-.52.08-1.37.29-.31-.45,0-.85-.41-1.31a1.39,1.39,0,0,0,.08,1.07c-.73.58-2.24-.9-2.2-2.33-1.07.74.84,1.3.15,2.55-.38,0-.26-.61-.75-1.13-.55.79-1.16,0-1.41,1.56-.49,0-1.06.11-1.21-1.18l-.6,1c.4,1.15.17-.88.56.27-.33,1.55-2,.36-3,1.4.17-.84.09-1.55.62-1.84-.76-1.21-.95,1.57-1.75,1.73-.49-1.37-1.05-.21-1.59.28-.61-1.22-1.27-.7-1.92-.4-.14-.92.6-.29.82-1-.21-.65.34-1.23.18-1.88-.65,1.23-1.54,1.39-2.12,2.75-.18-.41-.46-.06-.89-.51-.23-1.24,1.35-.16.5-1.64.36-.82.67.3,1-.53-.31-1-1.29.66-1.22-.75-.38.73-.78.39-1.39,1.13.06-1.72-.65-.06-1.21-1.17-.72,1.21-1.38.8-2.08,1.49,0,.86.53,1.52.87.93-.08,1.46-1.06.56-1.48.49a1.88,1.88,0,0,1,.38-1.44c-.07-.69-.39-.73-.4-1.73-.07,1.89-.67.48-1.3,1.78.23,1.12.53-.13.77.71-.38.07-.78.82-1.13-.11-.1-.42.2-.17.36-.6-.16-.42-.48-.24-.32-.67-.41-.66-.18,1.37-.57.16a3.14,3.14,0,0,1-.06,2.1c-.55,0,0-.71-.42-1.3a2.05,2.05,0,0,0-.15,1.46c-.19.06-.37-.3-.57.16-.58-1,.38-1.8,0-2.75a4.53,4.53,0,0,0-.28,1.66c-.4.92-.72-1-1.14.32-.41-.54-.27-1-.52-1.53-.52.83-1,.25-1.48.07-.3,1.44-1.13,1-1.72.89-.3-.45.6-.79,0-1.27-.53,1.28-1.08.59-1.83.68-.48.44.19,1-.16,1.46-.66.19-.1-1.26-.63-1.75-.3,0-.42.25-.47.8-1.06-2.41-2.3,1.1-3.39-.32-.41,1.39-.66,1.15-1.41,2-.21,0-.33-.85-.78-.71-.1-1.07.69-.52.94-1.18-.68-.7-1.22.14-1.72.89-.56-.4-.29-.88-.63-1.75-.45.28-.7-.35-.93.76l-.42-.88c.17,1.15-1,1.54-1.48.07-.38,1.52-.69.85-1.26.51-.47.73,0,.26.21.87-.28.53-.53,0-.8.13-.42-1-.12-1,.05-1.68-.49,0-1-.32-1.43-1.62.12-.26.24-.3.35-.17-.06-.8-1.11-.46-1.57-.57,1.18.68.94,2.05,2.08,2.52-1.09,1.73-1.19-1.34-2-1,0,.92.84,1.91.71,2.81-.29-.82-1.06-.72-1.3-1.81-.33.88-.36,1.79-.65,2.69.16-1.5-.41-1.45-.84-2.2-.21-.58.5-1.07.05-1.68a3.12,3.12,0,0,0-.28,1.66c-.3,0-.7-.79-.46.38-.34,0-.66-.65-1-1.15,0-.65,1,0,.83-1.4-.62.71-3.37,2.38-2.83-.06-.34-.09-.7.89-1,.12-.52,2-1.69.33-2.56,2.29-.18-1.41-.89-.55-.63-1.75-.38-.35-.31,1.07-.83,1.4-.86-.17-1.71-.82-2.61.39-.08-1.19-.83-.89-.91-.09-.3-1.14-.66-.44-1-1.15.09.7.26.72.4,1.73-.44.1-.93-.77-1.09-1.37-.6-.24-.33,1.22-1.13-.1-.05.34.12.71-.14,1,.49-.25,1,.1,1.44.76a15.89,15.89,0,0,0-2.48-.23c-.06-.21,0-.42-.09-.64.39-.37,1.08.55,1.15-.74-.58-.69-1.13,1-1.91-.38-.16.3-.32.6-.47.37a1.35,1.35,0,0,0,.09,1.07c-.52.69-1-.12-1.49.49-.4-.46-.11-.85-.42-1.3-.44.5.23,1.07-.37,1-.41-.58.29-1-.3-1.08-.33.32,0,.71-.15,1-1.7-2.63-3.87-.24-5.27-1.55-.18-.43.34-.81.26-1.24-.63-.46-1.32,1.41-1.91-.39a1.39,1.39,0,0,0,.08,1.07c-.25.74-.46.2-.7.77-.28-.38,0-.71.14-1-.32-.58-.68,0-1-.3-.12.27.1.57.2.86-.24.71-.45,0-.69.35,0-.35.17-.68-.08-1.06l-.48.8c-.3-.45,0-.84-.41-1.3a8.42,8.42,0,0,1-3.29.32l.32.67c-.3-.06-.63.88-.92.33-.28-.38,0-.71.14-1-.65-.55-1.86.46-2.17.85-.16-.89-.43-1.11-.89-.5.56.86.05.84-.26,1.24,1-.35,1.46.9,2.59.45.12-.39-.11-.17-.21-.44.25-.92.43.56.69-.36a6.42,6.42,0,0,0,.85,1.77c-1.3-1-3.13.68-4-.8-.08.2,0,.42-.13.62-.45.4.11-.8-.31-1.08-.73,1.67-1.38.58-2.05.22-.21,1.15-.68,1-1.15.74a4.48,4.48,0,0,0,.3-2.5c.34-.24.9.13.93-.76-.44.11-.45-.08-.66-.9-.2.93-.5.7-.6,1.41-.39.3-.74-.53-1.15.32-.42-1.57-1.44-.8-2.25-.21,0-1.28-.41-1.2-1-.3a1.39,1.39,0,0,1,.15-1.05c-.74-.65-1.53.72-2.27.22-.21.4.27.87,0,1.26-.24.57-.42-1.12-.68-.06a1.39,1.39,0,0,1-.08-1.07c-.36-.21,0,1.17-.58.58a1.32,1.32,0,0,1-.19-1.28c-.58.58-1.59-.63-1.83.67-.31-.45,0-.84-.42-1.3,0,1.31-.59.16-.57.16-.8.12-1.09,1.78-1.94.45-.17,1.23-1.1.57-1.6.7,0-.36.16-.69-.09-1.07-.37,1.36-.9,0-1.51,1.34-.19.87.56,1.17.78.71.2.19-.54.93-.7.78-.23,1,.5.28.66.48.11.36-.2.69-.37,1-.18.1-.61-1.37-1.12-.1-.29-.52-.55-1-.3-1.51-.4-.78-.84.3-1.23-.74-.11.55,0,1.28-.48,1.22a6.08,6.08,0,0,1,2-3.4,10.34,10.34,0,0,1-1.1-.95c-.18.4-.24,1.26-.58.58-.12.34,0,.7-.14,1-.52.53-.28-.52-.77-1.12.06,1.77-1.94,1.86-2.15,0,0,1-.48,0-.82,1,.36.78.76-.26,1.12.53,0,.78-1,0-1.35-.13a2.36,2.36,0,0,1-.49,1.22c-.28.47-.25-.68,0-.84-.39-.36-.44,1.06-.15,1.46.27-.29.52.27.8-.56.1.43.1.86.2,1.29-.55.57-1-.77-1.58-.15-.11-.82.83-2.3.07-2.53.11,1.15-.17.57-.6,1,0-1.25.4-.52-.42-1.3-.06.81-.1,1.09-.6,1.42-.16-1.62-.86.49-1.33-1,1.37-.13,2.45-1.37,4-.27-.54-1.47,1.05-.57.85-2.24-.18-.43-.37-.23-.54-.69-.24,1.37-1.17.29-1.35-.55.3,1.24-.55,1.07-.17,2.31-.31-.09-.63.57-.91-.08s.91.14.14-1.05c.25-.92.44.57.69-.35-.21-.38-.08-.72-.31-1.09-.68,1.35-.85.25-1-.72,0,1.76-1.46.49-2.17.85-.26.78,0,.56.31,1.08-.78,1.37-2,0-2.41,1.26-.45-.53.08-1-.08-1.49.61,0,1.22-.24,1.81.17a2.37,2.37,0,0,0,0-1.68c-.16.42-.3.2-.45,0a1.75,1.75,0,0,0,0,.85c-.61-1.32-2.32-.17-2.74,1,.31-2.11-.81-1.09-1.07-2.63-.2.35-.38.36-.57.16-.23,1.12.51.25.66.9.18.9-.49,1.42-1.09,2.64-.5-1.2.5-1.16.51-2.06-.55-.85-.45.07-1,.54a4.64,4.64,0,0,1,.08,1.48c-.28.3-.51-.7-.8.14.47.89,1-.83,1.45.77.59-.83,1.17-1.53,1.74-1.32.19.53-.52.31-.69.36-.19.62.33.76.44.34-.1,3.62-3.28.16-5,1.35.16.3.32.59.2.86.25.64.55-.6.79.29.05.6-.86,1.3-1.14.31.21,1-.77,2.28-1.17,1.17-.13-.24.7-.86.92-.34-.13-1.26.26-1.21.4-2.29-.48-.52-.33-.82-.87-1.34.82-.41,1.27.48,2.29-1.06-.46-1,.06-1-.63-1.75,0,.71.42,1.45-.28,2.09-.76,0-1.5-.55-2.26-.2a1.32,1.32,0,0,1,.19,1.28,1.94,1.94,0,0,0,1,.3,2,2,0,0,1-.71,1.2.74.74,0,0,1,0-.84c-.64-.62-.19,1.19-.92.76,0-.64.25-1.24.16-1.89-.83,1.53-2.33-.16-3.21,1.4-.15-.5.15-1-.3-1.5-.42.45-.82-.15-1.27.94a2.59,2.59,0,0,1,.42,1.3c-.54.45-1.06,0-1.6.7-.25-.86.42-2.41.93-1.18-.24-.66.2-1.25-.06-1.91-.49,1.45-1,.82-2,1.72.24.89.54-.35.78.29,0,1-.66.11-1,1-.21-.37-.08-.71-.31-1.09-.3,2.27-1.32-.17-1.95.88-.29-1.59.89-1.05,1-2-.11-.21-.23.07-.34.18-.5-.47.29-.82-.2-1.29-.41.62-1-.13-.82,1-.4.89-.74-.49-1.13-.11-.08-.56.14-1.34.48-.8-.06-1.46-1.48,1.07-1.56-1l-.71,1.2c.27.37.2.72.31,1.08-.45.47-.45-.33-.66-.9-.73,1.62-1.37,0-2.58-.87-.69,1.13-2.13-.71-3.18.14,0,1,.48.27.78.7-.19,1.1-1.3.76-1.83.68-.17-1.07.71,0,.59-1a2.76,2.76,0,0,1-.65-1.32c-.27.41-.8,1.65-1.19,2.42-.52.27-.38-1.13-.75-1.54-.27-.17-1.15,1-1-.31-.9,1.08-1.76.69-2.62.4-.51-.68.44-1.23-.07-1.9-.66.57.17,1.28-.38,1.86s-.53-1.12-.87-1.77c-.31.41-.59-.23-.9-.08a2.19,2.19,0,0,0-.41-1.72c0,.31-.16.89-.35.6-.28.57.34.11.43.88-.32.73-.61,0-.91-.08-.25.54.41.8.55.68a9,9,0,0,1-.15,1.47c-.43,0-.43-.76-.69.36-.47-1,.14-.74.15-1.47-.45-.61-.43.46-.59,1-.54.3-1-.27-1.58-.14,0-.64.36-1.24.38-1.87-.49-.36-.93-2.06-1.55-1.4-.42-1.32-.51-2-1.53-2.25.29.45.68.52.65,1.33-.36.57-.69.24-1,.12-.24.4.14.85-.26,1.24.44-.06,1.25,1.16,1.36.12a2,2,0,0,1-.16,1.46c-.39.08-.24-1.2-.79.14-.5-.46.3-.81-.19-1.28.06,1.28-.56,1.19-1,.54-.3.78.13,1,.43.88-.2.39-.38.16-.58.59-.12-.51-.78-1.06-.53-1.53-.2-.13-1,1.09-.79-.28-.36-.42-.6,1.83-1.16,1.17-.11-.37.21-.69.37-1-.57-.18-1.58-1.43-1.81-.16-.17.16-1-.28-.43-.88-1,.09-2.32,1.32-2.7,3.77-.27.05-.53-.2-.8.14-.43-.74.43-1.37-.17-2.13.55-.78.54-.22.9.08a1.76,1.76,0,0,0,.28-2.08c-.12.2,0,.42.1.64-.35.37-.71.84-1,.12s.35,0,.48-.8c-.28-.9-.62.53-.9-.5-.24,2-1.46.49-2.25-.63-.38.73-.72,2.16.05,2.33-.16-1.1.3-.69.69-.36.11.38-.19.37-.34.18.17,1,1.35.37,1.91.8-1.85,1.32-4.61,0-6.82.67-.11-.3.12-.56.25-.83-.3-.33-.6-.52-.92.35-.15-1.37-.45-.23-.88-.93-.33-.52.76-.92.14-1.46-.43,1.35-.65.52-1.47.08-.36,1-.8,1.71-1.37.3-.4.94-.76.22-1.16,1.16-1.14-3-3.34-1-5.38-2.57,0,.93-.5,1.67-.7.36-.46.45-.35,1-.37,1.45-.15.07-.31.16-.45,0a3.34,3.34,0,0,1,.38-1.87c-.64-.88-.2,1.74-.91.34-.21,1.49-.4.94-1,1-.22-.51.07-1,.38-1.45-1.11,1.06-2.75-.06-3.58,2.44-.54.43-.53-.27-.89-.5-.3-.66.31-1.24-.08-1.9A2,2,0,0,0,83,9.36c-.55-.27-.42.42-.92.77-.32-1.15.43-2.52,1-2.45-.23-.34-.11-.64,0-.42C82.32,6,81.26,4.59,80,6.78c-.4-.59.55-1.07,0-1.68-.42,1.16-1.52-.28-2.27-.19-.22.33-.11.69-.36,1,0-.36.16-.69-.09-1.07-.41,0-.14.28-.47.81-.09-.29.16-.55,0-.84-.47-.92-1-.21-.93.76-.1-.29-.22-.35-.33-.24-.11-.29.12-.55.24-.82-1-.13-2.68-1.82-3.4-.29-1-1.24-.76.32-1.35-.54-.61,1.61-1,1.31-1.75,2.17.26.58.52.37.78.7-.35.71-.67-.43-1,.12-.11-.29.12-.55.24-.82C68.65,5.72,68,4.8,67.23,4.63c-.11-.29.12-.55.25-.82-.34-.12-.68-.45-1,.12-.4,2.28-2.62-1.09-3.76.33a29,29,0,0,1,4,1.38c-.46.5-.91,0-1.36-.12-.19,1,.59.29.78.7l-.71,1.21c-.21-.37-.08-.71-.31-1.08-1,.47-1,2.43-2.08,1.52-.09-.75.76-.83,1.05-1.39,0-.5-.29-1-.08-1.49-.24.29-.85,2.84-1.75,1.76a1.27,1.27,0,0,1,.26-1.25c-.46-.78-.92,1.74-1.62,1.14-.46-.6.34-1.1-.19-1.71-.12.13-.07.28,0,.42,0,.58-.61.06-.48,1.23-.2-.2-1-.54-.81.57-.26-.2-.54.31-.79-.28,0-.77.79-1.48.62-2.27a6.38,6.38,0,0,0-1,1c-.31-.45,0-.85-.43-1.3-.68.24-1.36-.12-2-.17-.23-.52.44-.22.59-1-.87-.71-1.1,2.18-1.95.48-.23.17-.48,1.3-.7.79-.27.57.35.1.44.88l-.35.6c-.67-.86-1.36-.08-2-1,0-1.08.93-1.14,1.25-.11.32-.49.63-.83.93-.77C53.45,4,52.59,2.37,52,3.8c-.45-.67.15-1.25-.3-1.92-.46,1.47-1.81,1.24-2.87,1.24-.25-.79.35-.22.47-.8-.49,0-.26-.73-.66-1.32-.62.58-1.21,0-1.83.69C46,.32,46,1.91,44.73,3.21c.5-.08,1-.55,1.48-.09.24-.26.14-.55,0-.84a.55.55,0,0,1,.9.07c.26.39-.36.54-.46.38.15.69,1.24,2.7,1.8,1.42A1.51,1.51,0,0,0,50.84,5c.26.63.12,1.13.57.25,1.14,1.48,2.31,1.89,3.5,1.34,0,1.46,1.23.42.87,1.76.19-.42.57-.33,1-.55-.18-.41-.38-.21-.56-.68.23-.18.46-.17.69-.36a1.31,1.31,0,0,1-.13,1c.29.7.6.23.89.92.22-.26.1-.55.24-.82.26.63.51,1.16.79.27.19.33.36.94.56.68.31.45-.6.79,0,1.26.47-1.6,2.42-.71,2.84.45.4.52.14-.64.47-.81.11-.12.22,0,.34-.18.42.52.12,1,.54,1.52.76-1.28,2.21,0,3.29.48.28-.77.53-.51.81-1-.55-1-.46.73-1,.12.28-.64.2-.46-.08-1.48.75-1.31,1.38-.52,1.57.56-.32.74-.58-1-.91-.08.51.06.73,1.3.31,1.92.71.06,1.42.72,2.13.82-.22,1.14-.12.68.43,1.3-.38.25-.76-.11-1.12-.94-.21.4.28.86,0,1.26.42-.27.82.4,1.24.32.29-.54-.13-1.13-.42-1.72.65-.24,1.28.46,1.94-.47.1-.55-.12-1.14,0-1.68.68-.26,0,1.1.53,1.52.11.41-.19.17-.35.6.63,1.5,2.15.69,2.9,2.36.93-1.28,1.82-.29,2.72-.19.29,1.11-.63.88-.72,2.05.67.9.88-1.34,1,.72a3.69,3.69,0,0,0,0-2.11,2.1,2.1,0,0,1,2.37.42c.27-1.61,1-.93,1.61-.71.1.29-.13.55-.25.82s-.37-.38-.55-.68a.66.66,0,0,0-.13.62l-.24.41c.41.56.85-.64,1.23.74-.27.54-.52,0-.79.14-.16,1.12.65.59.89.92-.78,1.71.87.39,1.44,1.18,0-.67.14-1.87.61-1.85-.33,1.05.27,1.1.29,2.34.12-.26.23-.3.34-.18-.19-1.18.57-1,.73-2,.31.18,1.24,1.47,1.92.37.4.6,0,1.13,0,1.69.63.59,1.22.71,1.56,1.4.15-.27.31-.54.47-.81l-.43-.88c-.45,1.16-.83-.26-1.25-.32.55-.86,1,.51,1.6-.28-.07,2.57,1.21,1.2,2.09,2.5-.33-.31-.68.27-1-.3,0,1.06.88.74,1.23.74A13.05,13.05,0,0,1,91.74,20c.62-.27.28,1.12.53,1.52.16-.42.3-.21.45,0,0-1.32.58-1.27,1.13.09-.31-1.42.18-.45.72-1.62.62,1.22-.83,1,0,2.1.22-1.54.65-1.08,1-2,.53,1-.67.94-.5,1.64.55.06.67.06,1-1,.49.94-.39.46-.26,1.24,1,1.58,1.3-.16,2.28-.64.26.52.12,1,.53,1.52.51-.93,1,0,1.48-.49.14.57-.11,1.11,0,1.68-.16.39-.3.14-.46.38-.37-.46,0-.84,0-1.26-.68.15-.91.89-1.71.48.48.38,1,1.17,1.46.76.37.63-.62,0-.25.82-.52-.45-1-.29-1.57-.56-.11.27.13.57,0,.84-.44.41-.12-.81-.54-1.1-.2.35-.39.35-.57.16-.1,2.62-1.09-.69-1.72.9-.4-.59.12-1.27-.43-1.3-.34.82.08,1.69-.28,2.51.29.65.61-.09.89.5.12-.27-.09-.58-.2-.86.39-.71.75-.1,1.13.1,0,.77-.37.33-.48,1.22-.46.1-.9-.28-1.37.3-.4-.59.12-1.27-.42-1.3-.79,3-3.21.61-4.66.65-.07-.56.47-1.08.26-1.66,1.35.43,2.69,1.28,4,1.19.23-.74-.49-.8-.67-.06-.34-.75-.8-.59-.31-1.5a3.76,3.76,0,0,1-1.14.32c-.09-.57.34-1.09-.19-1.7-.38,1.18-.49.78-1,.54-.42-.53.11-1-.31-1.5-.78-.43-1.8.3-2.29,1.07,0-.35-.22-.72-.09-1.06.34-.56,0,1.07.46,0-.66-.88-1.36-.21-2-1l-.83,1.41a6,6,0,0,0-.64-1.75c-.49,1.39.27,1.41.41,2.15-.43.71-.8-1.52-1.24-.32-.52-.89.48-1.65-.17-2.55-.11.2,0,.43.1.64-.89.67-1.74-.07-2.6-.43-.48.87.24,1.86.64,1.74-.42.36-.88,2.34-1.28,1.37-.18-.81.48-.21.37-1s-.47.49-.67-.47c-.27.79,0,1.1-.6,1.42a1.08,1.08,0,0,1,0-1.26c-.61-.91-.59,1.64-1.15.74-.16-.64.64-1.21.15-1.88-.44.45-.32,1-.6,1.42-.15.09-.3.17-.45,0,0-.68.62-.64.49-1.64-.58,0-.43-.61-1-1.56-1-.86-2.18.13-3,.17.67-1.48-1.8-1-2.57-1.7.07-1.12,1,.25,1.5-.93-.91-1.11-1.75,1-2.38-.42-.12.28.1.58.21.87-.32,1-.6,0-.92.76-.81-2.14-2-.28-2.46-1.89-1,.88-1.65-.32-2.52,1,.42.1.13.3.44.88-1.28,1.27-1.59-1.13-1.64-2.87A21.18,21.18,0,0,0,63,18.42c-.49-.29-1-.21-1.46-.76-.15-.53.49-.47.75-.89-.31.05-1.69-.95-2-.69-.27-.21-.24-1.35,0-.84,0-1-.46-.05-.69-.05-.12.27.1.57.21.86-.93,0-2.32-2.65-3.6-1.56l-.55-1.1c-.23.39-.45-.35-.69.36-.94-2.31-2-.16-2.91-2.35-1,1-2,.11-3-1.3.63-.62.67-1.08,1.16-1.59-1.13,0-2.3,1.35-2.84,0,0,1.79-.82,2.56-.54,4.59-.56-.28-1.12-.88-1.68-1.19,0,1.88,2.07.85,2,3.12-.24.47-.44-.69-.67-.9-.1,1.31-.92,0-1.38,1.15a2.66,2.66,0,0,0-.42-2.15c0,1-.33,1.22-.82,1.84-.35-.84-1-1.95-1-.72-.4-.59-.17-1.3-.65-1.32-.22-.81,0-.55.36-1-.49-.22-1-.47-1.48.09-.39-.74.43-1.37,0-2.11-.2.31-.39,2-.81,1-.08.49-.37,1,.09,1.49-.65.42-.55.24-.83,1.41-.24.7-.43-1.18-.67-.48-.54.77.27.86.43,1.3-.3.16-.6-.47-.91-.07-.22-.58.49-1.09,0-1.68-.15.9-.81.33-.57-.26-.7,1.6-1.86.73-2.84-.85,0,.49-.32,1-.36,1.45.48.47.26.48.66,1.32.3-.33.07-.7-.1-1.06,1-.25,1.89,1.08,2.83,1.69-.81.69-1.58-1.06-2.39-.4a4.33,4.33,0,0,1,1.23,1.15c-.46.46-.9-.68-1.38.74-.22-.58.21-1.1-.2-1.7-.19.39-.38.16-.58.59-.29-.37,0-.71.13-1.05-.22-.43-.46.28-.67-.47-.13,1.2-.86.41-.94,1.61-.61-.74,0-1.39-.42-2.13-.47.61-1.51-.25-1.59-1-.71.72-.69-.61-1.36-.1-.26-.79.35-.22.47-.81-.64-.95-1.3-.07-1.93-.78A4.46,4.46,0,0,0,28,12.67c-.38-.24-1.11.1-1.16,1.18-.5-.46.29-.82-.21-1.28-.34-.29-.69.47-1-.29-.43.51-.15,1-.58,1-.36-.73.55-1.37.49-2.08.27-.6.51,1.42.79.27-.1-1-1-.92-1.48-.32-.41-.45-.12-.85-.44-1.29-.58.69-1.76,1.45-1.94.48-.2-.24-.22.34-.13.62-.42.12-.84.37-1.24-.73-.28.78-.54.22-.82,1,.51-.67,1,1.52,1.48.32.33,1.08-.15,1.46.66,2.16-.67,1.38-.85-.17-1-.29-.46,1,.44.79.43,1.72.24-.66.47-.64.68,0,.31-.77.58-.21.59-1-.37-.5-.69,0-.56-1.09.27-.36.52.92.8.27.19.83-.32,1.07.32,1.5-.22-1.46.51.07.91.07.06.2,0,1-.19,1.1.36.29.95,1.29,1.42.89.41,1.84,1.12.7,1.45,2.42.58-.33.52-1.24,1.15-1.17.12.36-.2.69-.35,1,.47,1.37,1,.6,1.46,1.16.18-.54.07-.77-.21-.86.32-1,.8.06.81-1,0,.19.13,1.35.44.88.22.81-.05.55-.36,1,.6.8,1.22-.17,1.8,1.41.24-2.21.83,1.08,1.38-.74-.13,1.31.48.56.55,1.52-.42.12-.84.36-1.24-.73-.4,1.73-1.45.23-2.16-.8a3,3,0,0,1-.59,1.86c1.12-1.94,3.22,3.22,4.33-.52.72.27,1.44,0,2.15.8.18-.54.08-.77-.21-.86.23-.41.47-.81.7-1.21.23-.13.45.09.68.47-.36.65-.69-.11-1,1,.33.59.67.55,1,1.14l.47-.81a.73.73,0,0,1,.56.25c.23.51,0,1-.36,1.45.84.44.48-2,1.38-1.16a1.37,1.37,0,0,0-.09-1.06c.23-.35.46-.53.69-.37-.48,1.81,1.28,2.45,1.87,3.31-.67.46-2.32-.93-2.28.67-.68,0-1.35-.81-2-.58-.09,1.19.82.42,1.12.93-.54.53-.54.06-.93,1.19-.25-1.85-.66-.26-.87-2.17a2.47,2.47,0,0,0-.15,2.3c-.44.35-.44-1-.66-1.31-.28.48-.54.22-.82,1-.41-.45-.12-.85-.43-1.3-.52,1-.29,0-.79-.27-.54.61-1.06,0-1.61.72-.45-.52.08-1-.09-1.48.56-.32,1.57.76,1.5-.94-.3-.16-.62.62-.93.78a2,2,0,0,0-.21-.87c-.51.89-.61,1-1,.13-.65.73.06,1.55-.6,2.28-.11.12-.23,0-.34.18-.41-.59,0-1.12,0-1.68-.29-1-.6-.13-.9-.91-.23.26-.13.55,0,.84-.69.46-1.34-1.57-2.05.26-1.23-.82-2.17,0-3.16-1.51-.4,1-.77.21-1.15.34-.14,1,0,1.24-.36,1.87a6.6,6.6,0,0,1,.88,1.76,5,5,0,0,1,.48-1.65c.5-.25,1,.53,1.49-.53.28.8-.51,1.51-.6,2.28.26.57,1.12-.11,1,1.13.76.38,1.54-1.08,2.27.59-.46.62-.91.2-1.38.74.3.21.61,0,.9.92.14-.88.24-.88.45,0,.9-1.44,1.73.9,2.61.41.45.46-.07.84-.24,1.25.28.78.6,0,.9.49a6.05,6.05,0,0,0-.76-2.38,3.44,3.44,0,0,1,.13-1.05c.26-.05.52.19.79.28.12.43-.27.82.21,1.27.29-.32.23-.68.35-1,.15-.16.3.3.46,0,.26.93-.25.48-.25,1.25-.35.53-.67-.79-1,.13,3.5,1.2,7,1.38,10.5,3.13.26-1.72,1.37-.72,1.57.56.25-.9-.09-1.84.17-2.73.65-.38.57,1.32,1.23.73.11.3-.12.56-.24.83.56.29,1.15-.65,1.7-.07-.71,2.23,1.33,1.37,2.21,3.13.46-.38,0-.85-.2-1.28.91.16.5.36,1.34.95.14-.33-.29-.72-.09-1.06.22-.12.45.1.67.48a2.35,2.35,0,0,1,.47-1.23c.51-.62.33,1.14.91.08A1.28,1.28,0,0,1,52,36.49c1.34.74,1.12,1.35,2.81.86a1.34,1.34,0,0,1-.13,1c1.08-1.15,2.11.13,3.18-.58a1.5,1.5,0,0,1,0,.84c.42.08.85-.57,1.28-1.37a.87.87,0,0,1,0,1.26c1.37-.39,2.68,2.07,4.08-.09.42.53-.11,1,.31,1.51-.23.39-.45-.35-.69.36,1.07-.26,2.42-1.41,3.75-.32.18-.91-.88-.73-.19-1.71.57.93,1,1.69,1.55,1.4.36-1.31-.47-.14-.78-.7.44-.89.84-.32,1.26-.52a9.72,9.72,0,0,1-.27,2.08c1.14-.21,2-1.7,3.3-.77.09.29-.16.55,0,.85s.37.22.55.68c.43-.78.21-.83.71-1.21a2.49,2.49,0,0,0,.42,1.3c.58-.39,1.13-.09,1.7-.06.25.56-.37.71-.46.38.4,1.33,1.39-.11,1.73-1.33.57.61,0,1.13-.27,1.67.79.06,1.62-1.62,2.4-.85.22.3-.22,1-.4.63a1.23,1.23,0,0,0,1,1.11c-.18,0-.69.23-.25.82-.23.22-.44-.52-.68.37.35.81.75,0,1.11.52-.13-.58.2-1.62.59-1,.13-.39-.18-.2-.32-.66a2.78,2.78,0,0,0,1.39-1.57c.53.61-.27,1.1.19,1.71.34-.66.92-.62.94-1.61,1,.34,2,1,2.7.65,0-.49-.09-1,.37-1.44.34,1.24-.31,1.82.63,2.16-.32.83-.6.21-.91.35,0,1.09,1-.09,1.46.33,0-.35-.12-.71.14-1,.35.47.61.18.88,1.34.43-.46.15-1,.59-1.42.34-.11.62,1.91,1.24.31.31.45,0,.85.42,1.31-.27.54-.53.29-.79.14,1.64,2.24,4.36.43,6.42,1.18a3.39,3.39,0,0,1-.49,1.65c.4.3.83-.35,1.23.32a2,2,0,0,0,.15-1.46c1,.05,2.8,2.21,3.86-.51.31,1-.41.72-.37,1.45a3.82,3.82,0,0,1,1.46.34c.11-.34,0-.7.14-1,.74-.35,1.94,2.18,2.36.41.26.52.11,1,.53,1.53.34-.22.71-1.19,1-.12.57-2.16,1.93.67,2.85-.8-.1.41.4.88.19,1.28.58-.41,1.16-1.14,1.69.36.24-.53.47-.73.7-.78a2.11,2.11,0,0,0,.2.86c.12-.66.73-.61.45,0,.37-.57,1-.38,1.58.14-.12-.92.18-1,.59-1,.11.29-.12.55-.24.82.55.38,1.13,0,1.68.36-.46,1-.58-.25-.81,1,.33.24.66.6,1,.31.11.36-.21.68-.37,1-.41-.05-.79-1.46-1.23-.32.5-.23.25,1.45.76,1.12.12,1-.31,1-.71,1.21-.18-.52.1-1,.15-1.47-.42-.61-.6.44-.81,1-.38,0-.76.29-1.12-.52.83.28.65-1.29,1.27-.94.22-.75-.72-.43,0-1.26.45-.65-.13,1.3.32.66.61-.85.08-.49-.19-1.29.15-.07.3-.16.45,0-.47-.81-2,.29-2.82-.46.21,1.24-.43.21-.48,1.23a2,2,0,0,0,1.6-.7c.21,2.83-1.62,1.79-2.21,2.54-.81-1.12,0-2.11-.49-3.21-.07,1.39-.74-.44-1.15.75.36-.19,1.34.38,1,1.56-.6-1.44-.6.69-1.46-.34-.44-.68.15-1.26-.29-1.93l-.59,1c.16.29.32.59.2.86-1.07,1-2.12.46-3.19,1,.32,1,.68.3,1,.72-.65.66-1.8,1.13-2-.6.29.18.6,0,.92-.76.14-.78-.54-.3-.32-1.08-.71.15-1.35,1.79-1.8-.16-.29.83-.54.29-.8.14,0,.35-.26.68-.13,1-.82-.79-2.28.59-2.69-1.08a12.28,12.28,0,0,0-1.48.5,3.62,3.62,0,0,1,.13-1c-.41-.48-.31.77-.58,1a2.4,2.4,0,0,1,0-2.11c-.5-.41-1.15,0-1.32-1.38-.17.83.25,1.71-.28,2.51.69.69.3-1.82,1.14-.75.13.85,0,1.34-.49,1.65-.87.32-1.69-1.8-2.57-1.27-.3-1.2.39-.67.71-1.21-.36-.64-.76,0-1.14.32a1.94,1.94,0,0,0,.21.86c-.31.22-.41-.52-.47.38-.61-.91-1.31,1.25-1.9-.79-.09.95-1,1-1.13-.1-.41,1.79-1.47,1.61-2.17.87-.22.26-.1.56-.24.82-.57-.75-1.25-.17-1.21-1.58l-.82,1.41c-.76-.77.26-1.39-.18-2.13-.51.83-1,.61-1.47.08-.09.7-.57,1.36-.73,2-.29-.87.58-1.63.06-2.53,0,2.06-1.49,1.83-2.17.87-.59.36-.54,1.64-1.15,1.17,0-.74.48-1.58-.2-1.28a2.72,2.72,0,0,1,.6-1.85c-.07-.22-.15-.13-.22,0l-.22-.44c-.37.53-.12,1.11-.49,1.65-.59.57-.48-1.12-1.09-1.79-.43.8-.82-.43-1.25.11.43,1.23.89,1,1.35.54a3.31,3.31,0,0,0,.53,1.52c-.48-.25-.44.7-1-.3-.51.38.26.87-.25,1.24-.47-1.07-1.53-.9-2.35-1.25-.15.53.65.73.89.5.12,1.65-1,1.34-1.49.92-.31-1,.79,0,.47-.8-.55-1.13-.46.71-1,.12.7-2-1.73.15-2.45-1.89-.27.84-1.13,1.26-1.74,2.16.1-1.85-1.76-.36-2,.25-.16-.29-.33-.58-.21-.86-.19.64-.65-.14-1.14.75-.34-1.57-.79-.08-1.59.29-.16-.5.14-1-.31-1.5-1.43,1-2.16,0-3.63.54-.16-.56.14-1-.32-1.08-.05,1.7-.79.64-1.12-.51.22,1.3-.54,2.17-1.16,1.59-.18-1.06.71.06.58-1-.18-.41-.37-.21-.55-.67-.18.53.1,1-.36,1-.13-.36.31-.68.14-1-.71-.61-1,0-.92.77-.57.32,0-1.33-.55-1.1a1.47,1.47,0,0,1-.93,1.61C54,46.8,53.87,48,53.45,47c0,.91-.59.78-.92.34,0-.5.24-.23.14-1-.2,1.31-1.94-.29-1.73,1.76-.41-.63-.86,1.22-1.26.53-.3-1,.39-.62.71-1.63-.41-.37-.83.05-1.24-.31-.22,2.64-1.74,1.26-2.18,1.71.05-.79.61-1.07.82-1.4a.72.72,0,0,1,0,.84c.48.52.36-.6.91-.77-.74-.33-.93-.06-1.55-1.81-.47.45,0,1-.14,1.46-.65-1.59-3.3-.17-4.28-.77-.15.12-.95.75-.59,1.42-.6.89-1.1-1-1.15.75-.32-.59.06-1.12,0-1.68.2-.21.37.38.56.68.37-.81-.25-1.36.48-1.65-.58-.07-.67.53-1.38,1.15a2.35,2.35,0,0,0-.21-.86c-.39.7.23.54.09,1.48-.35.37-.68-.42-1,.56a12.09,12.09,0,0,0,5.17,1.68c.5.46-.29.82.21,1.28.42,0,.3-.48.58-1,.44.88-.31,1.66-.72,2.47-1-.14-2-2.13-3.27-.9-.34,0-.66-.87-1-.72.3,1,.21.83-.46.39-.4.39,0,.84-.25,1.25-.82-1.68-1-.46-1.8-.56-.31-.45,0-.85-.43-1.3,0,.92-.33,1.51-.8,1-.31-.45.59-.8,0-1.26-.16.42-.31.2-.46,0A2.19,2.19,0,0,1,36,51a5.33,5.33,0,0,1-2.23-1.86c-.22,1.78-.75-.49-1.25.54-.23-.82.43-.23.58-1-.42,0-.84.18-1.24-.31-.23.17-.48,1.3-.7.79.13,1.11,0,1-.59,1.85.87-.17,1.21,1.19,1.92.36.41,1-.29.73.09,1.48A2.13,2.13,0,0,0,32.91,51c.27-.29.53,0,.8-.56,0,1.38.74.74,1.12.5.28.93-.49.76-.6,1.85.43.21.46-.16.7-.79.13.35.46,1.21,1.1,1.35a3.65,3.65,0,0,1,.71-1.63c.13.71-.05,1.4.42,2.14.31-.6.6.12.9.07-.13.49.14,1,.09,1.48a5.46,5.46,0,0,1,3.6.71c.7-1.29,1.34.63,2-.26,1.15,2.29,2.91-1.06,3.69,1.79.24-.76.46-.22.69-.79.29.83.59.88.88,1.33-.46.48-.83-.41-1,1,.21-1.12-.27-.56-.66-.9-.3.87.14.67.43.87-.54,1-1.06.35-1.58.3-.2-.44.52-.65.68-.37C46.72,58,45.54,59,45,58.69c.25.83.53-.12.78.7-1-.35-1.44.67-2.39.86-.33-.52.75-.92.14-1.47l-.47.81c-1-.94-2.15-.31-2.83.4.67-1.13-.41-.86-1-1.13-.08.54-.37,1,.09,1.06-.8,1.54-.89-.91-1.58.3a3.34,3.34,0,0,1-.08-1.9c-.31-.35-.82,1-.82,1.41-.47.48-1.33-1.48-1.46.1-.2,0-.95-.66-.78-1.12-.44,1-1.69,1.14-2.71.22.6-.43.53-.25,1-1.4-.37-.51-.74-.84-1.11-1.35-.33.23.33,1.52-.13,1-.22,1.08.51,0,.68.05.08,1.38-1.25,2.22-1.82.7-.75-.15-1.54,2.55-2.27,1.09l-.46.81c-.38-.45,0-.84,0-1.27-.44-.38-.91,1.25-1.35.32-.23-.81.43-.52.57-1-1.27.47-2.46,1.23-3.26-.46-.38,0-.75-.17-1.14.76a.87.87,0,0,1,.1,1.05c-.44-1.06-1.68.23-2.47-1,.27-.53.54-1,.8-.57-.22-.74-1.42-.85-2-1-.53,1,.39,0,.55,1.1-.39.67-.75,0-1.14.76a1.32,1.32,0,0,1-.12,1c.29.61.41.1.44.88a.63.63,0,0,0-.46.38c-.56-1.64-.72-1.22-1.44-2,.39-1,.74.66,1.13-.35-.25-.81-.52-.29-.77-1.1.22.86-.82,1.47-1.26,1.38-.11-.28.12-.55.23-.82-.29-1-.59-.12-.89-.9-.19.4.31.86.21,1.27-.79.7-1.57-.43-2.36,0,0,1.11.57-.13.89.49.07.21,0,.42.11.64-.57-.45-.73.35-1.36.75,0,1.19.58.85.79-.16.52.59-.5,1.25.22,1.28-.35.63-1.13.79-.58,1.85.32,0,.44-.47.12-1,.15-.2.3.23.45.45.42-.46.3-1,.57-1.44.67.08,1.35.5,2-.27.8,2.19,1.64.35,2.46,1-.06,1.68-1.26.52-1.37,2,1.25-.59,2,1,3.38-.59.33.95.55,1.75,1.12.51a2.16,2.16,0,0,1-.36,2.29c.18.6.38-.08.56.25-.22-.72.51-1.37,0-2.1.77,1.15,1.58-.36,2.36,0-1,.82-1.7,1.68-1.94,1.75.32,1.55,1.66-.52,2.38-.88,0,1.1.82.85,1.23.73.1-.27-.14-.57,0-.84s.23,0,.34-.19c0,.36-.15.69.1,1.06.94.1,1.89-.69,2.83-.82.06.21,0,.41.1.63-1,.37-1.34,1.08-2.27,1.51.77,1,1.57.23,2.35.82.27-.75-.34-.28-.44-.88.2-.52.38-.38.57-.59.51.66.13,1.7.65,1.74.22-.34.11-.7.36-1-.11-.21-.23.08-.34.19-.26-.51-.18-2.18-.44-.88-.65-1.2.14-1.64.58-1.43-.57.61.64.79.2,1.7.3.41.62-1.06.91-.77A1.1,1.1,0,0,1,31,67.5c-.29.54.26,1.14,0,1.68.41.57.83-.37,1.23.31,0,.93-.45.62-.7,1.63.4,1.24.84-.35,1.23.73.21-.75-.5-.4-.65-1.32.33.06.67-.08,1,.3-.49-.9-.21-1.37-.07-2.33.11-.12.22,0,.34-.18.49.46-.29.81.2,1.28.51-1.34,3.13-.13,2.91,1.49.3-.75.68-.32.69-1.22.58.68.18,1.28.53,1.94-.56-.25-1.13.56-1.69.08a1.78,1.78,0,0,0,2.35.82c.21.44-.18.83.2,1.28.49-.62,1-1.3,1.69-.08.08-1.08.55-.9.26-2.09.32.94.76-.4,1.34.53-.3-1.56.94-.56.93-1.61.81.7-.49,1.22.08,1.9.36-.83.69-.84,1-.54a9,9,0,0,1-.14,1.46c-1.17.46-2.28-.43-3.17.58.25.83.54-.42.78.7,1.51-2.29,2.9,1.57,4.4-.27,1.39,2.23,4,.19,4.68,2.5a8.38,8.38,0,0,1,1.35.53c.26-1.59,1-.37,1.59-.71,0,.35-.16.69.09,1.06.06-1.1.86-1.07.79-.14,1.26-1.18,2.46.77,3.72.09-.35-.62.28-1,.47-1.23.19.51-.48,1-.37,1.45,1,1.12,2.11-.15,3.16-.16-.06,1.59,1.21,1.77,1.45.75.21.79.44.29.66.9.6-2.27,2.85,1.19,4.18-.7,1,2.42,2.84-1.28,3.58,1.15-.33-.26-.68,0-1,.12.23,1.18,1.38-.37,2.25.2.35.23,1.61,1.62,1.68.35.23-.47.44.69.66.9.8-.76,1.57,0,2.38-.84.92.88,2.91.8,4.38,1,37.84,8,75.94,6.89,114.08,5.69.32.51,0,1-.16,1.46-2.81-1.55-5.75,1-8.57-.38-.23.86-.37.74-.82,1-.1-.42.2-.17.36-.61-.44-.53-.94,1-1.35-.12-.36.53,0,1.13-.28,1.67-1.18-2.1-3.11-1.51-4.72-.44-1.27-.38-2.54-1.07-3.85.06a.71.71,0,0,1-.09-.64c-2,1.16-4.8-.5-6.13,1.12-.3-.58,0-.78-.43-.88-.12.27.1.57.2.86-2.52-1.47-4.59,1.13-7.2-.67-.26,1.38-1.53,0-2.15,0-1,0-1.8,1.36-2.26.22a1.61,1.61,0,0,1-2.71-.25c-.51.38.26.87-.26,1.24-.11.49-.69-.71-.42-.88-.63,1.07-1.21.05-1.83.68a.72.72,0,0,1,0-.84c-.82,1.07-1.59.27-2.4.83-.05-1.59-.05-.17-.65-.9,0,.55-.3,1-.59,1a2.37,2.37,0,0,0-.31-1.08c-.56,1.56-1.63-.65-2.74,1a1.32,1.32,0,0,1-.08-1.06c-1.33.44-4.42-.15-4.76.84-.69.19-1.32-1.24-2,.23-.61-1-1.72-1.66-2-.61-4.22-1-8.12,0-12.5-.92-.22.26-.1.55-.25.82-.33-.63-.46-.41-1-1.14-2.37,1.23-5.61-1.4-8.36.52-.21-.37-.09-.71-.31-1.08-1.06.16-2.13.68-3.17.14,0,.6.26,2.44-.74,2.89-.29-.86,0-1.35-.64-1.75-.15-.66.63-1.46.81-.56.43-1-.73-1.52-.67-.48-1.39-1.69-2.87.53-4.26-1.23-.34,1.44-1.29.91-1.9-.38-.24.26-.14.55,0,.84-1.25-.79-2.54-.33-3.8-1.18-.12.34,0,.71-.14,1-1.82-.84-4.37.49-5.71-1.56-.12.2,0,.43.09.64-2-.52-4,.06-6-1.36-1.46.84-3.82-.21-5.63-.49-.44.45.08,1-.36,1.45-.16.08-.31.16-.46,0,.48-2.3-1.37-1.18-2-1.87-.23,1.13.5.26.65.91.19.91-.52.61-.69.78-.7-2.78-2.24-1.2-3.33-2.4-.44.46.07,1-.37,1.45-.15.16-.29-.3-.45,0-.11-.36.2-.69.36-1-.32-.59-.66-.59-1,.12,0,.42.37.88,0,1.26.21.44.45-.27.66.48-.39.83-.74-.37-1.14.75-.35-1.27-.74-.7-1.11-.94-.07-1,.74.28,1-.54-.7-1.47.32-.52.58-1-1.06-1.6-1,.14-2-1-.2.41.29.87.19,1.29-.11.18-.22-.12-.33-.24-.18.53-.08.77.21.86-.59,1.14-1.14.64-1.73,1.75-.34-.46-.53-.51-.42-1.3-.49,0-1,1.68-1.49.92-.25-.44.37-.81.48-1.22-.36-.61-.69.43-.58,1-.36.62-.66-.92-1-.3-.12-.43.27-.82-.2-1.28-.54,1.57-2.27,1.82-2.26.23-.49.09-1-.7-1.47.51-.58-1.74-1.52.18-1.77-1.41-.64,2.47-2.06-1.5-3,.38-.92-.64-1.87,0-2.79-.87-.31-.62.57,0,0-.84-1.54,1.86-3-1-4.5,0,.18.42.37.22.55.68.09.28-.16.55,0,.84-.67-.24-1.32-1.31-2-1.43-.12.52.18.43.33.66.19.78-.51-.21-.69.78,0-.56-.14-.78-.43-.88-.62,2.36-1.77-1-2.72.62a1.32,1.32,0,0,1,0-1.68c-.28-.79-.59,0-.89-.49-.12.33.18.71.32,1.08-.31.86-.61.6-.91.76a1.27,1.27,0,0,1,.24-1.24c-.79.74-1.57,0-2.36,0-.12-.43.27-.82-.2-1.28-.48,2.15-2.86.46-3.63,1.39-.23-1-1.13-.84-.41-1.72-.48-.26-.53.31-.58,1-.47.11-.56-2.06-1.22-1.14.22.74.45,0,.67.46a.69.69,0,0,0-.12.63c-1.12-.16-2.22-1.45-3.37.16A3.91,3.91,0,0,0,34.82,80c-.35.61.1,1.27.31,1.92-.62,1.68-1.18-1.12-1.8.28-.68-.82.3-1.52-.08-2.32-.42.74-.2,1.53-.37,2.29-.44.73-.43-.85-.66-.48-.12-.36.19-.68.35-1-.39-.33-1,.24-.8,1C31,80.21,31,81.5,30.45,79.9c-.75.78-.81.45-1.57-.12-.11.55.29,1.15-.25,1.66l.55,1.1c.4.06.2-1.08.67.06.23-.27.13-.56,0-.85.69.12,2.86-.19,2.44,1.88.22.51.46-.62.68-.79a1.49,1.49,0,0,1-.36,1.87c.23.28,1.37.24.91-.77.49-.3,1,.67,1.46-.52.2.5-.47.94-.36,1.45.38.87,1.55-.68,1.22,1.14.28.52.41-.62.24-.82a1.24,1.24,0,0,1,1.22.73c.11-.35,0-.71.13-1s.52.2.78-.15a3.77,3.77,0,0,1-.12,1,2.54,2.54,0,0,1,2.91-.2c.25.62-.35.05-.46.81.33.62.68-.29,1,.71.74-1.12.71,1.88,1.45.75-.22-.22-.45-.25-.67-.47.32-1.09.59.31.91-.77.29.38,0,.71-.13,1,.19.1.38-.23.56.26.21-1.43,2.13-.43,3,0a.85.85,0,0,1,0,.3,7.1,7.1,0,0,1,3.9.66c.11.36-.21.68-.36,1,.46,1.1.84-.34.81-1,.67-.19,0,1.25.64,1.74.63-.43-.43-1-.09-1.48.94.14,1.9-1.07,2.8.45.37-1.46.77-.74,1.38-1.16.4.46.11.86.42,1.31.73-.85,1.44-.56,2.15-.46.15.81-.6.48-.8.56.45.9,1.31.37,1.92-.47.42.53-.11,1,.31,1.5-.33.68-.8.08-.81,1,1.41.19,2.36-.3,3.62-1.38.62.68-.42,1.23.08,1.9,1.2,0,2.4-.19,3.57,1.14.62-1.33,1-.15,1.35.12.23-.41-.15-.86.25-1.25.85,1.47,2.92-.65,3,1.31,1.4-.12,3.34,1.31,4.39.17.69,1.25,1.43,0,2.11,1.66.51-1.15,1,0,1.49-1.35.4.46.11.86.42,1.31,2.62.26,5.26-.05,7.85,1.52.06-.44.26-.82.09-1,2.1.89,4.2,1.6,6.33.9.53-.49,1,1.11,1.55,1,.1-.27-.14-.57,0-.84.66.49,1.51,1.08,2.47.22l.65,1.32c2.31-.94,4.58,0,6.86.82.07-.2,0-.42.12-.62,4,1.25,8,.62,11.92,1.48.63-1.27,3.34.14,5.06.25.94.06,1.68-.7,2.36.42l.47-.8c.43,1.58,1.47-.46,2.23,1,1.91-1.34,4.62.66,6.89-.42l.43.88c2.93-1.28,5.77.72,8.7-.68,1.24,1.4,2.58-.6,3.82.77.78-1.19,1.49.36,2.27-.64,2.08,1,4.2.65,6.31.15,4.65.7,9.35-.65,14,0l.47-.8c.21-.2.2.37.1.64,2.48-.59,4.28-.39,6.8-1.06l.43.89c.47-.11.2-1.54.92-.76.11.41-.19.17-.36.59.31.29.8.1.81-.55,18.33.5,36.15-3.27,54.44-4.38l.36-.6c2.46.67,5-1.4,7.46-.14.44-.25.84-1.65.91-.33a1.25,1.25,0,0,1,2-.23l.48-.8c.86.1,1.71.43,2.6-.39,4.15,1.1,8.41-1.62,12.53.57l.47-.8a1.24,1.24,0,0,0,2.27-.21c.21.38.08.71.31,1.09.32-1.57.69-.58,1-.12,1.1-1.29,2.41-.92,3.86-.89a1.32,1.32,0,0,1,.08,1.06c.35.22.42-1.48,1-.53.11-.2,0-.43-.1-.64.35-.37.67.43,1-.54a.74.74,0,0,1,0,.84,2.41,2.41,0,0,1,1.84-1.09c.3,1.09-.39.55-.71,1.2a35.34,35.34,0,0,1,4.13-2.14l.53,1.11c-.12,1,.33-.5-.2-.86.65-1,1.21-.77,2.08-1.49.14.91.95.58.41,1.31.38.34.4-1.23,1.13.1.54-.84-.27-.68-.42-.88.82-1.08,1.58,0,2.41-1.25.1.29-.13.55-.25.82.21.27.46-.44.66.49-.19-1.18.4-.45.83-1.4,1.93,1.66,4.2-2.69,5.89-.28.39-1.89,1.6-1.51,2.32-1.88-.05,1.34-1,.33-1.4,1.13.18.42.37.22.55.69-.66.54-1.34,1.75-2,2.12.1-2.19-1.69,0-2,.23,1.29,1.09,3.44.41,4.68-1.45.11.37-.21.68-.37,1,.7-.25,2.15-.22,2.21-2.11.44-.39.27.84.53,1.11,1.31-1.31,2.13-1.29,3.59-2.82,1.73.06,3.47.07,5.26-2,1,.33,2.66-.63,3.34-2,2.19.92,6-4.35,8.86-1.25-.67-2.69,1.71-1.46,1.59-3.86.59.22,1.27-2.24,1.83-.66,2.44-2.31,4.82-2.44,7.13-.36a3.4,3.4,0,0,0,.52-2.07c.38-.24.74.12,1.09,1,.38-1,.7-.5,1-.54.17-1.15.49-1,.74-2-.21-.57-.46.34-.67-.06,1.51-1.44,4-1.39,5.74.77.24-1.54.9-1.87,1.63-1.53a12.58,12.58,0,0,1,5.16-5.83l.63,1.33c-.16-1.37,1-1,1.53-1.75a1.5,1.5,0,0,1,0,.84c1.64-.56,3.17-.85,4.5-2.73,1.72-.41,4-1,5.43-3.47,1.15.24,3.33-2.22,4.28-3.17a21.9,21.9,0,0,0,4.24-5.08c-.43,0-.43-.75-.64-1.33.32-.64.61-.11.93-.75-.55-.43-.8.36-1.11-.53-.58,1.44-1.51-.64-1.73.89-.27.41-.5-.86-.75-1.13a6,6,0,0,1-2.17.41,18.55,18.55,0,0,0,1.9-2.77c-2.69.5-6.36.78-9.5,3.51-.31.24-.6-.06-.89-.51a3.85,3.85,0,0,0,.08,1.06c-.34,0-.69.31-1,.53-.46-1.94-1.82,1.14-2.46,2.5-.31-.73.19-1.38.52-2.05-.32.24-.79-.37-.75-1.13.57-.9.66-.09,1.06-1.38-.25-.65-.57,1.33-.8.14-.42.38-.16.83-.49,1.22-.15.08-.31.16-.45,0,0-.7.52-1.36.52-2.06.11-.12.22,0,.34-.17-.28,1.27.7.31,1.13.1.21.37.08.72.31,1.09,1-.62,1.22-2.78,2.13-3.17.08.78-.79,1.47-1.09,2.21A1.07,1.07,0,0,0,346,47.66c1.07.77,2.22-1,3.35-2-.66-.7-1.39.94-2.08,1.48.44-2,1.81-2.59,2.53-1.44.9-1.09,1.8-2,2.64-1.22,2.77-2.76,5.41-1.82,8.16-4.06-.57-1-1.19-.33-1.75-1.85-.65.39-1.29.3-1.89-.82-.23.26-.11.55-.26.82-.44-1.44-1-.13-1.44-.78a1.52,1.52,0,0,1,.38-1.44c-.57-.89-1.21.11-1.8-.18-.45-.53.25-1-.06-1.48-.87-.67-1.38.91-2.42,1.24-.27-1.18.92-2,1.33-2.61-.19,0-.37-.29-.55-.69-.11.2,0,.42.1.64-.47.51-.71-.4-.93.75-.21-.37-.08-.71-.31-1.08a2,2,0,0,1-2.27.2,1.81,1.81,0,0,0-.05,1.68c-.24.53-.48.73-.7.78a16.58,16.58,0,0,1-.37-2.57c.91-.22,2.3-1.81,2.6-3.55,1.41-.42,2.82-1,4.19-.22-.32-1.7.72-1.1,1.28-.93.14.9-.59-.08-.81.55.57,1,1.23-.84,1.84-1.08.42.59-.28,1,.31,1.08.16-1.43,1.72-1.41,2.52-1,.7-1.29,1.47-.66,2.42-1.24.11-1.43-.81-.34-1.12-.53.8-.81,2.74-2.34,4.11-.86,1-1.72,4.2.13,4.53-3.57.82.53,1.17-1.33,1.83-.66,0,.72-.45.47-.38,1.44a8.83,8.83,0,0,0,3.83-6.38C374.36,15.4,373.61,14.71,373.83,13.65ZM48.36,3.51c-.5-.26-.4.33-1.13-.09.17-.66.38-1.17.7-1.21-.22.89.46.44.35-.18A2.06,2.06,0,0,1,48.36,3.51Zm6.47,1.16c.42.11,1.44-.29,1.46.75A1.41,1.41,0,0,1,54.83,4.67Zm3.15,2c-.23-.35-1-.51-.89-1.35C57.34,4.94,58.13,5.88,58,6.62Zm6.87,3.3c.43-.69.87-1.78,1.27-.95C65.69,9.67,65.26,10.25,64.85,9.92ZM66.93,8c-.16-1.07-.44-.62-.88-1.34.79-.15,1.43-2.4,1.84-.68C67.23,6.24,67.26,7.13,66.93,8Zm1.19-2.43c.47.61.24,1.15.65,1.74-.32.49-.62.3-.92.35C68.08,7,67.82,6.23,68.12,5.55Zm0,4.86c.18-.42.89-.39.71-1.21s-1,.21-.89-.92c.42,0,.84-.25,1.23.74a.9.9,0,0,0,.09,1.06C68.88,10.59,68.5,10.69,68.13,10.41Zm.74-2.89c.3-1.1,1.12.36,1,.71C69.54,8.29,69.2,8.06,68.87,7.52Zm5,3.17c-.47-.23-.48-1.48-1.12-.52-.07.72.66.58.31,1.5-.45,0-.71-.42-.88-1.34.63-1.14,1.84-1.57,2-.24C74,9.8,74.14,10.39,73.91,10.69ZM77.3,6.55c-.58.33-1.14-.23-1.7-.36C76.17,5.78,76.75,5.6,77.3,6.55Zm-1.59,4.72c-.22-.09-.44-.33-.66-.91.32-.48.62-.45.91.08A2,2,0,0,0,75.71,11.27Zm.88,1.34c.32-.69.6.3.9.5C77.16,14.18,76.88,13.18,76.59,12.61ZM80,14.16c0-.25.31-1.46.59-1C80.5,13.71,80.44,14.78,80,14.16Zm-1.15-4.1c.16-.91.77-.46,1.06-1.81.61.54-.47.94-.15,1.46s.63-.82.91.08C80,10.72,79.4,10.24,78.81,10.06Zm3.79,2.85c-.52-.8-.26-2.24.17-2.3A3.06,3.06,0,0,1,82.6,12.91Zm1.83,4.17c-.14-.27-.3,0-.44-.46l.59-1C84.9,16.13,84.61,16.6,84.43,17.08Zm-.22-4.87c-.16-1.34-.56-.3-1-1.14.51-.75,1,.31,1.49-.51.18.4.36.64.55.68C84.69,11.7,84.59,10.83,84.21,12.21Zm2.67,1.91c-.18-.23-.37-.13-.55-.68.51-.26.32-1,.81-.56C86.91,13.28,87.28,13.73,86.88,14.12Zm.94-1.18c-.69-1.52-2,.31-2.36-1.26C86.13,11.83,88,10.67,87.82,12.94Zm3.16.69c.14-.34,0-.7.14-1,.24.83.53-.13.78.7C91.58,13.68,91.27,13.93,91,13.63Zm5,1.69.71-1.2c.31,1.24.68-.3,1,.72A1.67,1.67,0,0,1,95.93,15.32Zm-70.2-1.56c.12-.34.07-.7.36-1,.18.46.37.26.56.68C26.33,14,26,14.54,25.73,13.76Zm3,.64c-.17-1.47-.47.08-.91-.48C27.72,12.54,29.45,13.25,28.69,14.4Zm2.93,2.34c-.36-.62.05-1.5-.55-1.52.81-1.45.9,1.15,1.57,1.38C32.29,17.53,32,15.58,31.62,16.74Zm3.81,3.66c0-1.09-.45-.43-.69.37-.39-1.22.77-2.64,1.29-1.8C36,19.77,35.69,20.32,35.43,20.4Zm-5.65,4.84c.18,1.22.35.29.78.7-.19.33.25.72.1,1.06-.55-.16-.39-.93-.9-.07l-.34-.66C29.55,25.93,29.49,25.57,29.78,25.24Zm-1.47-.32c.3.23,1-.32.66.89C28.82,25.17,28.08,26.05,28.31,24.92Zm.61,4.68c.75.2,1.52-.4,2.27.18A1.27,1.27,0,0,1,28.92,29.6Zm1.84-1.54c.4-1,.77-.7,1.14.09C31.52,28.23,31.13,29,30.76,28.06Zm4.2.53-.33-.66c.28-.83.53-.29.8-.15C35.27,28.05,35.11,28.32,35,28.59ZM51.44,15.36c.23,0,.67.95.31,1.5C51.46,16.35,51.2,15.83,51.44,15.36ZM48,11.07c-.21.4.28.87,0,1.26C47.43,12.55,47.46,10.68,48,11.07ZM46.69,26.36c-.19,1.05-.4,1.62-1,1C46.41,27.43,45.94,26.13,46.69,26.36Zm-.84-9.56c.56,0,0,.89.54,1.52l-.59,1c-.12-.51-.8-.32-.55-1.09.27-.21.53.33.79.27C46.2,18,45.32,17.32,45.85,16.8Zm-7.47,4.67c-.12-.29-.34-.58-.22-.86.23.32.27-1,.68.05Zm2.06-.69c-.45-.65-1.52.65-1.58-1l.22.44a5.23,5.23,0,0,0,.15-1.89c.22.43.46-.27.67.47C39,20.27,40.71,19.63,40.44,20.78ZM41,21c.12-.27,0-.56-.21-.86.57-.46,1.12.9,1.7.35C42,21.4,41.68,21.16,41,21Zm1.41-2.41c.26.32.52.11.78.69C42.86,20.05,42.05,19.53,42.41,18.63ZM38.12,29.68c.34-.05.71-1.37,1-.55C38.81,29.75,38.45,30.58,38.12,29.68Zm1.82.14q-.16-.34-.33-.66l.35-.61c.21-.4-.28-.87,0-1.26.21,1,.47-.49.68.47C40.3,28.44,40.39,29.15,39.94,29.82Zm2.65-2.11c-.34-.2-.67-.78-1-1.14.5-.09,1-.68,1.5-.93a.87.87,0,0,0,.09,1.06Zm.66-5.64c-.33-.49-.68-.06-1-.71C42.53,20.62,43.37,21.14,43.25,22.07ZM43,17.2a1.37,1.37,0,0,1,.09,1.06c-.67-.05-.86-.43-.55-1.1C42,17.37,40.39,18,40,15.9c.55.62.42-.17.91.07a3.62,3.62,0,0,1,.37-1.45.84.84,0,0,1,.91.07A6.62,6.62,0,0,1,42,16.48c.56-1.46,1.08-1,1.61-1.13.46,1.52.91,1.32,1.67,2C44.91,18.45,43.7,17.51,43,17.2Zm2,2.69c-.27.6-.53.36-.78-.27l.46-.81C44.91,19.18,44.78,19.52,45,19.89Zm.07,8.86c-.16-1.53-.75-.12-1.23-.73C44.15,26.14,45.41,27.16,45.06,28.75Zm-.44-7c0-.56.4-1.25.7-1.21.5.47-.29.82.21,1.28C45.22,22.32,44.91,22.29,44.62,21.76Zm2.22,8.83c-.27.53-.54,1-.8.56a.74.74,0,0,0,0-.84c-.43.39-.15.83-.48,1.23-.51-.81.26-1.53.38-2.29.41.23.11,1.35.44.88s-.07-1,.14-1.47c.14.3.29.59.44.89C46.8,29.89,46.56,30.21,46.84,30.59Zm-.29-8.88c.16-.27-.08-.57,0-.85.59.86,1.21-.24,1.8.58C47.77,21.2,47.14,22.7,46.55,21.71Zm1,12.94c.5-.59,1-.3,1.47.34C48.52,35.82,48,35.74,47.56,34.65ZM50,26.42c-.25-.83-.53.13-.78-.7l.47-.8A3.88,3.88,0,0,1,50,26.42Zm.42-10.09c-.48,1.23-.9-.28-1.37.31-.32-1.05-.55-1.32-1.11-1.36-.19.34.24.72.09,1.06-1-1.23-.4-2.07.07-3.79.25.38.06.71.1,1.07.19-.33.37.49.56.25a2.35,2.35,0,0,1-.32-1.08c.42-.64.72.12.59-1,.26,0,.53-.18.78.69-.16.44-.46.19-.35.6a2.08,2.08,0,0,1,1.12.52c-.47.73,0,.25.22.86-.29.84-.53-.45-.8.15.35,1.19.74.75,1.11,1.35.09.39.49,1.84-.14,1.47C51.2,16.65,50.52,17.13,50.4,16.33ZM51,26.71c.43-1,.84-.34,1.25-.11C51.83,26.7,51.41,27.06,51,26.71Zm2.31,9.47c.4-.94.75.26,1.15-.75a2.42,2.42,0,0,1,.32,1.08C54.28,36.7,53.78,37.21,53.31,36.18Zm1-5.82c.36-.78,1.28,0,1.23.73C55.15,30.78,54.73,31.16,54.33,30.36Zm.66-4.8c-.15-.27-.3,0-.44-.46-.1-.94.86-1.77,1.38-1.15Zm.07-3.37c-.91,1.16-.7,3.61-1.65,2.82.67-.7,1.49-3.17.42-4,0-.77.39-.49.7-.79.17,1.27.83.44,1.34,1-.54,1.21.49,0,.66,1.31C56,23,55.55,22,55.06,22.19Zm6.83,15.54c.28-.78.53-.21.81-1C63.3,37.78,62.23,38.33,61.89,37.73ZM64,19.13c.55,1.1,1.15-.43,1.69.77C65.61,20.84,63.6,20.45,64,19.13ZM67.1,21.5c-.21-.62-.45-.11-.66-.9a3.83,3.83,0,0,0,.82-1.41c.36,1.09.75.65,1.11,1.36C67.94,21.29,67.55,20.05,67.1,21.5Zm1.82,16c.27-.6.53-.36.78.27C69.43,38.35,69.17,38.11,68.92,37.48ZM71,21c.43-.59.83-.22,1.25-.11C71.79,21.5,71.37,21.85,71,21Zm.84,18.84c.2-.57-.31-.1-.21-.86.51-.84,1.59-.44,1.68.78C72.82,38.52,72.3,39.85,71.81,39.83ZM76.5,22.09c-.29-.46-.61.29-.9-.5C75.85,20.93,76.65,21.48,76.5,22.09Zm-1.21-1.58c.49.42.28,1.82-.15,1.47C75.48,21.51,74.81,21,75.29,20.51Zm-.64,8.39c.28-.6.54-.36.79.28C75.16,29.77,74.9,29.53,74.65,28.9ZM74.94,26c-.12.3-.07.75-.34.18a2.23,2.23,0,0,1,.48-1.22c.58.89,1.21-.23,1.81.15C76.48,26.58,75.79,25.9,74.94,26Zm3.82,1.59c-.19-.83-.33-1.17-.79-.28a2.28,2.28,0,0,1-.31-1.08c.31-.74.61-.47.92-.76.28.92.59.7.88.92C79,26.74,79.19,26.79,78.76,27.56ZM81,23.74c.22.09.44.33.66.9C81.33,25.6,80.65,24.36,81,23.74Zm8.25.92c-.58.93-.4-.23-.89-.92C88.72,22.8,89.26,24,89.25,24.66Zm-3.49-.93c-.15-.23-.46-.14-.33-.66.7-.42,1,.42,1.45,1.18-.13.34-.07.7-.36,1-.45-.53-.15-1-.31-1.5-.61.85-.86.88-.95,2-.41,0-.27-.73-.43-1.31C85.15,23.76,85.45,24,85.76,23.73Zm-1,1.61c-.32.83-.61.2-.91.34C83.92,24.71,84.5,24.56,84.81,25.34Zm-2.59-.44c.35-.62.7-.82,1-.54C82.91,24.4,82.54,25.72,82.22,24.9Zm.53,16.51c.59-.91,1.15-.67,1.71-.49A1.23,1.23,0,0,1,82.75,41.41Zm2.88-12.2a2.43,2.43,0,0,1-.32-1.09c-.4,1.19-1.36.53-1.34-.53.43.92.92-.76,1.34.53.4-.76.78-.73,1.14.1C86,29.21,85.86,28,85.63,29.21Zm0-2.75c.14-2,1.51-1,2.27-.23A1.75,1.75,0,0,1,85.58,26.46Zm2.71.65c-.11-.29-.33-.58-.21-.86.25.65.56-1.33.8-.14Zm.41,1.73c.76-1.25,1.52.76,1.2,2C89.57,30,89.65,29.56,88.7,28.84Zm1,15.69a1.32,1.32,0,0,1-.19-1.28c.48.34,1-.85,1.46.34C90.53,44.39,90.12,44,89.69,44.53ZM112,50.3c.51.61-.15,1.86-.48,1.22C111.79,51.13,111.53,50.68,112,50.3ZM44.4,47.05c-.2-.57.53-1.31.69-.79C45.09,46.57,44.68,48,44.4,47.05ZM16.75,60.72c-.33-1.36-.68.68-1-.7.39-1.11,1.35-.64,1.35.1C16.86,59.83,17,60.43,16.75,60.72ZM32,66.52c.5-1.06.84,0,.9.08C32.59,66.64,32.28,67.31,32,66.52ZM45.4,60.41c.32-.58,1.21-1,1.13.1C46.15,60.43,45.76,61.11,45.4,60.41Zm1.78,14.07c.39-.82.75-.29,1.12.09C48.25,75.39,47.54,75.34,47.18,74.48Zm9.06-25.82c-.34-.16-1.27.07-1.23-.74C55.36,47.92,56.29,47.6,56.24,48.66ZM46.09,47l.44.88c-.24.52-.47.7-.69.36C46.36,47.84,45.58,47.36,46.09,47Zm-.32,5c-.17-1,.65-.95.26-1.66.23-.35.46-.53.69-.37C46.2,50.63,46.51,52.67,45.77,52Zm4,1.18c-.41-1.75-.41.16-.65-1.32-.57.27-1.75,1.11-1.92.05.1.15.71,0,.46-.38-.39.22-.76.06-1.13-.52.32-.73.61-.17.9.5.36-.6,1-.24,1-1.39.72,1,1.63-1,2,1,.08-1.26.86-1.17,1.25-.53C50.7,50.81,50.87,52.31,49.82,53.19Zm.4,20.91c.44.6.91-.22,1.34,1C51.17,75.55,50.21,75.12,50.22,74.1Zm4.55-19.66c-.3-.09-.41-.32-.43-.88-.81,1-1.57-.6-2.38.44-.36-.54.06-1.86-.56-.68-.38-.65-.37-2.35.26-1.67a.74.74,0,0,0,0,.84c.13-2.38,1.43-1.54,2.19-2.13l.55,1.1c.45-.07.92-1.27,1.36-.31-.23,1.31-1.27,1.47-1.83,1.11.11.31-.06.36-.23.4.37.1.73,1,1.11.94.59-1.16,1.17-2,1.71-.91-.91-.1-.69.86-1,1.38C55.46,53,55,53.64,54.77,54.44Zm1.15,22.45c.43-.84.82.09,1.23.32C56.72,77.85,56.32,77.43,55.92,76.89ZM57.85,52.8c-.28-.92-.58-.94-.9-.08-.11-.22-.22-.44-.32-.66.58-.7,1.13-.21,1.69-.07Zm2.37.4c-.39.62-.76.39-1.12-.51C59.49,52.22,59.85,53,60.22,53.2ZM59.41,77c0-.86.68-1,1-.55C60.4,77.48,59.76,77.15,59.41,77Zm3.18-23.36c-.44-.85-.9-.43-1.36-.11A2.41,2.41,0,0,1,61,55.58c-.33-.33-.67-.43-1-1.13.35-.68.68-.09,1-1-.17-.87-1-.48-1.1-1.36.19.2.38.19.57-.16L61,53.05c.78-.94,1,0,1.83-.69C62.6,52.77,63,53.22,62.59,53.61Zm1.47-.09c-.48-.52-.45.84-1,.13C63.33,52.8,64.18,52.36,64.06,53.52ZM66.37,78c.33.23.69-.55,1,.3C67.09,79.68,65.91,77.71,66.37,78Zm.17-24.25c.53-.11,1,.31,1.57.56C67.62,55.14,66.27,55.29,66.54,53.72Zm1.68.78a2,2,0,0,1,1-.54C69.05,54.8,68.67,55,68.22,54.5Zm1.24-5.38c.33-.69,1.22-1,1.13.1C70.23,48.46,69.82,49.92,69.46,49.12Zm1,6.42c-.21-.44-.45.27-.66-.48l.35-.61C70.42,55,70.7,54.76,70.45,55.54Zm-.18-1.71c.19-.26.39-.82.57-.58-.06.14-.12.27,0,.42.2-.36.39-.34.57-.16C71,54.15,70.63,54.31,70.27,53.83Zm.91,26c.23-1.37,1.25-.37,1.8.15C72.37,80.55,71.79,79.54,71.18,79.86Zm4.49-30c.8-.65,1.59-.38,2.36.41A5.64,5.64,0,0,1,75.67,49.87Zm3.21,7.87c.33-.53.06-.77.47-.8C79.86,57.63,79.21,58.75,78.88,57.74Zm4.2-6c-.34-.2-.43-1.31-1-1.15.33-1,.61,0,.92-.76A1.49,1.49,0,0,1,83.08,51.78ZM91.35,51c.47-.48.92-.44,1.36.11C92.25,51.61,91.8,51.57,91.35,51ZM94.2,59.9,94,59.46c-.07.11-.15.21-.22,0,.21-1,.78-1.55,1.26-.94C94.69,59.4,94.21,59,94.2,59.9Zm27.44-30.48c-.33.21-1.15.55-.78-.7C121,29.73,121.84,28.23,121.64,29.42Zm-.06-15.62a2.33,2.33,0,0,1-.49,1.22c-.27-1-.6-.13-.88-.92l.24-.4C120.77,14.55,121,13.55,121.58,13.8Zm-2.64-3.19c.59.31,1.22-.58,1.8.58-.6.16-.44,1.55-.95,1.61-.6-.5.06-1.94-.41-1.73-.18.48.09,1-.38,1.45A3.37,3.37,0,0,1,118.94,10.61ZM120,13.66c-.4.81-.78.69-1.15.32C119.24,13.79,119.63,13.13,120,13.66Zm-.34,13.47c-.35.42-.7.62-1,.55.22-.31-.91-.23-.42-1.31A7,7,0,0,0,119.66,27.13Zm-1-6.41c-.47.27-.91.1-1.37.3C117.37,20.44,118.68,19.67,118.69,20.72Zm-.83-7.88c-.19.33.24.72.09,1.06-.29-.46-.61.29-.89-.5C117.33,12.87,117.61,12.39,117.86,12.84Zm-2.59-.44c.55.61,1.13.17,1.68.78-.69.44-1.36-.16-2-.18Zm-.57.16a1.91,1.91,0,0,0-.25.82c-.26-.44-1.12-.28-1-1.14C113.86,12.88,114.3,11.61,114.7,12.56ZM114.18,15c0,.56-.52,1.59-.82,1C113.63,15.8,113.93,14.58,114.18,15Zm-4-3.72c.58.92,1-1.07,1.39-1.15.46,1.12-.24.92-.5,2.07-.21-.87-.46,0-.69.36A1.33,1.33,0,0,1,110.19,11.32Zm-2.35,12.87c.33.26.69-.34,1,.3C108.57,24.64,107.71,25.34,107.84,24.19Zm-1-6.42c-.28.59-.55.79-.8.14C106.34,17.32,106.61,17.13,106.86,17.77Zm-2.07,5.94c.33.37.68-.08,1,.3C105.52,24.57,104.66,24.81,104.79,23.71Zm-1.12-.53c-.22-.25-.46.45-.67-.48C103.2,21.62,103.89,22.65,103.67,23.18Zm-5.6-7.45c.39-.31.79-1.45,1.15-.75C98.83,15.64,98.43,16.49,98.07,15.73Zm1.14-.32a1.71,1.71,0,0,1,1.7.36C100.36,16.14,99.36,16.61,99.21,15.41Zm1.87,7.34-.48.8-.32-.67C100.56,22.05,100.82,22.6,101.08,22.75Zm-.61,1.84a7.62,7.62,0,0,0,.18,1.7c-.28.6-.53.06-.78-.28C100.18,25.66,100.17,24.24,100.47,24.59Zm-.73,2.05c.32.93,1.28-.16,1.23.74C100.57,27.45,99.39,28.31,99.74,26.64Zm.92-.77c0-.49-.09-1,.38-1.44C101.6,25.07,101.06,26.53,100.66,25.87ZM101,16c.32-.74.62-.55.92-.34C101.91,16.27,101.33,16.7,101,16Zm1.8,9.86c-.39-.6-.09-1.13.27-1.66.5,1.21,1,.27,1.56,1-.31.83.07,1.57-.61,1.85-.52-.61-.1-1.14-.18-1.71C103.5,25.54,103.17,25.23,102.81,25.85Zm.2,1.29c.61-1,.49.74,1.11.94C103.73,28.4,103,28,103,27.14Zm1,2c.29.52.43-.61.47-.8l.43.88C104.63,29.94,103.82,30.15,104,29.12Zm2.84,4.47-.33-.66c.28-.58.55-.78.8-.14Zm4-5.55c.2-.16.38-.13.56.26-.84,1-1.21-1.66-1.65-2.05l-.59,1a1.83,1.83,0,0,0-2.58-.86,3.82,3.82,0,0,1-.73,2c0-1.64-.44.53-.89-.5a10.22,10.22,0,0,0,1.77-3c.69,1.93,2,0,3-.16-.12.41-.74.78-.49,1.22.43-.57.84-.29,1.27-.94-.14-.23-.45-.14-.32-.66.4.75,1.44-.55,1.45.76-.54-.62-1.42.92-1,2,.09-1.53,1.55-.55,1.58.13C111.76,27.23,110.55,26.51,110.8,28Zm.5-2.07c0-.47.51-1,.82-1-.22.65.51.22.66.9C112.27,26.6,111.79,26.17,111.3,26Zm1.8-13.13c-.34-.3-1.27.05-1.22-1.17.5-.57,1-1.66,1.73-.9-.29.78-.54.21-.82,1C113.07,12.28,113.35,12.06,113.1,12.84Zm.29,15.64c.22-.4-.27-.87,0-1.26.3.11.6,0,.9.08C113.94,28,113.92,28.8,113.39,28.48Zm-.16-2.55c.6-.61.9.35,1.26-.52.14.36.44.74.31,1.08C114.29,26.06,113.73,27.24,113.23,25.93Zm2.52,3.39c.18.4.36.64.55.68l-.24.41c.06.14.11.29,0,.41-.6-1-.17.9-.48,1.23-.26-.34-.53.17-.78-.7A10.67,10.67,0,0,0,115.75,29.32Zm2.41,21.32c.28.53.56.3.31,1.08-.5,0-.27-.92-.75-1.54-.52,1-1-.64-1.48.5.29.21.6,0,.88.92-.24.57-.45,0-.7.78-.4-.34.13-1.63-.42-1.3-.34.46.33,1-.15,1.46-.23.13-.45-.1-.67-.48,0-.63.52-1.22.39-1.86-.27.11-.52-.43-.77-.7a6.56,6.56,0,0,1,4.73.84C119,51.85,118.64,49.52,118.16,50.64Zm1.31-20.78c-.78-.3-.81-.92-1.14.32-.43,0-.51-.75-.42-1.3-.81.93-2.19.37-2.57-1.28a1.72,1.72,0,0,0,2.72-.19,2.77,2.77,0,0,0,.19,1.71c.06-.9.1-1,.59-1,.25.37,0,.71.08,1.06.26-1.12.26-.34.69-.36-.3-.9.4-1,.69-.36C120.29,29.19,119.81,28.94,119.47,29.86Zm.68,22.64c-.55-.64.27-2.08.6-1.42C120.64,52,120.07,51.18,120.15,52.5Zm.9.08-.32-.66c.43-.65.87-1.62,1.27-.94C122,51.91,121.41,51.58,121.05,52.58ZM123,30.81c-.1-1.8-.47-.48-1.1-1.37.44-.79.77-.77.63-2.27.69,2.39,2.06.57,3.13,1.55-.72.57-1.84.47-2.74.6C123,29.83,123.3,30.34,123,30.81Zm4.78-.84a2,2,0,0,0-.37,1l-.22-.44a1.35,1.35,0,0,0-.63-1.75C127.19,27.89,127.29,28.94,127.74,30Zm-1.4,1.56c.58,1,1.2.22,1.78,1-.66.91-1.89.27-2.14-.41C126.18,32.42,126.31,31.85,126.34,31.53Zm-.54,3.33c.44.56,1.52-.5,1.56,1C126.9,35.73,125.85,36,125.8,34.86Zm1.35,17.85c.36-.83.61-1.51-.06-1.91.39-.41.76-.18,1.12.53C127.84,52.06,127.78,53.66,127.15,52.71Zm1.39-23.3c.58.95,1.23-.89,1.81.16C129.82,29.49,128.3,31.37,128.54,29.41Zm4.21-14c.29.55.62-.62.89.5C133.39,16.57,132.59,16.3,132.75,15.44Zm0,18.15c0-.63.6-1.06.91-.34C133.34,33.64,133,33.88,132.74,33.59Zm-1.26-3.91c.69,1.14,2,0,2.34,1.26C133.14,30.42,131.38,31.87,131.48,29.68Zm1.23-12.55c.38-.2.77-.86,1.14-.33C133.44,17.9,133.08,17.21,132.71,17.13Zm4.47,15.38c.63,1.2.76-1.52,1.48-.5-.63.67-.33.5-.6,1.43C137.72,33.47,136.81,33.66,137.18,32.51ZM134,17.45c.88-.95.29-4.55,1.33-3.47a4.15,4.15,0,0,0-.39,1.87c.28-.41.53.12.78.7C135.09,17.07,134.49,18.29,134,17.45Zm1.52,2.25c-.28.58-.55.78-.79.13.37-.33,0-1.79.6-1.42C135.08,18.82,135.57,19.28,135.47,19.7Zm-1.1,33.66c.69-.83.65-.89.73-2,.21.69.44.72.68.06C136.19,52.7,135,54.13,134.37,53.36Zm1.73-35.93c.28-.58.55-.78.8-.14C136.62,17.88,136.35,18.07,136.1,17.43Zm.62,19.47c0-.67.6-.81.92-.34C137.32,37.3,137,37.11,136.72,36.9Zm-.28-2.34c.33-.4.07-.84.49-1.22.59,1.84,1.27.42,1.89,1.22C138.42,35.83,137.18,34.65,136.44,34.56Zm3.53-.74c0-.77.71-1.64,1-.54C140.64,34.11,140.3,34.13,140,33.82ZM144.3,37c.26.34.55-.6.79.28C144.86,38.15,144.11,37.75,144.3,37Zm1.19-2c-.48-.47-.08-.85-.19-1.29l-.6,1c-.53-1.27.05-1.85-.85-2.19.54-.15,1.54-.38,1.68.79.43-.67,1.18.55,1.27-1l.43.89c-.31.77-.57.2-.59,1C146,33.63,145.67,33.59,145.49,35Zm1.23.32c.15-.34,0-.7.14-1,.74-.08.49,1.56,1-.12C148.48,35.43,147.08,36.21,146.72,35.28Zm2.05-.24c-.18-.33-.39.34-.56-.26.44-1.37.65-.5,1-2C149.7,33.58,149.12,34.3,148.77,35ZM150.84,38c.36-.7.69-.7,1-.11C151.51,38.22,151.16,38.7,150.84,38ZM161,14.84a1.54,1.54,0,0,1-1.71.48C159.84,14.75,160.42,14.09,161,14.84ZM158.17,18c-.39.48-.77.45-1.13-.1C157.44,16.93,157.8,17.46,158.17,18ZM157,36c.48.59.45-.86,1.05-1C158.67,36.35,156.9,37.77,157,36Zm5.48-18.49c-.63-.77-3.1,2.92-2.48-.23-.46-.05-1.53.81-1.57-.56a.93.93,0,0,1,1.8.16c.34-1.61.55,0,.91.09a3.78,3.78,0,0,1,.52-2.49c.53,1-.72,1.77-.19,2.73.13-.34.07-.7.37-1C162,16.19,162.7,17,162.48,17.51Zm.86-2.24c-.55-.7-.79-.51-1,.54-.32-1.23.31-1.27.73-1.62C163.17,14.55,163.46,14.93,163.34,15.27Zm1-3.28a1.29,1.29,0,0,1,.19,1.28c-.14-.23-.28-.67-.44-.46s-.23.39-.34.17Zm.78,4.71c.24.83.54-.42.77.71C165.55,17.84,164.75,17.53,165.11,16.7Zm5,1.52c-.6-.24-1.21,0-1.79-.58.45-.43.61-1,.82-1-.09.41.48.51.54.68.15-.34,0-.7.14-1C170.47,16.17,170.64,17.34,170.16,18.22Zm1.93,0a.38.38,0,0,0,0-.42c.35-.32.69-.45,1,.3C172.75,18.76,172.42,18.57,172.09,18.19Zm4.11-1.31c.17.46.37.27.55.69-.33.35-.82.58-.83,1.4a16.32,16.32,0,0,1-.38-3c.49.46,1.59-.26,1.68.79C176.89,16.43,176.54,16.91,176.2,16.88Zm2.62-.81a.75.75,0,0,0,.1.64c.16-.22.31-.41.45.05-.61.17-1.22.46-1.81-.18C178.21,16.41,178.35,16,178.82,16.07ZM178.15,20a.76.76,0,0,0-.44-.46c.27-.76-.41-1.59.18-2.31A3.76,3.76,0,0,1,178.15,20Zm.26-1.25c.38-.52.12-1.11.5-1.64.44.4.9.08,1.34.55-.14.34.1.71.09,1.06C179.67,19.58,179,19.35,178.41,18.77Zm3-1.41c-.14-.23-.28-.66-.44-.46.11.29-.07.55-.24.82l-.33-.66a2.47,2.47,0,0,0,.73-1.62c.23.37.1.71.31,1.08.12-.2.05-.42.13-.62C182,16.44,181.73,16.9,181.39,17.36Zm1.22,1.17c.39-.49.75.11,1.13.1C183.33,19.65,182.6,19.78,182.61,18.53Zm2.64-1.23c.05.21.2.44.09.64a2.15,2.15,0,0,1-.2-.86c.34-.14.7-.61,1-.12C185.83,17.94,185.55,17.14,185.25,17.3Zm1.33,1c.32-.53,1.21-.49,1.11.53C187.33,18.31,186.93,19.07,186.58,18.26Zm1.41,2c-.18-.27-.37-.05-.56-.27.16-.27-.08-.57,0-.84.11.13.22.09.34-.18A1.31,1.31,0,0,1,188,20.3Zm.24-.41c.63-.88,1.2.11,1.82-.25C189.42,20.62,188.82,20.45,188.23,19.89Zm.72-1.62c.52-.89,1-1.52,1.5-.91C190.19,18.81,189.49,18.55,189,18.27ZM192,21.52a1.33,1.33,0,0,0,1.17-1.16c.1.36,0,.71.31,1.08C193,22.18,192.49,22.55,192,21.52ZM59.93,90.3c.43-1.08.84-.72,1.24-.11C61.09,91.13,60.32,91.05,59.93,90.3Zm11.75,2.89c.27-.28.56-1.51.8-.56C72.64,93.29,71.86,94.09,71.68,93.19Zm5.11-6.73c.31-.74.61-.55.9-.34C77.38,86.6,77.07,87.11,76.79,86.46Zm4.93,1.27c0-.81.5-1.09.79-.14C82.24,87.88,82,88.37,81.72,87.73Zm4.45,2.49A4.19,4.19,0,0,0,84.41,88c.5-.71,1.17-1.56,2-1.3.09.49-.6.93-.15,1.46.63-.58.34-1.24.61-1.85.18.46.37.26.55.68C87,88.52,86.54,88.84,86.17,90.22Zm3.41-1.39c-.65.53-1.28.17-1.91-.37.33-.85.39-.28.72-1.63.18.29.35.89.54.68s-.08-.57,0-.84c.41.41.84-.67,1.23.73C89.81,88.33,89.05,87.47,89.58,88.83Zm3.5-.32c.32-.74.62-.71.9.07C93.66,89.31,93.38,88.59,93.08,88.51Zm5.15,1.29c.48-.5,1.38-.82,1.46.34C99.2,90.37,98.7,90.63,98.23,89.8ZM109,89.7c.29.34.57-.17.55.68C109.18,91.23,108.63,90.32,109,89.7Zm37.37,3.37a.79.79,0,0,0-.44-.46c0-.56.41-1.25.71-1.2C147,92,146.68,92.54,146.32,93.07Zm6.47-1.31c.32-.31,1.22-.89,1.13.1C153.55,91.5,153.14,92.74,152.79,91.76Zm31.29-.7c-.28-.54-.69.23-.7.78a2.38,2.38,0,0,1-.3-1.08C183.36,90.35,184.22,90,184.08,91.06Zm2.1,1.67a5.42,5.42,0,0,1-.27-2.34c-.38,1-1,1.31-1,.12.62-.36,1.83-1,2,.6C186.11,90.41,186.53,92.15,186.18,92.73Zm2.21-2.11c-.3-.21-.61.37-.9-.09C187.45,89.21,188.83,89.62,188.39,90.62ZM195.92,88c.47.58,1.61-1.21,1.68.37C197.08,88.15,196,89.57,195.92,88ZM199.6,18c.23.37.14-.45.35-.18-.28.57.34.11.42.89C200.15,19.36,199.41,18.61,199.6,18Zm1.59,71.08c-.23-.88-.51-.37-.77-.71.4-.59.79-1,1.14-.31C201.44,88.4,201.49,88.75,201.19,89.08Zm2.35.85c-.14-.29-.28-.59-.43-.88C203.49,88.1,204.08,89.33,203.54,89.93ZM209,88.76c.24-.54,0-1.07-.32-.67a2.86,2.86,0,0,1,0,1.27c-.21-.44-.46.26-.66-.49.58-.58,0-1.27.62-1.84.25.33.52.12.77.7C209.19,88,209.44,89.23,209,88.76Zm1.47-.08c-.25-.61-.15-2.12.38-1.44C210.67,87.72,210.78,88.22,210.47,88.68Zm.57-.16c.28-.58.55-.78.79-.13C211.55,89,211.28,89.17,211,88.52Zm3,.5c-.32-.58-.68,0-1-.3.68-1.32-.3-.85.05-1.69.51.85,1.07-.26,1.58.15A2.4,2.4,0,0,0,214.07,89Zm.11-70.29c.3.22.62-.52.9.51C214.82,19.87,214,19.59,214.18,18.73Zm26.88,2.13c-.18-.75-.95-.61-.75-1.55C240.6,20.29,241.43,19.57,241.06,20.86Zm5,.47-.31-.66c.64-.42.54-.25.83-1.41.29.35.6.14.88.93A1.85,1.85,0,0,1,246,21.33Zm4.21-.66c-.46-1.07-1.16.66-1-1.15C249.51,20,250.37,19.55,250.23,20.67Zm11.31.24c-.37-.46,0-.84-.19-1.29.36-.57.69-.23,1-.11C262.36,20.24,261.88,20,261.54,20.91Zm2.16-.43c-.54-.45-.43,1-.91.33C262.69,20.33,263.89,19.09,263.7,20.48Zm11.7-1.2c.44-.78.85-.64,1.25-.1C276.21,19.9,275.82,18.92,275.4,19.28Zm16.33,68.5c-.14-.23-.28-.67-.44-.47-.17.43,0,2-.5,1.65-.08-.5.22-1-.07-1.49.61-.15.59-1.92,1.19-2A3,3,0,0,1,291.73,87.78Zm1.13.11c-.36-.94-.25-1-.76-1.13.11-.58.33-2.07.84-1.4C291.85,86.77,294,85.86,292.86,87.89Zm1.93-.45c-.29-.46-.63.82-.9-.08.34-1.06.41-.91.74-2A7,7,0,0,1,294.79,87.44Zm.37-1c.12-.27,0-.57-.2-.86.24-.47.47-.45.68.06C295.5,86.13,295.39,86.49,295.16,86.42Zm.56-69.2c.38-1.09,1.31-1.17,1.25-.09C296.58,16.43,296.12,17.74,295.72,17.22Zm1.38-.71c.59-.79,1.16-.79,1.69.37C298.22,16.76,297.64,17.23,297.1,16.51Zm2,.2-.32-.66c.29-.84.54-.29.8-.14ZM318.9,14.4c.48-1.08.93-.92,1.39-1.13C320.18,14.09,319.32,14.89,318.9,14.4Zm9.2-4.59c.73.09,1-1.33.3-2.51.2-.36.4-.57.59-.58.55,1-.43,1.93.36,3C328.93,9.86,328.48,10.8,328.1,9.81ZM334.84,54c-.54.51-1.34.39-2.19,1.26-.1-.29-.32-.59-.2-.86a9,9,0,0,1,2.69-2.48A2.23,2.23,0,0,1,334.84,54Zm3.53-.71c-.76.15-1.53.83-2.28.62.7-.78,1.39-1.13,2.1-1.91A2.18,2.18,0,0,1,338.37,53.25ZM350,51.43c.32.59-.07,1.11,0,1.68-.25-.34-.53.17-.77-.71C349.42,51.93,349.68,52.19,350,51.43Zm-10.69,1.91-.42-.89c.69-.4,1.53-3.14,2.79-2.26C340.64,51.24,339.78,51.6,339.27,53.34Zm2.64-39.86c-.25-.64-.55.59-.79-.29C341.35,12.28,342.1,12.68,341.91,13.48Zm1.44.77c.57,0,1.17-1.23,1.71-.47C344.48,14.4,343.89,15,343.35,14.25Zm3.87-4.06c.27.71.39.72.45.05.49.73-.54,1.52-.7.78A2.2,2.2,0,0,0,347.22,10.19Zm.09,4.24c-.32.38-.63.79-.91-.1C346.72,13.85,347,13.89,347.31,14.43Zm-1,20.8c-.28,0-.45-.75-.41-1.3.31.28.56-1.2.73-1.62.47.46.07.85.18,1.28.12-.1.23,0,.34.25C346.57,34,346.09,33.79,346.3,35.23Zm1.47-.07c0,.63-.52,1.26-.81.56C347.37,35.11,347.29,34.24,347.77,35.16Zm2.15-21.11c-.74-1.61-1.62,1.18-2.39.4-.38-.94.45-.46.27-1.24-.37.47-1,.51-1-.31.72-.46.8-.67,1.42-2,.24.95.52.45.8-.13a8.37,8.37,0,0,1,.61,2.17c.61-.78.22-1.67.08-2.52C350.62,11,350.49,13,349.92,14.05Zm16.32,6.67c0-.57.63-1.82.94-1.17C367.16,20.32,366.57,20.78,366.24,20.72Z"/><path d="M101.5,9.91c-.15.39.29.22.1.64,1.29-1.92,2.5-.25,3.76-1.14a3.85,3.85,0,0,0-3.15-.7c-.12.27.09.57.2.86C102.11,9.61,101.8,10.12,101.5,9.91Z" style="fill-rule:evenodd"/><path d="M24.05,80c.36.57.75-.38,1.13-.34C24.8,79.58,24.43,79.18,24.05,80Z" style="fill-rule:evenodd"/><path d="M44.32,76.57c-.29.32-.23.68-.35,1,.18.24.38-.32.57-.58a2,2,0,0,0,.21.86C45,77.08,44.61,77,44.32,76.57Z" style="fill-rule:evenodd"/><path d="M27.8,44.27c-.46.23.71.2.66,1.32a4.51,4.51,0,0,0,.14-1.46C28.11,43.45,28.29,45,27.8,44.27Z" style="fill-rule:evenodd"/><path d="M35.06,57.49a1.08,1.08,0,0,0,0,1.26c0-.55.28-.75.57-.59C35.86,57.62,35.19,57.81,35.06,57.49Z" style="fill-rule:evenodd"/><path d="M33.79,52.33c0-.35.15-.69-.1-1.06a2.41,2.41,0,0,0-.47,1.22c.22.39.46-.51.68,0C34,52.28,33.85,52.22,33.79,52.33Z" style="fill-rule:evenodd"/><path d="M49.6,83.33c.39,1,.29-.51.47-.81.33-.46,0,.66.43.89.62-1.19,1.22-.85,1.81-.28.11-.41.13-.83.25-1.24a1.63,1.63,0,0,1-2.37,0C49.93,82.84,49.62,82.61,49.6,83.33Z" style="fill-rule:evenodd"/><path d="M32.74,47.18c1.38-.2,2.29.2,3.63-1-.16-.42-.48-.22-.32-.66-.5-.42-.3.31-.81.57.11-1.06-1.7-.33-1.22-1.15C33.74,44.15,33,46.16,32.74,47.18Z" style="fill-rule:evenodd"/><path d="M55.42,90.77c.33.85,1.64.84,2.36.41C57,91.1,56.21,90.85,55.42,90.77Z" style="fill-rule:evenodd"/><path d="M17.89,10.84c0,.77-.39.34-.7,1.22.73.47.71-.27,1-.56C18.35,11.11,18,11.3,17.89,10.84Z" style="fill-rule:evenodd"/><path d="M35.68,47.41c.41-.2.82.37,1.25-.53C36.53,45.87,36.09,47.24,35.68,47.41Z" style="fill-rule:evenodd"/><path d="M54.18,79.49c-.32.32,0,.71-.13,1,.25.4.52-.09.79-.14C55.05,79.77,54.32,80.65,54.18,79.49Z" style="fill-rule:evenodd"/><path d="M29.47,22.9c.11-.2,0-.42-.1-.64.24-.58.45,0,.69-.79-.45-.34-.9-.78-1.37.32C29.13,22.29,29.29,21.74,29.47,22.9Z" style="fill-rule:evenodd"/><path d="M42,36.1c.6-.54.5.49,1.13.51A15,15,0,0,1,43.59,35C43.08,35.49,42.14,35.32,42,36.1Z" style="fill-rule:evenodd"/><path d="M66.81,83.7c-.19-.79.6-.31.48-1.22-.25-.64-.54.6-.78-.28.09.88-.53,1.25-.06,2.53.31-.4.62-.64.91-.35C67.61,83.84,66.94,84,66.81,83.7Z" style="fill-rule:evenodd"/><path d="M68.82,84.72c.51.73,1.07-.82,1.57.56.37-.77-.3-.58-.09-1.07C69.8,84.41,69.32,84.25,68.82,84.72Z" style="fill-rule:evenodd"/><path d="M71.21,83.87c-.21-.37-.09-.71-.32-1.08-.65.5-1.28.26-1.91-.38.08,1.78,1.19.46,1.65,2,.4-1,.76-.33,1.12.52.67-.27.67-.77,1.27-1.37-.23-.22-.45-.25-.67-.47-.32.32,0,.7-.13,1-.12.12-.23,0-.35.18-.12-.43.28-.82-.2-1.28C71.38,83.11,71.25,83.32,71.21,83.87Z" style="fill-rule:evenodd"/><path d="M41.13.81c-.11.27,0,.33.11.22.17.29.33.59.21.86.19.23.39-.32.58-.59C41.73,1,41.43,1,41.13.81Z" style="fill-rule:evenodd"/><path d="M52.05,7.39c-.2.53,1.45,1.74,2,.59-.16-.2-.89.51-.67-.47C53,7,52.48,8.53,52.05,7.39Z" style="fill-rule:evenodd"/><path d="M57.77,11c.47.42.66,2,1.35,1-.1-1.67-1.25-.36-1.09-2.2C57.51,10.16,58.29,10.65,57.77,11Z" style="fill-rule:evenodd"/><path d="M79.41,44.28c-.26.84.42.36.55.68.22-.29.12-.89.35-.6.12-.13.07-.28,0-.42l-.22-.44c.12.32-.58,1.51-.35.6C79.54,43.83,79.64,44.65,79.41,44.28Z" style="fill-rule:evenodd"/><path d="M70.55,14c0,.78,1,.64,1.34,1A3.65,3.65,0,0,0,73,17.57a25.68,25.68,0,0,0-.49-3.63c-.12,2.12-.71-.38-1.47-.33C71,14.14,70.84,14.33,70.55,14Z" style="fill-rule:evenodd"/><path d="M74.2,18.31c.14.88,1.27.59,1.79,1,.36-.74-.78-.43-.42-1.3C75.36,18.26,74.7,19,74.2,18.31Z" style="fill-rule:evenodd"/><path d="M73.14,14.84c-.46.5,0,.75.22.44a1.39,1.39,0,0,1,.09,1.07c.18.21.38,0,.56.26-.2-.38-.33-1.79.35-.61.13-.34-.17-.72-.31-1.08C73.73,15.41,73.43,15.38,73.14,14.84Z" style="fill-rule:evenodd"/><path d="M78.89,16.39c-.18-.21-.38,0-.56-.26-.44.46.07,1-.37,1.45C78.33,17.53,78.34,17,78.89,16.39Z" style="fill-rule:evenodd"/><path d="M84.08,7.55c0,.77-.16.24-.47.81.42.53-.27,1,.31,1.5l.35-.6c-.2-.57-.39-1.2.25-.83C84.79,7.87,84.17,8.33,84.08,7.55Z" style="fill-rule:evenodd"/><path d="M92.12,23c-.29-.28-.07.55.11.22A2.07,2.07,0,0,1,92,24.48c.37.28.88-1.17.49-1.65C92.35,23.1,92.23,23.14,92.12,23Z" style="fill-rule:evenodd"/><path d="M104.6,50.27c.15.22.18-.07.12-.19.35-.67.65,1.14,1-.13-.35-1.09-.75-.32-1.12-.52C104.52,49.71,104.76,50,104.6,50.27Z" style="fill-rule:evenodd"/><path d="M96.24,7.12c-.44-.9-.89-.9-1.35-.54.5,1.23,1,.91,1.54,1.83.28-1.47,1-.59,1.62-1.13C97.93,7.35,96.39,5.94,96.24,7.12Z" style="fill-rule:evenodd"/><path d="M97.67,8.73c.6.21,1.23-.79,1.81.16.16-2.36,1.77.68,2.62-.4,0-.35-.23-.73-.09-1.07-.49.16-1,1.18-1.47-.33-.73.75-1.43.09-2.15,0-.13.34.17.72.32,1.09C98.36,8.55,98,7.76,97.67,8.73Z" style="fill-rule:evenodd"/><path d="M96.54,3.77A1.91,1.91,0,0,0,99.8,5.12C98.75,4.88,97.19,5.74,96.54,3.77Z" style="fill-rule:evenodd"/><path d="M105,6.84a3.65,3.65,0,0,0,1.35.54C106.33,6.52,105.36,6.65,105,6.84Z" style="fill-rule:evenodd"/><path d="M111.06,8.22c.7.91,2.39,1.1,3.49.95-.44-1.23-1,.08-1.1-1.37-.12,1.52-.91-.32-1.37.73-.42-.62.35-1.47-.31-1.51C112,8.15,111.63,8.37,111.06,8.22Z" style="fill-rule:evenodd"/><path d="M110.89,6.1c0,1.15,1,.27,1.35.54.25-.77-.43-.29-.54-1.1C111.28,6.39,111.39,6.63,110.89,6.1Z" style="fill-rule:evenodd"/><path d="M114.78,9.19a2.79,2.79,0,0,0,2.36.84C116.83,7.4,115.53,8.82,114.78,9.19Z" style="fill-rule:evenodd"/><path d="M127,12c.33.22.67,0,1.25-.1l-.32-.66C127.55,12.18,127.27,11.22,127,12Z" style="fill-rule:evenodd"/><path d="M133.48,9.38l-.72,1.21c.58.37.62-1.33,1.26-.52C134.27,9.54,133.6,9.71,133.48,9.38Z" style="fill-rule:evenodd"/><path d="M140,10.82c.15,2,.69-1,1.21,1.17a2,2,0,0,1,.25-.83C141,10.17,140.49,11,140,10.82Z" style="fill-rule:evenodd"/><path d="M150.76,11.16c-.28-.28-.07.55.11.22.19.52-.1,1-.15,1.47.37.12.78-.84,1.13.1.51-2,1.09-.66,1.72-.9s-.26-.86.26-1.24c-.65.52-1.27-.43-1.94.46-.21-.37-.08-.71-.31-1.09C151.57,10.86,151.07,11.22,150.76,11.16Z" style="fill-rule:evenodd"/><path d="M169.16,13.49c.58,1,1.24-1.06,1.81.16.12-.34-.17-.71-.31-1.08C170.13,13.82,169.68,12.24,169.16,13.49Z" style="fill-rule:evenodd"/><path d="M181.06,13.11c0,.8,1.42,1,1.46.35C182,13.27,181.53,13.71,181.06,13.11Z" style="fill-rule:evenodd"/><path d="M192.24,18.37a15.93,15.93,0,0,0,.27-1.66c-.3-.31-.61-.06-.92.33.21.74.46,0,.68.07C192.47,17.55,191.54,17.5,192.24,18.37Z" style="fill-rule:evenodd"/><path d="M235.87,16.35c-.1,1.13.81.36,1.11.95.12-.13.07-.27,0-.42l-.21-.44C236.46,17,236.17,16.32,235.87,16.35Z" style="fill-rule:evenodd"/><path d="M274,93.88c.63.22,1.28-.06,1.91.4.29-1.23,1.12-.56,1.71-.47.07-.21,0-.42.13-.62a.38.38,0,0,1,0-.42C276.52,93.55,275.3,93,274,93.88Z" style="fill-rule:evenodd"/><path d="M301.94,10c.61-.5-.1-1.13.51-1.64-.11-.14-.23,0-.33-.25l-.24.4C302.46,9.08,301.36,9.46,301.94,10Z" style="fill-rule:evenodd"/><path d="M307,11.56c.6,1.26,0-1.63.6-1,.22-.74-.49-.81-.68-.07A.89.89,0,0,1,307,11.56Z" style="fill-rule:evenodd"/></svg>